<?xml version="1.0" encoding="utf-8"?>
<!-- Generator: Adobe Illustrator 24.0.2, SVG Export Plug-In . SVG Version: 6.00 Build 0)  -->
<svg version="1.1" id="Capa_1" xmlns="http://www.w3.org/2000/svg" xmlns:xlink="http://www.w3.org/1999/xlink" x="0px" y="0px"
	 viewBox="0 0 595.28 841.89" style="enable-background:new 0 0 595.28 841.89;" xml:space="preserve">
<style type="text/css">
	.st0{fill-rule:evenodd;clip-rule:evenodd;fill:#222221;stroke:#FFFFFF;stroke-miterlimit:10;}
	.st1{fill:#222221;}
	.st2{fill-rule:evenodd;clip-rule:evenodd;stroke:#FFFFFF;stroke-miterlimit:10;}
	.st3{fill:none;stroke:#222221;stroke-width:2;stroke-miterlimit:10;}
</style>
<path class="st0" d="M128.86,459.35l124.43,0.01l0,0c-0.01,2.48,1.26,4.16,4.01,5.31c2.64,1.11,5.35,0.31,7.95,0.96
	c0,0.6-2.23,0.58-2.31,1.74c-0.16,2.23-2.28,3.86,1.62,3.21c3.17-0.53,6.82,1.24,8.25-2.36c0.84-2.11,0.07-2.06-1.81-2.24
	c-1.31-0.13-2.89,0.04-4.21,0.04c0-0.41,2.99-1.17,3.51-1.2c1.44-0.07,3.15-1.36,4.4-2.05c1.05,0.14,1.89-1.34,3.28-0.89
	c0.41,0.13,1.16,2.17,1.43,2.7c0.36,0.72,0.99,1.21,1.27,1.97c0.83,2.23-0.35,4.78,0.19,6.96c0.16,1.95-0.26,6.29-2.51,6.72
	c-2.12,0.41-4.24,0.88-6.25,1.7c-1.44,0.59-2.66-1.62-3.01-2.86c-0.34-1.22,0.77-2.58,0.12-3.94c-1.05-2.17-5.57-3.43-7.75-2.98
	c-1.54,0.32-1.37,0.81-2.12,1.93c-1.1,1.66-2.98,0.81-3.93,1.89c-0.33,0.37-1.44,3.21-0.85,3.44c4.61,1.79,7.11,4.49,12.34,4.49
	c0,0.13,0.04,0.24,0.04,0.38c0.12,0.04,0.03,0.23,0.16,0.27c0,1-4.4,2.97-5.4,3.44c-3.38,1.59-5.87,1.9-7.75,5.49
	c1.21,4.56-7.09,6.25-5.9,11.63c0.45,2.04,0.79,4.79,1.85,6.57c0.29,0.49,1.17,1.73,0.89,2.36c-0.16,0.35-0.81,0.81-1.12,1.01
	c-0.93,0.6-0.58,1.39-0.58,2.28c0.48,0.87,2.65,3.03,1.43,3.71c-0.56,0.31-1.85,0.78-1.35,1.7c0.05,0.09-2.03,3-2.24,3.13
	c-0.71,0.42-3.9,1.97-4.13,2.86c-0.72,0.18-1.65,3.66-1.12,4.33c0.9,1.14,1.5,1.04,2.66,1.51c0.49,0.2-0.99,2.93-1.43,3.21
	c-0.66,0.41-4.38-1.08-4.59-0.23l-0.23,0.39c-1.45,0-2.67-1.43-4.67-1.43c-0.98,0-4.93,1.98-5.71,2.67
	c-0.72,0.71-4.52,2.59-1.24,2.59c0.34,1.38-2.53,1.04-3.59,1.28c-3.08,0.69-5.85,1.5-7.64,4.41c-0.98,1.59-1.51,3.2-2.62,4.87
	c-0.57,0.85-0.26,2.35-1.12,3.21c-0.46,0.46-0.48,1.55-1,2.24c-1.63,2.18-2.83,4-3.66,6.31l0,0h-75.83l0,0
	c0.59-1.77-0.58-2.72-2.17-5.11c-0.73-1.1-0.27-3.17-0.66-4.52c-0.98-3.4,3.08-2.85,4.24-4.64c0.73-1.12,0.16-2.89,2.04-2.75
	c1.96,0.15,1.19-1.54,2.04-1.47c2.6,0.21-1.79-4.01-2.31-4.87c-0.39-1.09-0.6-3.44-1.85-3.87c-1.89-0.64-3.35-1.72-5.32-1.28
	c-1.93,0.44-5.43-5.73-1.85-4.37c2.3,0.88,2.95-0.61,4.44-0.15c1.43,0.44,1.67,0.21,2.97-0.39c1.23-0.56,2.23,0.54,3.12,0.54
	c1.39,0,4-1.16,3.39-2.98c-1-2.96,3.01-1.12,1.74-3.28c-1.44-2.44-2.07-2.83-4.86-3.71c-1.77-0.56-2.6,0.31-4.17,0.31
	c-1.46,0-1.95-0.44-3.51-0.27c-1.59,0.17-0.57-4.45-0.54-5.38c0.03-0.95-1.65-2.59,0.62-2.59c0.29,0,0.98-2.29,1.12-2.55
	c1.39-2.54,1.22-2.66-0.66-4.33c-0.97-0.86,1.38-3.15,2.08-3.55c0.34-0.19,2.11-0.8,0.93-1.24c-1.68-0.62-2.12-1.18-3.43-2.09
	c-1.91-1.32-2.22-2.23-2.7-4.52c-0.25-1.21,3.3-2.02,3.2-3.25c-0.07-0.92-0.09-2.76-1.16-2.9c-2.04-0.26-2.6-0.88-3.09-2.82
	c-0.24-0.95-1.96-1.47-2.47-2.36c-0.62-1.06-0.65-2.34-0.85-3.52c0-1.99,0.21-3.54,1.04-5.33c0.79-1.71,1.52-2.73,0.77-4.68
	c-0.71-1.85-4.54-8.47,0.46-7.46c1.93,0.39,3.39,2.91,4.9,0.35C129.15,462.08,129.1,460.67,128.86,459.35L128.86,459.35z"/>
<path class="st0" d="M131.03,564.1h75.83l0,0c-0.29,0.8-0.53,1.66-0.74,2.62c0.54,1.55-0.05,3.6,0.42,5.29
	c0.63,2.21,2.03,5.79,3.47,7.58c0.96,1.19,2.13,2.18,3.66,2.63c1.73,0.5,4.88,4.41,5.9,5.99c0.6,0.92,1.62,2.82,2.47,3.4
	c1.97,1.36,3.18,0.74,5.4,0.93c2.25,0.64,4.02,1.79,6.44,1.62c1.49-0.1,3.49-0.99,4.71,0.04c4.14,3.51,2.46,9.5,1.62,14.11
	c-0.14,0.75-0.16,1.95-0.69,2.44c-1.06,0.96-2.29,0.09-3.12,1.04c-0.7,0.8-2.93,1.99-3.93,2.32v0.08c1.02,0.26,3.1-0.68,4.28-0.77
	c3-0.24,1.31,0.34,1.77,2.2c0.86,0.5,1.5,0.41,1.5,1.47l-0.04,0.04c-1.63,0-2.74-0.32-2.74,1.7c0,0.45-0.73,1.35-0.46,1.58
	c0.61,0.53,1.12,0.61,1.12,1.55l-0.04,0.04c-1.31,0.26-3.07-0.09-4.24,0.58c0,2.34-4.4,2.71-4.4,5.14c0,0.71,0.4,1.67-0.73,1.04
	c-0.93-0.52-0.63,2.67-3.28,1.97c-0.98-0.26-5.77,4.54-7.37,5.26c-2.43,1.09-2.33,0.63-3.09,3.09c-0.63,2.06-1.68,2.56-3.59,3.52
	c-0.87,1.53-2.45,2.53-3.32,4.17c-1.2,2.27-2.54,4.98-3.08,7.46c-0.43,1.93-1.66,1.88-1.66,4.06c1.65,0,1.04-3.59,3.39-3.59v0.08
	c-0.7,0.18-1.62,5.72-1.77,6.69c-0.53,3.29-0.31,6.54-1.31,9.82c-1.52,4.05-5.54,8.27-10.14,8.27c-1.92,0-4.72-9.01-5.98-9.01
	c0,2.62,1.81,4.29-1.97,4.29c-0.19,0-3.99,0.06-2.74,0.35c2.27,0.53,4.29-0.53,5.63,1.16c0.83,1.05,1.1,1.98,2.2,2.71
	c0.58,0.38,2.02,0.91,2.16,1.62c-0.73,0-4.53,2.08-5.59,2.47c-7.03,2.57-8.15,9.33-9.14,15.92c0.11,3.4-1.65,4.2-3.55,6.53
	l-1.2,1.47c-1.03,1.27,1.76-1.16,1.89-1.24c0.72-0.44,1.68-1.08,2.55-1.08c0.5,2.03-0.38,4.43,0.19,6.69
	c0.66,2.58,2.28,5.41,2.28,8.04c0,1.69,0.17,1.78-1.04,3.09c-0.73,0.79-1.93,2.02-1.66,3.09c0.96,0.24,1.53-1.95,2.7-2.09
	c0.38-0.04,2,4.19,2.51,5.22c0.38,0.77,0.82,1.5,1.2,2.28c0.38,0.79,0.84,2.52,1.5,3.09c0.64,0.55,1.16,1.71,1.43,2.51
	c1.07,2.26,2.95,4.14,4.05,6.22c1.23,2.31,0.96,1.59,0.96,4.21l0,0c-0.69-1.54-3.43-3.06-4.99-3.38c-1.65-0.33-3.49-0.87-5.01-1.62
	c-1.32-0.65-2.35-1.94-3.8-2.46l-6.83-0.12l-9.14-4.52l-36.26,0.19c-0.24-0.74-0.95-0.94-1.12-1.66c-0.19-0.8,0.35-1.64,0.35-2.51
	c0-1.67-4.31-3.9-5.4-4.99c-0.85-0.86-0.31-1.26-0.58-2.28c-0.16-0.61-1.22-0.94-1.62-1.58c-1.13-1.81,0.41-1.39,0.81-2.78
	c0.13-0.44-0.12-1.48-0.15-1.86c0-3.26,3.5-4.61-0.04-7.27c-3.25-2.44,1.77-3.56,1.77-5.22c0-1.14,0.3-4.09-0.77-4.6
	c-3.87-1.83,2.1-6.35-0.62-6.8c-3.5-0.58-2.98,0.7-5.79,1.39c-0.39,0.1-1.39-2.12-2.62-0.85l-3.05,3.13
	c-1.06,1.09-3.85,4.87-4.17,1.35c-0.2-2.17,0.13-4.88-1.89-6.15c-1.48-0.93-1.61-2.24-2.01-3.79c0-1.6-1.29-2.73-1.23-4.29
	c0.09-2.4-1.37-2.72-1.7-4.71c-0.19-1.15,0.3-1.87,0.66-2.9c0.59-1.69-0.55-3.6,0.16-5.68c0.91-2.69-1.39-3.01-1.04-5.33
	c0.16-1.05,0.81-1.78-0.42-2.55c-1.55-0.97,0.05-2.72,0.27-4.02c0-1.6-2.31-3.94,0.5-4.13l6.56-0.47c2.59-0.18,0.92-1.7,1.43-3.36
	c0.41-1.36,1.96-4.89,3.47-4.64c2.35,0.39,1.32-0.5,2.7-1.54l2.51-1.89c1.55-1.17,1.27-2.25,1.27-4.02c0-1.8,0.09-4.49-0.62-6.11
	c0.87-0.49,2.63,0.57,2.89-0.93c0.3-1.73,0.65-0.8,1.31-2.44c1.24-1.58,3.6-1.79,1.43-4.17c-1.31-1.45,0.16-3.31-0.89-4.37
	c-0.94-0.95-2.34-0.58-2.28-2.21c0.09-2.2-1.89-0.54-1.89-2.55c0-0.98,1.08-1.63,1.04-2.05c-0.03-0.33-0.49-0.63-0.27-0.93
	c0.77-1.03,1.63,0.76,1.54-0.7c-0.1-1.69,2.58-3.78,2.89-5.99c0.16-1.1-1.45-4.16,0.89-3.98c2.43,0.19,2.35,0.1,3.7-2.4
	c1.65-1.1-0.14-1.77,0.54-3.17c0.38-0.78,1.66,1.79,2.28,1.54c1.85-0.71-0.36-4.57-0.77-5.45c-0.37-0.79,1.15-1.43,0.5-2.55
	c-0.65-1.13,0-3.11,0.08-4.56c0.1-1.87,4.36-0.85,4.48-4.1c0.11-3.17-2.42-7.49-1.5-10.4c0.66-0.29-0.19-1.33-0.5-1.62
	c-0.45-0.42-1.77-0.87-1.97-1.24c-1.3-2.4,2.05-1.3,2.89-2.4C130.37,565.48,130.82,564.74,131.03,564.1L131.03,564.1z"/>
<path class="st0" d="M376.68,282.18l-1.24,0.51c0.11,0.44-0.1,0.91,0,1.36c0.17,0.74,0.43,1.27,1.24,1.42
	c0.76,0.14,1.95-0.64,2.59-0.91l0,0c1.4,0.98,2.55,2.44,4.24,2.94c3.58,1.04,6.61,3.34,9.87,4.95c1.6,0.79,3.23,2.42,4.59,3.56
	c1.95,1.64,2.21,3.96,3.63,5.8c0.58,1.79-0.74,3.22-2.04,4.45c-5.23,4.93-1.45,13.24,3.82,16.2c1.57,0.88,5.65,0.41,6.44,1.2
	c0.89,0.89,0.66,7.37,0.66,8.85c-0.2,2.79-0.03,3.98-1.35,6.49c-1.63,3.11-4.82,5.96-6.09,9.28c-0.98,2.55-3.41,5.61-5.48,7.15
	c0-2.22-0.98,1.88-1.58,2.63c-0.47,0.57-1.93,1.07-1.35,2.01c0.55,0.9-0.08,2.66-0.46,3.52c-2.4,3.91-8.47,7.21-12.54,9.08
	c-2.07,0.96-4.13,1.79-6.33,2.44c-2.43,0.71-5.53,0.99-7.79,2.12l-0.23,0.35c-2.57,0-6.34,2-8.99,2.44l-36.45,5.99
	c-1.98,0.42-6-0.17-8.1-0.27c-3.66-0.17-3.94-3.35-6.44-3.94c-1.12-0.26-3.75-2.54-3.55-0.81c0.12,1.05,0.15,3.46,0.7,4.29
	c1.43,2.17-0.44,4.29,0.89,6.65c0.42,0.75,0.12,1.7,0.58,2.47c0.84,1.42,0.94-0.04,1.7-0.04c0.07,0.3,1.57,1.85,1.89,1.89
	c0.57,2.34-0.18,7.49-0.81,10.05c-4.74,0-4.01,1.79-4.01,5.88c-0.1,1.17-0.05,2.22-0.35,3.32c-0.42,1.6-3.29,1.48-2.04,3.83
	c0.7,1.32,1.39,2.85,2.35,3.98c1.93,2.28,0.5,0.59,1,2.55c1.2,4.69-1.73,6.66-5.59,8.81c-0.78,0.44-1.55,1.2-2.51,1.2
	c-0.47,0-0.82-0.01-1.11-0.02l0,0c-0.38-1.68-2.82-4.64-4.1-5.74c-2.28-1.96-4.27-2.44-7.3-2.44v-33.61l0,0l-0.26-101.74l0,0v-13.82
	l9.6,0.01l0,0l21.37,0.19l12.96-15.19c0.66-0.44,2.22-0.57,2.28-1.35c0.05-0.76,0.53-1.83,1.2-2.24c0.31-0.19,2.68,0.59,3.04,0.89
	c0.83,0.67,1.34,1.6,2.63,1.35c0.82-0.16,1.64-0.43,2.12-1.24c0.76-1.27-0.36-2.39,1.04-3.21c1.48-0.86,1.27-2.69,2.24-3.79l0,0
	c1.46,0.42,1.88,1.45,2.7,2.47c0.67,0.83,1.87,0.9,2.78,1.24c1.62,0.6,2.49,2.67,4.17,2.94c1.55,0.25,1.47,1.72,2.31,1.86
	c0.68,0.11,1.71-0.92,2.31-0.42c1.58,1.28,0.93,1.53,3.24,1.24c2.61-0.34,0.65,1.64,2.31,2.24c1.57,0.37,2.84-0.29,3.97,1.04
	c1.07,1.25,3.7,0.23,4.44,2.36c0.88,2.53,4.48,1.12,6.22,1.12l0,0c-0.13,0.29-0.2,0.73-0.2,1.36c0,1.23-0.93,3.34-0.85,3.36
	c0,0.08-0.02,0.06,0.04,0.08c0,2.54-2.85,0.39-0.77,3.21C376.67,279.09,376.37,280.83,376.68,282.18L376.68,282.18z"/>
<path class="st1" d="M423.35,360.45l15.71-33.3l16.19-8.78l-0.63-2.19l0.49,2.18v0.93c0,0,2.89,1.87,3.76,1.25
	c0.87-0.62,2.05-2.12,3.42-1c1.37,1.12,3.76,3.49,3.76,3.49s1.82-0.25,2.82,1.37c1,1.62,3.34,3.36,3.59,4.11
	c0.25,0.75,6.65,3.74,6.65,3.74l1,3.98l1-0.5v3.24l3.02,1.25l4.11,1.99c0,0,0.87,1.99,2.62,2.86c1.74,0.87,7.29,4.27,7.29,4.27
	s-1.03,1.21,0.09,3.14c1.12,1.93,1.17,1.93,1.17,1.93l1.64-1.33l3.99,1.39l0.5,6.26c0,0-1.24,1.4-0.74,4.63
	c0.5,1.61,1.37,2.55,2.87,2.83c1.49,0.28,0.5,3.13,1.12,3.63c0,0-3.99,1.59-5.23,2.29c-1.24,0.7-2.74,2.54-3.73,2.93
	c-1,0.39,0.37,1.74,0,2.81c-0.38,1.06-3.74,2.43-3.74,2.43l-1.24,1.32l-0.93,1.29l-0.81,0.88l-2.18,0.24c0,0-2.55,1.22-3.67,1.78
	c-1.12,0.56-2.43,2.84-2.43,2.84h-2.12l-0.99-2.55l-3.42-0.51c0,0-5.35-1.19-6.47-0.19c-1.12,1-8.78,10.05-8.78,10.05l-10.64,13.06
	l-28.45-28.18L423.35,360.45z"/>
<path class="st0" d="M251.33,136.79l1.7,10.55c-0.17,3.19-1.17,5.07,1.43,7.54c2.25,2.14,1.37,6.26,1.81,9.16
	c0.04,0.29,1.54,0.81,0.96,1.39c-1.11,1.11-0.59,1.43,0.08,2.44c0.86,1.29,0.11,2.12-0.42,3.32l-0.08,1.86l0,0
	c-2.46,1.06-1.85,2.09-1.85,4.29c0,2.56-0.77,3.41-2.7,4.95c-1.6,1.27-2.54,1.27-4.55,1.58l0,0c-0.89-0.89-0.85-2.89-1.35-4.02
	c-0.65-1.49-1.37-2.86-1.85-4.37c-0.29-0.9-0.5-2.42-1.23-3.05c-1.15-0.99-2.64-1.82-3.13-3.4c-0.57-1.85-0.93-3.67-1.81-5.45
	c-0.67-1.34-1.91,0.28-2.2-1.82c-0.68-1.07-1.01-2.57-2.31-2.78c-1.5-0.25-3.35,0.01-4.63-1c-0.74-0.59-1.66-5.69-1.31-6.61
	c0.76-2.01-1.13-1.56-0.69-3.83c0.06-0.32,0.61-1.96,0.35-2.13c-0.84-0.52-2.61-0.23-3.66-0.54c-1.34-0.4-4.11-1.15-5.4-0.81
	c-2.79-0.93-3.15,2.06-4.2,1.94c-1.74-0.21-3.52,0.1-5.17-0.54c-1.44-0.56-1.77-1.63-3.47-0.66c-1.33,0.76-2.82,3.25-3.74,1.55
	c-0.69-1.27-1.3-3.34-2.31-4.45c-1.04-1.13-1.97-0.1-2.74-0.73c-0.77-0.63-2.17-2.01-3.16-2.05c-5.05-0.2-0.66-5.18-3.78-6.15
	c-1.27-0.39-4.5,0.57-5.67,1.24l-5.76-0.06l0,0c0.09-0.7,0.24-1.5,0.59-2.46c0.39-1.05,2.23-2.79,1.77-3.71
	c-0.39-0.79,1.71-2.25,2.35-3.29c1.68-1.22-1.01-2.26,0-3.79c1.9-2.85,4.44,1.27,4.86,0.39c0.49-1.04,1.7-0.44,1.7-0.77
	c0-2.05,2.46-0.96,3.51-2.01c0.41-0.41,0.68-1.34,0.77-1.93c0.18-1.19-0.49-1.21-1.35-1.93c-2.18-1.83-2.61-4.33-4.24-6.42
	c-0.64-0.82-0.52-3.22-0.73-4.29c-0.24-1.2,3.2-2.55,3.78-3.13c0.77-0.78-0.37-4.34-0.66-5.33c-0.59-1.62-0.86-5-2.16-6.03
	c-0.49-0.39,0.11-2.31-0.58-3.48c-0.5-0.86,0.58-4.81,1.43-6.5l0,0l12.22,2.48l23.45,0.5l0.12,7.11c-2.05,0.65-4.88,1.16-4.74,4.1
	c0.04,0.93,0.95,1.85,1.66,2.32c0.91,0.61,0.88,1.3,1.08,2.28c0.14,0.69,1,0.84,1.58,1.28c0.57,0.42,3.49,7.96,4.67,4.68
	c0.57-1.58,0.75-3.54,2.16-4.6c1.58-1.2,2.21,1.12,2.62,2.05l0,0c-1.08,1.04-1.29,3.24-1.04,4.68c0.27,1.57-0.02,1.64,1.23,2.44
	c1.46,0.93,4.81,4.1,3.97,6.15c-0.83,2.03-4.28,5.87-4.28,7.81c0,1.53,2.25,1.4,3.36,1.66c2.73,0.64-0.58,1.08-0.58,2.9
	c0.03,1.15,0.04,1.95,0.85,2.82c0.39,0.42,0.77,0.92,0.89,1.47c0.19,0.87-0.07,1.8,0.66,2.47c0.61,0.56,1.5-0.29,2.2,0.58
	c0.38,1.03,1.08,2.51,1.78,3.33c1.48,1.73,2.75-1.3,3.86-1.86c0.59-0.29,1.26-0.22,1.81,0.08
	C249.68,136.54,250.59,136.59,251.33,136.79L251.33,136.79z"/>
<path class="st0" d="M178.45,134.14l5.76,0.06c1.17-0.67,4.4-1.63,5.67-1.24c3.12,0.96-1.27,5.95,3.78,6.15
	c0.99,0.04,2.39,1.41,3.16,2.05c0.77,0.64,1.7-0.4,2.74,0.73c1.02,1.1,1.62,3.17,2.31,4.45c0.93,1.7,2.41-0.79,3.74-1.55
	c1.71-0.97,2.04,0.1,3.47,0.66c1.65,0.64,3.43,0.33,5.17,0.54c1.05,0.13,1.42-2.87,4.2-1.94c1.29-0.33,4.06,0.42,5.4,0.81
	c1.05,0.31,2.82,0.02,3.66,0.54c0.26,0.16-0.29,1.81-0.35,2.13c-0.43,2.27,1.46,1.82,0.69,3.83c-0.35,0.92,0.57,6.02,1.31,6.61
	c1.28,1.01,3.13,0.76,4.63,1c1.3,0.22,1.64,1.72,2.31,2.78c0.29,2.09,1.53,0.48,2.2,1.82c0.89,1.78,1.25,3.6,1.81,5.45
	c0.48,1.58,1.97,2.41,3.13,3.4c0.73,0.63,0.95,2.16,1.23,3.05c0.49,1.51,1.2,2.88,1.85,4.37c0.5,1.13,0.46,3.13,1.35,4.02l0,0
	l-7.75,19.56l-0.19,20.14l0,0c-0.74,0-1.38,0.43-2.12,0.43c-0.62,0-0.88-0.22-1.43-0.39c-1.14-0.36-1.86,0.65-2.85,0.93
	c-0.84,0.23-1.55-0.08-2.39-0.12c-1.01-0.05-1.92,0.79-2.89,0.27c-1.7-0.91-2.67-1.08-4.67-1.08l0,0c-0.35-1.06-0.73-1.97-1.78-2.59
	c-1.34-0.79-1.41-1.35-1.97-2.67c-0.35-0.83-0.47-0.81-1.16-1.31c-0.57-0.42-0.79-0.4-1.23-1.04c-1.63-2.65-2.1-4.03-0.89-6.88
	c0.78-1.84-0.91-3.66-0.39-5.76c0.32-1.3,0.54-1.58,0.04-2.86c-0.57-1.46-1.54-2.92-2.89-3.71c-2.41-1.41-2-3.79-3.55-5.22
	c-0.93-0.86-2.02-1.07-2.74-2.39c-0.94-1.05-1.81-2.62-3.01-3.4c-1.56-1.02-0.9-1.76-1.74-2.67c-1.63-1.77-5.05-3.14-6.4-5.29
	c-1.27-2.03-3.38-2.38-5.17-3.79c-2.81-2.22-5.53-1.83-8.72-1.16c-2.95,0.62-0.37-5.98,0.15-7.03c-0.09-0.68-1.09-1.27-0.46-2.13
	c0.44-0.59,1.16-0.54,1.51-1.27c0.59-1.26-0.44-2.82-0.96-3.94c-0.53-1.13,0.48-0.82-0.62-2.05c-0.66-0.74-2.2-1.62-3.01-2.2
	c-1.59-1.15-2.86-2.14-3.2-4.13c-0.26-1.55-0.88-1.65-2.39-2.09l-2.21-2l0,0c0.35-0.24,0.62-0.58,0.71-1.09
	c0.04-0.22,0.31-1.71,0.5-1.74c0.81-0.14,1.25,0.61,2-0.39c0.66-0.86,1.25-3.76,2.04-4.25
	C178.28,137.04,178.21,135.93,178.45,134.14L178.45,134.14z"/>
<path class="st0" d="M234.32,101.65c-1.08,1.04-1.29,3.24-1.04,4.68c0.27,1.57-0.02,1.64,1.23,2.44c1.46,0.93,4.81,4.1,3.97,6.15
	c-0.83,2.03-4.28,5.87-4.28,7.81c0,1.53,2.25,1.4,3.36,1.66c2.73,0.64-0.58,1.08-0.58,2.9c0.03,1.15,0.04,1.95,0.85,2.82
	c0.39,0.42,0.77,0.92,0.89,1.47c0.19,0.87-0.07,1.8,0.66,2.47c0.61,0.56,1.5-0.29,2.2,0.58c0.38,1.03,1.08,2.51,1.78,3.33
	c1.48,1.73,2.75-1.3,3.86-1.86c0.59-0.29,1.26-0.22,1.81,0.08c0.67,0.37,1.58,0.42,2.31,0.62l0,0c1.93-0.47,4-2.28,3.08-4.37
	c-0.77-1.75-0.3-2.88,0.54-4.48c1.11-2.11,4.16-3.88,4.24-6.26c0.1-2.76,1.41-6.62,2.47-9.16c1.35-0.53,2.06-1.2,2.31-2.63
	c0.13-0.73,0.25-1.31,0.12-2.05c-0.16-0.88-0.54-1.81-0.38-2.71l0.27-3.36l0,0c-1.52,0-2.73,0.18-4.24-0.08
	c-1.47-0.25-2,1.21-3.51,1.08c-0.95-0.08-1.83-0.58-2.86-0.62c-1.78-0.07-2.42-0.03-3.39-1.55c-0.71-1.11-0.75-4.02-2.24-1.82
	c-0.7,1.03-4.2-0.33-5.13-0.39c-1.14-0.07-1.42,1.88-1.58,2.71C239.86,107.24,237.31,100.47,234.32,101.65L234.32,101.65z"/>
<path class="st0" d="M251.33,136.79l1.7,10.55c-0.17,3.19-1.17,5.07,1.43,7.54c2.25,2.14,1.37,6.26,1.81,9.16
	c0.04,0.29,1.54,0.81,0.96,1.39c-1.11,1.11-0.59,1.43,0.08,2.44c0.86,1.29,0.11,2.12-0.42,3.32l-0.08,1.86l0,0
	c3.43-0.73,11.11-3.68,14.2-0.77c2.27,2.14,5.13,2.15,8.06,2.55c1.31,0.18,2.5,0.25,3.7,0.89c1.07,0.57,1.35,1.25,2.58,1.66
	l10.57,0.16l-0.15,3.79c0.63,0.91,1.37,1.48,2.51,1.24c2.2-0.47,1.73,0.64,1.73,2.28s0.16,4.29,2.39,4.29
	c0.91,0,2.15-0.09,2.93,0.39c0.9,0.56,1.89,2,2.7,2.67l0,0l8.41-52.95l0,0l-0.66-48.89l-31.01-0.31l0,0L284,90.68h-1.7l-0.93-0.43
	l-6.4,0.08c-0.36,0.13-0.56,0.27-0.77,0.62c-0.14,0.24-0.33,0.6-0.66,0.58c-0.72-0.05-0.92-0.23-1.39-0.7
	c-0.35-0.35-0.75-0.37-1.2-0.58c-0.79-0.38-1.41-0.35-2.28-0.35l-4.71,11.87l0,0l-0.27,3.36c-0.16,0.9,0.23,1.82,0.38,2.71
	c0.13,0.74,0.02,1.32-0.12,2.05c-0.26,1.43-0.97,2.1-2.31,2.63c-1.06,2.54-2.37,6.4-2.47,9.16c-0.08,2.39-3.13,4.16-4.24,6.26
	c-0.84,1.6-1.31,2.74-0.54,4.48C255.33,134.51,253.25,136.32,251.33,136.79L251.33,136.79z"/>
<path class="st0" d="M256.8,173.05c3.43-0.73,11.11-3.68,14.2-0.77c2.27,2.14,5.13,2.15,8.06,2.55c1.31,0.18,2.5,0.25,3.7,0.89
	c1.07,0.57,1.35,1.25,2.58,1.66l10.57,0.16l-0.15,3.79c0.63,0.91,1.37,1.48,2.51,1.24c2.2-0.47,1.73,0.64,1.73,2.28
	s0.16,4.29,2.39,4.29c0.91,0,2.15-0.09,2.93,0.39c0.9,0.56,1.89,2,2.7,2.67l0,0l4.22,4.68l-2.18,14.61
	c-0.48,2.2,0.08,4.08-1.78,5.72c-1.66,1.47-1.46,0.53-1.12,2.9c0.32,2.19,0.68,4.5,0.35,6.69c-0.17,1.09,0.26,2.46,1.24,3.02
	c1.41,0.8,1.79,2.19,2.7,3.44c0.15,1.58,1.93,2.98,1.93,4.64c0,2.63,1.63,4.16,1.27,6.8c-0.11,0.82,0.13,2.66-0.23,3.32
	c-0.65,1.2-1.43,2.51-2.01,3.79l-18.05,26.71l0,0l-9.6-0.01v13.82l0,0h-32.32l0,0l-0.66-43.23c0.5-0.8,1.58-0.84,2.08-1.66
	c0.54-0.88,1.2-1.92,1.31-2.98c0.11-0.99,0.12-2.05,0.12-3.05c0.11-1.42,1.2-2.68,1.12-4.1c-0.06-1.03-1-1.53-1-2.82
	c0-3.21-3.64-0.86-4.51-3.09c-0.46-1.17-0.19-3.68-1.27-4.48c-1.08-0.8-4.66-3.05-5.94-3.05c-0.94,0-3.29-0.55-3.93-0.27l0,0
	l0.19-20.14l7.75-19.56l0,0c2.01-0.31,2.95-0.31,4.55-1.58c1.93-1.54,2.7-2.39,2.7-4.95C254.95,175.14,254.34,174.11,256.8,173.05
	L256.8,173.05z"/>
<path class="st0" d="M355.97,190.94l0.23,2.63c0,1.91-0.48,2.3-1.46,3.87l-3.86,6.11c-0.7,1.11-1.08,2.4-1.81,3.44
	c-0.8,1.13-2.02,2.71-2.43,4.02c-1.64,2.17-4.23,5.16-6.56,6.49c-1.86,1.07-3.43,1.4-4.2,3.56c-0.47,1.3-1.57,3.01-0.81,4.33
	c0.44,0.76,1.02,2.09,0.42,2.94c-1,1.42-0.55,3.31-1.04,4.99c-0.65,2.24-1.42,3.49-0.23,5.88c0.95,0.83,0.86,2.03,0.81,3.21
	c-0.15,3.52,3.88,6.9,6.13,9.16l2.08,2.36l0,0c1.46,0.42,1.88,1.45,2.7,2.47c0.67,0.83,1.87,0.9,2.78,1.24
	c1.62,0.6,2.49,2.67,4.17,2.94c1.55,0.25,1.47,1.72,2.31,1.86c0.68,0.11,1.71-0.92,2.31-0.42c1.58,1.28,0.93,1.53,3.24,1.24
	c2.61-0.34,0.65,1.64,2.31,2.24c1.57,0.37,2.84-0.29,3.97,1.04c1.07,1.25,3.7,0.23,4.44,2.36c0.88,2.53,4.48,1.12,6.22,1.12l0,0
	c0.16-0.38,0.42-0.51,0.73-0.47l0,0c-0.89-1.63-0.8-5.02-1.01-6.91c-0.38-3.44,0.81-5.89,0.81-9.2c0-5.28,7.36-2.43,5.32-8.85
	c-0.92-2.91-1.2-5.92-1.2-8.96c0-1.47,1.08-2.81,1.08-4.56c0-1.4-0.66-1.38-0.12-3.13c0.61-1.94-1.56-3.88-0.31-5.76
	c0.43-0.64,1.25-0.95,1.74-1.74c0.57-0.93,0.79-2.36,0.93-3.44c0.2-1.64-1.58-2.46-1.39-3.71c0.17-1.09,2.22-1.88,2.51-3.6
	c0.36-2.18,0.93-3.82,0.93-6.14c0-1.8,1.2-1.62,1.58-2.86c0.29-0.94,0.31-2.04,0.16-3.13l0,0c-1.48-0.91-4.1-2.02-4.64-3.78
	c-0.48-1.56,0.52-2.6-1.12-3.67c-1.05-0.69-1.39-0.7-1.89-2.01c-0.65-1.69-1.09-1.69-2.66-0.93c-0.45,0.22-1.78-0.48-2.27-0.58
	c-1-0.58-2.27-1.65-3.47-1.01c-1.25,0.66-2.5,0.87-3.78,1.59c-0.81,0.45-1.12-0.41-1.74-0.66c-1.55-0.63-2.11,0.58-3.28,1.31
	c-1.72,1.08-1.63,2.61-3.74,1.28C358.11,187.31,357.37,188.83,355.97,190.94L355.97,190.94z"/>
<path class="st0" d="M355.97,190.94l0.23,2.63c0,1.91-0.48,2.3-1.46,3.87l-3.86,6.11c-0.7,1.11-1.08,2.4-1.81,3.44
	c-0.8,1.13-2.02,2.71-2.43,4.02c-1.64,2.17-4.23,5.16-6.56,6.49c-1.86,1.07-3.43,1.4-4.2,3.56c-0.47,1.3-1.57,3.01-0.81,4.33
	c0.44,0.76,1.02,2.09,0.42,2.94c-1,1.42-0.55,3.31-1.04,4.99c-0.65,2.24-1.42,3.49-0.23,5.88c0.95,0.83,0.86,2.03,0.81,3.21
	c-0.15,3.52,3.88,6.9,6.13,9.16l2.08,2.36l0,0c-0.96,1.1-0.76,2.93-2.24,3.79c-1.4,0.81-0.29,1.94-1.04,3.21
	c-0.48,0.81-1.3,1.08-2.12,1.24c-1.29,0.25-1.8-0.68-2.63-1.35c-0.36-0.3-2.74-1.08-3.04-0.89c-0.67,0.41-1.14,1.48-1.2,2.24
	c-0.05,0.79-1.62,0.92-2.28,1.35l-12.96,15.19l-21.37-0.19l0,0l18.05-26.71c0.58-1.28,1.35-2.59,2.01-3.79
	c0.37-0.67,0.12-2.5,0.23-3.32c0.35-2.64-1.27-4.17-1.27-6.8c0-1.66-1.77-3.05-1.93-4.64c-0.91-1.25-1.29-2.64-2.7-3.44
	c-0.98-0.55-1.4-1.92-1.24-3.02c0.33-2.19-0.03-4.5-0.35-6.69c-0.35-2.37-0.54-1.43,1.12-2.9c1.85-1.64,1.29-3.53,1.78-5.72
	l2.18-14.61l-4.22-4.68l0,0l8.41-52.95l0,0l53.19-0.15l0,0c-0.82,2.27-2.25,1.6-3.43,3.1c-0.93,1.19-0.33,5.03-0.69,6.72
	l-2.39,11.09c-0.85,3.94-5.45,4.45-6.75,8.04c-0.05,1.77,0.16,4.99-0.54,6.57c-0.68,1.53-1.49,2.27-0.92,4.1
	c0.33,1.08,1.19,1.57,1.19,2.9c0,1.62-1.32,3.16-1.39,4.87C354.62,188.32,355.25,189.32,355.97,190.94L355.97,190.94z"/>
<path class="st0" d="M194.59,352.58l-0.5-32.38l-0.69-4.84l31.43,0.27l0,0l-0.12-1.01c0-1.35,0.39-2.58,0.66-3.9
	c0.25-1.27-0.14-2.64,0.19-3.9c0.23-0.87,0.69-1.5,0.92-2.28c0.48-1.56-0.23-3.15,0.16-4.72c0-1.92-0.39-3.89-0.46-5.84
	c-0.05-1.39,0.21-2.9,0-4.25c-0.38-2.46-2.74-4.58-3.59-7.15c-0.53-1.6-0.23-3.51-1.16-4.91c-0.48-0.72,0.32-1.48,0.19-1.97
	c-0.4-1.58,0.75-0.62,1.16-1.47c0.47-0.99-0.37-3.08-0.77-4.02l-1.27-2.67c-0.37-0.78-1.66-0.86-1.81-1.7
	c-1.79-0.9-0.7-3.87-1.89-5.06c-1.56-1.56-2.49-3.33-2.58-5.61c-0.08-2.16-2.24-11.25-0.31-12.64c0.11-0.9,0.16-0.85-0.23-1.86
	c-0.38-0.47-0.94-1.19-1.16-1.74c-0.29-0.72-0.81-1.67-0.96-2.4c-0.38-1.8-1.49-3.24-1.66-5.14l0,0c-0.53-0.2-1.64-0.55-1.74-1.24
	c-1.65-1.18-2.99-0.63-4.98-0.93c-1.7-0.25-3.55-0.04-3.55-2.36c-0.32-0.19-2.68,0.47-3.12,0.62c-0.96,0.33-2.19-0.02-3.24,0.12
	c-0.92,0.12-1.82,0.75-2.78,1.04c-1.06,1.06-2.65,3.25-4.05,3.79c-1.36,0.52-3.94,0.23-5.44,0.23c0-1.19-0.36-2.37-0.42-3.55
	c-0.11-1.94-0.19-1.46-1.93-2.24c-0.94-0.42-1.5-1.2-2.28-1.7c-0.64-0.41-1.7,2.02-2.47,2.4c-1.52,0.75-3.52,0.2-5.01,1.08
	c-2.3,1.36-2.68,3.62-2.58,5.91c0.16,3.72-3.2,2.62-5.75,4.02l-2.24,0.85l0,0c0,3.2,5.63,4.82,2.39,8.08
	c-0.05,1.16-0.18,3.28,0,4.56c0.84,0.11,0.8,0.63,1.93,0.46c3-0.45,4.32,3.9,2.43,5.68c-1.83,1.73-1.54,2.46-1.23,4.79
	c0.17,1.32-1.04,2.6-0.31,3.83c1.22,2.05-0.42,4.3,0.46,5.8c1.76,2.99-0.63,2.81-1.58,5.45c-0.71,1.47-1.62,0.17-2.55,2.4
	c-0.58,1.38-3.53,5.78-2.74,6.57c0.84,0.84-0.34,2.26-0.77,3.01c-0.33,0.58-0.44,2.06-1.2,2.09c-0.98,0.04-0.31,3.45-1.54,4.33
	c-0.77,0.55-2.23,0.61-2.39,1.7c-0.22,1.44,2.63,0.52,2.35,2.82c-0.11,0.92-0.64,1.77,0.15,2.36c0.93,0.7-0.54,2.97-0.77,3.79
	c0.37,0.99,1.54,2.43,1.54,3.4c0,1.8-1.56,1.55-0.66,3.79c0.51,1.26-0.19,2.81-0.35,4.06l0,0l0.89,1.74c0,0.49,0.06,2.53,0.42,2.82
	c0.61,0.48,1.5-0.23,2.16-0.23v0.12l0.23,1.93c0.21,1.78,0.91,2.73,2.04,4.06c0.76,0.89,1.38,1.87,2.28,2.59
	c1.52,1.21,0.53,3.19,2.97,3.44c1.84,0.19,1.06,2.87,1.39,4.17c1.01,3.83,3.38,3.38,6.67,3.02c1.48-0.16,4.72,1.7,6.44,2.05
	c0,2.35,0.97,2.19,2.59,2.86c0.53,0.23,0.88,0.81,1.5,0.85c0.72,0.04,1.92-1.13,2.35,0.19c0.9,2.76,1.98,0.38,3.93,1.58
	c0.55,0.34,0.48,1.04,0.89,1.55c0.27,0.34,2.38,0.66,2.85,0.73L194.59,352.58L194.59,352.58z"/>
<path class="st0" d="M210.13,231.41l0.81-8.47l12.46,0.66l0,0c-0.35-1.06-0.73-1.97-1.78-2.59c-1.34-0.79-1.41-1.35-1.97-2.67
	c-0.35-0.83-0.47-0.81-1.16-1.31c-0.57-0.42-0.79-0.4-1.23-1.04c-1.63-2.65-2.1-4.03-0.89-6.88c0.78-1.84-0.91-3.66-0.39-5.76
	c0.32-1.3,0.54-1.58,0.04-2.86c-0.57-1.46-1.54-2.92-2.89-3.71c-2.41-1.41-2-3.79-3.55-5.22c-0.93-0.86-2.02-1.07-2.74-2.39
	c-0.94-1.05-1.81-2.62-3.01-3.4c-1.56-1.02-0.9-1.76-1.74-2.67c-1.63-1.77-5.05-3.14-6.4-5.29c-1.27-2.03-3.38-2.38-5.17-3.79
	c-2.81-2.22-5.53-1.83-8.72-1.16c-2.95,0.62-0.37-5.98,0.15-7.03c-0.09-0.68-1.09-1.27-0.46-2.13c0.44-0.59,1.16-0.54,1.51-1.27
	c0.59-1.26-0.44-2.82-0.96-3.94c-0.53-1.13,0.48-0.82-0.62-2.05c-0.66-0.74-2.2-1.62-3.01-2.2c-1.59-1.15-2.86-2.14-3.2-4.13
	c-0.26-1.55-0.88-1.65-2.39-2.09l-2.21-2l0,0c-0.59,0.4-1.42,0.52-2.11,0.69c-1.12,0.28,0.44,3.39,0.04,4.37
	c-0.51,1.25-1.93,1.02-1.93,3.13c1.33,0,0.94,2.5,0.39,3.13c-0.33,1.21-0.47,4.9-1.12,5.61c-0.5,0.54-0.99,0.27-1.58,0.46
	c-0.36,0.12-1.81,1.27-1.81,1.74c0,0.79,0.55,1.11-0.23,1.58c-1.1,0.67-0.04,4.58,0.39,5.95c0.42,1.36,1.47,2.85,1.47,4.21
	c0,2.39-1.39,4.34-1.39,6.8c0,1.22,1.87,0.04,2.31,1.04c0.21,0.48-1.06,2.63-1.31,3.05c-0.25,0.79-1.83,3.47-3.08,2.28
	c-0.28-0.26-0.23-0.9-0.62-1.01c-0.78-0.21,0.07,1.74-0.73,2.55c-1.79,1.8-1.19,4.79-2.51,6.34c-1.83,2.14-0.07,3.88-0.27,5.99
	c-0.04,0.39-1.17,0.72-1.58,1.32c-0.26,0.38-0.05,1.01-0.23,1.43c-0.56,1.27-1.49-2.38-2.2-0.54c-0.86,2.23-0.5,2.89-0.5,5.18
	c0,0.49-0.64,1.4-0.77,2.01c-0.29,1.39,0.29,2.13,0.39,3.44l1.93,5.49c0.63,1.81,3.12-0.45,4.32,1.62c0.41,0.71-0.44,2.52-1.12,2.13
	c-2.1-1.24-2.45,0.26-1.08,1.23c0.72,0.51,0.58,1.55,0.58,2.36c0,1.67,0.25,1.38,1,2.75c0.39,0.71-0.12,1.31-0.12,2.05
	c0,0.5,2.09,1.23,2.35,2.48c0.23,1.09-0.93,1.43-0.93,2.59l0,0l2.24-0.85c2.55-1.4,5.91-0.3,5.75-4.02
	c-0.1-2.29,0.29-4.55,2.58-5.91c1.5-0.89,3.49-0.33,5.01-1.08c0.77-0.38,1.83-2.81,2.47-2.4c0.78,0.5,1.34,1.28,2.28,1.7
	c1.74,0.78,1.82,0.3,1.93,2.24c0.07,1.18,0.42,2.37,0.42,3.55c1.5,0,4.08,0.29,5.44-0.23c1.4-0.54,2.99-2.72,4.05-3.79
	c0.95-0.3,1.86-0.92,2.78-1.04c1.05-0.14,2.28,0.21,3.24-0.12c0.45-0.15,2.81-0.81,3.12-0.62c0,2.32,1.84,2.11,3.55,2.36
	c1.99,0.29,3.33-0.25,4.98,0.93C208.5,230.86,209.6,231.21,210.13,231.41L210.13,231.41z"/>
<path class="st0" d="M210.13,231.41l0.81-8.47l12.46,0.66l0,0c1.99,0,2.96,0.17,4.67,1.08c0.98,0.52,1.88-0.32,2.89-0.27
	c0.84,0.04,1.55,0.35,2.39,0.12c1-0.28,1.71-1.28,2.85-0.93c0.54,0.17,0.81,0.39,1.43,0.39c0.74,0,1.38-0.43,2.12-0.43l0,0
	c0.65-0.28,3,0.27,3.93,0.27c1.28,0,4.86,2.25,5.94,3.05c1.08,0.8,0.82,3.31,1.27,4.48c0.87,2.23,4.51-0.12,4.51,3.09
	c0,1.29,0.95,1.79,1,2.82c0.07,1.42-1.01,2.68-1.12,4.1c0,1-0.01,2.07-0.12,3.05c-0.12,1.06-0.77,2.1-1.31,2.98
	c-0.51,0.82-1.58,0.86-2.08,1.66l0.66,43.23l0,0v23.33h-27.62l0,0l-0.12-1.01c0-1.35,0.39-2.58,0.66-3.9
	c0.25-1.27-0.14-2.64,0.19-3.9c0.23-0.87,0.69-1.5,0.92-2.28c0.48-1.56-0.23-3.15,0.16-4.72c0-1.92-0.39-3.89-0.46-5.84
	c-0.05-1.39,0.21-2.9,0-4.25c-0.38-2.46-2.74-4.58-3.59-7.15c-0.53-1.6-0.23-3.51-1.16-4.91c-0.48-0.72,0.32-1.48,0.19-1.97
	c-0.4-1.58,0.75-0.62,1.16-1.47c0.47-0.99-0.37-3.08-0.77-4.02l-1.27-2.67c-0.37-0.78-1.66-0.86-1.81-1.7
	c-1.79-0.9-0.7-3.87-1.89-5.06c-1.56-1.56-2.49-3.33-2.58-5.61c-0.08-2.16-2.24-11.25-0.31-12.64c0.11-0.9,0.16-0.85-0.23-1.86
	c-0.38-0.47-0.94-1.19-1.16-1.74c-0.29-0.72-0.81-1.67-0.96-2.4C211.41,234.75,210.3,233.31,210.13,231.41L210.13,231.41z"/>
<path class="st0" d="M252.45,292.3h32.32l0,0l0.26,101.74l0,0l-2.58-0.71c-0.83-0.52-1.11-1.31-2.16-1.66
	c-0.89-0.29-1.61-0.34-1.97-1.31c-0.62-1.71-0.45-2.01-2.74-2.01c-1.09,0-1.79-1.29-2.39-2.09c-1.25-1.66-2.85-1.56-4.67-2.24
	c-0.88-0.33-1.78-1.21-2.54-1.35c-1.44-0.26-2.73-0.42-4.21-0.46c-1.5-0.38-2.57-0.53-4.09-0.19c-1.65,0.37-1.73-0.69-2.89-0.89
	c-0.91-0.16-4.92,0.4-5.75,0.93c-1.8,1.13-2.72-0.44-4.01-1.08c-1.94-0.97-2.48,1.69-4.51,0.66c-2.38-1.21-4.12-2.08-6.87-1.78
	c-3.32,0.36-5.28,0.54-8.25-1.2c-1.69-0.98-0.08-2.75-1.85-3.71c-1.34-0.63-3.27-2.77-4.63-2.17c-1.44,0.64-2.94-1.46-4.09-2.32
	c-0.15-0.11-0.73-1.78-0.96-2.2c-0.98-1.76-1.51-0.46-3.51-0.46c-1.02,0-1.66-0.01-2.66-0.27c-1.46-0.38-4.24-2.28-4.24-3.94
	c-0.68-0.23-1.69,0.32-2.2-0.43c-0.54-0.79-0.05-2.21,0.54-2.86c1.22-1.34,3.05-1.49,2.16-3.48c-0.36-0.81-1.49-3.1-2.2-3.42
	l-7.17-0.79l0,0l-0.5-32.38l-0.69-4.84l31.43,0.27l0,0h27.62V292.3L252.45,292.3z"/>
<path class="st0" d="M194.59,352.58l7.17,0.79c0.71,0.32,1.84,2.62,2.2,3.42c0.89,1.98-0.94,2.13-2.16,3.48
	c-0.59,0.65-1.08,2.07-0.54,2.86c0.51,0.74,1.52,0.2,2.2,0.43c0,1.67,2.78,3.56,4.24,3.94c1,0.26,1.64,0.27,2.66,0.27
	c2,0,2.53-1.3,3.51,0.46c0.24,0.43,0.81,2.09,0.96,2.2c1.15,0.86,2.65,2.96,4.09,2.32c1.36-0.61,3.29,1.54,4.63,2.17
	c1.77,0.96,0.17,2.72,1.85,3.71c2.98,1.74,4.94,1.56,8.25,1.2c2.75-0.3,4.48,0.57,6.87,1.78c2.03,1.03,2.57-1.62,4.51-0.66
	c1.29,0.65,2.21,2.21,4.01,1.08c0.83-0.52,4.83-1.08,5.75-0.93c1.16,0.2,1.24,1.26,2.89,0.89c1.52-0.34,2.59-0.18,4.09,0.19
	c1.48,0.04,2.76,0.2,4.21,0.46c0.77,0.14,1.67,1.03,2.54,1.35c1.82,0.68,3.42,0.58,4.67,2.24c0.6,0.8,1.3,2.09,2.39,2.09
	c2.29,0,2.12,0.3,2.74,2.01c0.36,0.98,1.08,1.02,1.97,1.31c1.05,0.35,1.33,1.15,2.16,1.66l2.58,0.71l0,0v33.61
	c3.02,0,5.02,0.47,7.3,2.44c1.28,1.1,3.72,4.06,4.1,5.74l0,0c-1.12-0.02-1.18,0.06-2.95,1.37c-2.67,1.98-6.06,1.33-9.26,1.62
	c-1.81,0.35-5.54,0.5-7.17-0.12c-0.77-0.29-4.31-2.57-4.59-3.25c-0.02-0.04-1.52-0.24-2.09-0.66c-2.88-2.17-6.62-3.25-9.91-4.52
	c-3.39-1.31-2.21-3.98-6.33-0.89c-8.72,6.55,4.11,20.33-0.62,28.02c-0.15,0.7-0.23,1.35-0.23,1.96l0,0l-124.43-0.01l0,0
	c-0.14-0.79-0.36-1.56-0.54-2.18c-0.24-0.81,0.18-2.62,0-3.67c-0.21-0.76-0.63-1.54-1-2.2c-1.02-1.8,0.19-2.09-0.04-3.75
	c-0.25-1.84-1.55-5.24-0.5-6.76c0.34-0.49-0.22-2.32,0-3.21c0.16-0.63,0.18-1.39,0.14-2.17l0,0l2.72-0.07
	c1.97,0.15,3.85,0.51,5.67,1.32c2.92,1.29,4.69-0.39,6.75-2.32c1-0.94-0.42-3.53-0.77-4.75c-0.67-2.32,1.33-1.31,2.04-2.66
	c1.47-2.79,3.54-1.31,5.59-2.32c0.83-0.41,1.97-1.97,2.78-1.97c0.92,0,1.02,0.82,2.54,0.7c1.06-0.73,3.93-0.88,3.93-2.32
	c0-0.67,2.37-1.18,2.58-2.36c0.16-0.91-0.21-1.79-0.15-2.71c0.05-0.86,1.59-1.06,2.08-1.7c0.34-0.44-0.75-2.57-0.89-3.21
	c-0.38-1.79,1-1.63,2.16-2.55c1.35-1.07,3.02-2.2,4.63-2.2c2.14,0,3.93-1.26,4.51-3.44c2.05-3.13,8.23-4.45,9.14-7.42
	c0.91-2.98,3.5-2.74,4.63-5.45c0.49-1.19,3.47-3.37,4.74-4.06c1.05-0.57,6.22-0.15,6.83-1.39c1.08-2.23-1.94-4.57-3.51-5.41
	l-0.43-0.5L194.59,352.58L194.59,352.58z"/>
<path class="st0" d="M126.92,435.41l2.72-0.07c1.97,0.15,3.85,0.51,5.67,1.32c2.92,1.29,4.69-0.39,6.75-2.32
	c1-0.94-0.42-3.53-0.77-4.75c-0.67-2.32,1.33-1.31,2.04-2.66c1.47-2.79,3.54-1.31,5.59-2.32c0.83-0.41,1.97-1.97,2.78-1.97
	c0.92,0,1.02,0.82,2.54,0.7c1.06-0.73,3.93-0.88,3.93-2.32c0-0.67,2.37-1.18,2.58-2.36c0.16-0.91-0.21-1.79-0.15-2.71
	c0.05-0.86,1.59-1.06,2.08-1.7c0.34-0.44-0.75-2.57-0.89-3.21c-0.38-1.79,1-1.63,2.16-2.55c1.35-1.07,3.02-2.2,4.63-2.2
	c2.14,0,3.93-1.26,4.51-3.44c2.05-3.13,8.23-4.45,9.14-7.42c0.91-2.98,3.5-2.74,4.63-5.45c0.49-1.19,3.47-3.37,4.74-4.06
	c1.05-0.57,6.22-0.15,6.83-1.39c1.08-2.23-1.94-4.57-3.51-5.41l-0.43-0.5l0.08-26.01l0,0l-1.23-0.7c-0.47-0.07-2.58-0.39-2.85-0.73
	c-0.41-0.51-0.34-1.21-0.89-1.55c-1.95-1.21-3.04,1.17-3.93-1.58c-0.43-1.32-1.63-0.15-2.35-0.19c-0.62-0.04-0.97-0.63-1.5-0.85
	c-1.61-0.67-2.59-0.51-2.59-2.86c-1.72-0.35-4.96-2.21-6.44-2.05c-3.29,0.36-5.66,0.81-6.67-3.02c-0.32-1.31,0.45-3.98-1.39-4.17
	c-2.45-0.25-1.45-2.22-2.97-3.44c-0.9-0.72-1.52-1.71-2.28-2.59c-1.13-1.32-1.83-2.28-2.04-4.06l-0.23-1.93v-0.12
	c-0.66,0-1.55,0.71-2.16,0.23c-0.37-0.29-0.42-2.33-0.42-2.82l-0.89-1.74l0,0c-0.35,2.71-2.07-0.02-3.01,0.19
	c-0.08,0.02-0.39,1.11-0.5,1.28c-0.75,1.12-0.93,0.33-1.27,1.93c-0.49,2.27,0.5,4.48-2.93,2.71c-0.93-0.48-0.54,0.49-0.54,1.12
	c0,0.54-0.45,1.19-1,1.31c-1.64,0.36-2.7,0.73-2.28,2.51c0.14,0.6,1.09,1.38,0.35,1.93c-0.96,0.71-2.2-1.2-2.2,1.32
	c0,0.92-0.28,2.44,0,3.28c0.04,0.26,0.72,1.73,0.27,1.86c-2.11,0.59,0.86,3.44-0.31,5.64c-0.69,1.3-2.25,2.58-0.89,4.02
	c1.59,1.69,1.18,4.4,0.42,6.38c-1.09,2.87,0.91,6.24,2.01,8.78c1.44,2.88,0.7,6.38,1.62,9.47c0.37,1.26,0.53,1.73,1.46,2.51
	c1.04,0.87,1.34,2.04,0,2.82c-0.86,0.5,0.13,1.78-0.35,2.28c-0.97,1.01-2.46,0.27-3.63,0.85c-1.87,0.93-7.82,3.09-5.59,5.8
	c0.94,1.14,1.3,7.67-0.66,8.23c-1.01,1.8,0.21,2.05-1.43,2.82c-1.17,0.54,1.88,3.04-0.42,3.67c-1,0.28-1.17-2.97-2.85-1
	c-0.31,0.37,0.25,2.81-0.04,3.75c-0.85,2.76,2.4,2.43,1.47,4.68c-0.42,1.02-1.01,1.27-0.81,2.63c0.46,3.11-3.77-1.04-3.05,3.36
	c0.17,1.05-0.75,1.37,0.43,2.24c1.51,1.13,3.56,0.2,2.28,3.13c-0.36,0.81-1.66-0.03-2.31,0.23c-0.9,0.36-0.84,1.4-1.2,2.13
	c-0.3,0.69-0.68,1.01-0.08,1.43c0.72,0.5-0.07,2.25-0.54,2.78c-1.3,1.48,0.54,3.56,0.54,5.61
	C126.7,433.07,126.87,434.27,126.92,435.41L126.92,435.41z"/>
<path class="st0" d="M187.59,823.59c0.77,0.07,1.89,0.59,2.64,0.59c2.45,0.55,4.71-0.28,7.33-0.19c1.71,0.05,3.76,1.41,5.52,1.85
	c5.62,1.41,15-1.96,19.83,2.44l2.2,2.28l1.35,0.16c1.1,0.22,3.43-0.43,3.43-1.7c0-1.09,2.53-0.13,3.51-0.58
	c0.91-0.42,1.2-0.45,2.2-0.5c1.26-0.06,1.39-0.59,1.12-1.66c-0.19-0.75,3.04-0.28,3.86-0.08c1.08,0.26,1.67,1.54,2.31,1.74
	c0.51,0.16,1.8-0.57,2.35-0.7c1.58-0.36,1.54-0.45,1.54-1.78c0.69,0,0.88,2.52,1.85,1.47c0.66-0.72,0.88-1.99,1.39-2.9
	c0.68-1.2,1.54-4.42,1.54-5.8c-1.15-0.38-2.58-0.24-3.89-0.04c-3.3,0.52-5.27,0.44-8.49-0.27c-5.22-1.64-11.94-6.17-15.39-10.32
	c-3.32-4-7.84-5.65-12.11-8.08c-0.11-0.38-0.77-1.16-1-1.55c-0.86-0.86-3.55-3.56-3.55-4.75c0-1.8-2.19-2.24-3.32-3.48
	c-2.27-2.5-5.79-7.2-6.36-10.51c-0.66-3.77-1.39-3.28-4.67-3.56c-3.21,0-5.48-3.7-3.32-6.3c1.17-1.4,4.57-3.79,3.43-5.02
	c-1.43-1.55-3.24-6.41-5.35-9.16l0,0L187.59,823.59L187.59,823.59L187.59,823.59z M268.03,820.81c-0.95,0.04-0.95,1.12-0.08,1.12
	c0.49,0,1.04-0.03,1.35,0.39c0.28,0.38,0.36,0.74,0.93,0.77c0.83,0.05,1.1-0.95,1.89-0.96l2.43-0.04c0.49-0.01,1.12-0.01,1.31-0.58
	c0.21-0.61-0.97-0.74-1.31-0.7c-0.65,0.09-1.06,0.5-1.66,0.66c-0.5,0.13-0.9,0.1-1.43-0.08c-0.61-0.21-1.28-0.1-1.85-0.35
	L268.03,820.81L268.03,820.81z M260.39,823.37c0.69-0.48,1.47-0.74,2.31-0.74c0.49,0,0.73,0.22,1.27,0.12
	c0.75-0.14,1.73-0.95,2.39-0.23c0.09,0.1,0.46,0.39,0.15,0.42c-0.27,0.03-0.53,0.33-0.81,0.35c-0.41,0.03-1.01-0.26-1.31,0.08
	c-0.48,0.53-0.78,1.34-1.28,1.78c-0.47,0.42-0.59,0.42-1.23,0.42c-0.32,0-0.39-0.2-0.5-0.46c-0.13-0.32-0.29-0.38-0.46-0.62
	L260.39,823.37z"/>
<path class="st2" d="M422.81,124.71l-0.73,1.66c0.66,1.29,0.73,2.56,1.81,3.71c1.37,1.46,2.29,4.37,2.44,6.35
	c0.06,0.73,0.04,1.22,0.37,1.89c0.14,0.27,0.16,0.56,0.36,0.83c0.3,0.41,0.77,0.78,1.18,1.08c0.18,0.13,1.74,1.61,1.86,1.65l0,0
	c0.89-0.73,2.5-0.1,3.28-0.77c1.5-1.29,2.15-3.63,4.13-4.14c2.66-0.68,2.78-1.42,4.9-2.82c1.96-1.29,1.68-3.82,4.51-4.1
	c1.53-0.15,1.96-1.38,3.32-1.85c0.71-0.25,1.29,0.1,1.97-0.08c1-0.27,1.77-1.37,2.66-1.58c1.68-0.42,1.74-0.37,3.05-1.78
	c0.88-0.95,1.83-1.45,2.93-2.05c0.51-0.27,0.97-0.62,1.46-0.93c1.81-0.39,3.33-2.57,4.17-4.06c0.43-0.76,0.67-1.59,0.89-2.4
	c0.19-0.71-0.77-2.52-0.77-3.17c-1.19-1.78-1.58-4.15-0.42-6.03c1.46-2.38,1.61-3.54,1.2-6.34c-0.57-3.88-1.81-8.21-5.06-10.48
	l-1.53-0.21c-1.29-0.07-1.54-1.08-2.45-1.6c-1.02-0.58-1.9,0.53-2.53,1.1c-0.84,0.76-0.97,0.38-1.87,0.31
	c-0.5-0.04-1.34,0.66-1.45,1.12c-0.13,0.6-0.1,0.7-0.7,0.21l-1-1.2l0,0c-1.58,0.71-1.65,2.61-1.93,3.52
	c-0.37,1.2,0.31,2.37,0.31,3.56c0,0.77-0.61,0.86-0.81,1.51c-0.31,0.96,0.51,1.87,0.12,2.71c-0.17,0.37-1.55,5.33-1.35,5.68
	c1.13,1.96-2.39,1.74-2.39,3.01c0,0.51,1.63,2.77-0.54,2.36c-2.08-0.4-1.02,1.48-1.93,2.47c-0.79,0.86-1.65-0.06-2.43,0.35
	c-0.67,0.36-0.44,2.05-1.16,2.78c-0.95,0.96-2.51-0.06-3.59,0.54c-1.24,0.69-1.76,2.94-2.62,2.94c-1.21,0-0.33,0.64-0.89,1.08
	c-1.43,1.14-2.47,0.16-0.81,2.86c0.82,1.32-3.59,3.13-4.67,2.71C424.51,126.49,424.01,125.25,422.81,124.71L422.81,124.71z"/>
<path class="st2" d="M355.97,190.94c1.4-2.11,2.14-3.63,4.9-1.89c2.11,1.33,2.02-0.2,3.74-1.28c1.17-0.74,1.72-1.94,3.28-1.31
	c0.62,0.25,0.92,1.11,1.74,0.66c1.28-0.71,2.53-0.92,3.78-1.59c1.21-0.64,2.47,0.42,3.47,1.01c0.49,0.1,1.82,0.8,2.27,0.58
	c1.57-0.77,2.02-0.76,2.66,0.93c0.5,1.31,0.84,1.32,1.89,2.01c1.64,1.07,0.64,2.11,1.12,3.67c0.54,1.76,3.16,2.87,4.64,3.78l0,0
	c-0.15-1.16-0.49-2.3-0.86-3.21c-0.82-2.01,1.75-3.57,2.93-4.87c1.08-1.19,0.42-2.84,1.85-3.75l0,0c0.95-0.61,1.82-1.37,2.89-1.82
	c2.4-1,0.98-5.41,4.55-6.57c3.86-1.25,8.59-10.58,10.88-14.07c1.42-2.16,2.31-1.02,3.86-3.17c0.52-0.72,1.52-0.93,1.97-1.78
	c1.27-2.41-1.08-1.63,2.08-2.98c0.74-0.31,2.97-3.06,3.16-3.67c0.41-1.25,0.16-1.96,1.62-2.24c1.21-0.23-0.04-3.37,2.04-2.98
	c0.7,0.13,1.42,1.46,2.24,1.12c1.12-0.47-0.93-3.71,1.43-5.64l0,0c-0.12-0.04-1.68-1.52-1.86-1.65c-0.41-0.31-0.88-0.67-1.18-1.08
	c-0.19-0.27-0.21-0.55-0.36-0.83c-0.34-0.68-0.31-1.16-0.37-1.89c-0.15-1.98-1.07-4.89-2.44-6.35c-1.08-1.15-1.15-2.41-1.81-3.71
	l0.73-1.66l0,0c-0.47-0.21-1.05-0.31-1.85-0.22c-3.1,0.35-2.61,2.05-3.55,4.45c-1.27,3.22-4.48-0.63-5.59-1.12
	c-1.66-0.73-2.96,0.5-4.28-0.23c-2.85-1.58-2.97,0.62-5.74,0.54c-0.96-0.03-7.95-1.03-8.45-1.51c-4.2-4.01-8.18-2.4-13.38-3.02
	c-2.26-0.27-3.99,0.99-5.55,1.37c-0.25,0.06-0.19,0.02-0.16-0.22l0,0l-2.08,0.66c-2.16,1.15-3.09,2.36-2.28,4.79
	c0.65,1.97,0.5,3.59,0.35,5.64l-0.62,3.21l0,0c-0.82,2.27-2.25,1.6-3.43,3.1c-0.93,1.19-0.33,5.03-0.69,6.72l-2.39,11.09
	c-0.85,3.94-5.45,4.45-6.75,8.04c-0.05,1.77,0.16,4.99-0.54,6.57c-0.68,1.53-1.49,2.27-0.92,4.1c0.33,1.08,1.19,1.57,1.19,2.9
	c0,1.62-1.32,3.16-1.39,4.87C354.62,188.32,355.25,189.32,355.97,190.94L355.97,190.94z"/>
<path class="st0" d="M304.9,58.21l1.87,0.96c2.19,0.08,8.39,2,9.62,3.84c0.78,1.18,1.92,0.98,2.58,2.05c1.83,2.97,1.84,2.85,5.4,3.6
	c1.94,0.41,1.64,2.24,2.43,3.63c0.74,1.32,2.27,1.53,3.43,2.4c0.68,0.51,0.81,1.62,1.62,2.05c2.79,1.48,6.18,2.91,8.37,5.1
	c0.55,0.39,3.19,3.71,3.35,4.33c0.75,2.69,0.21,2.04,2.51,3.13c2.36,1.12,4.19,4.92,6.48,5.88c1.21,0.51,1.84,2.77,2.08,4.02
	c0.33,1.72,4.16,0.18,4.47,1.47c0.37,1.47,0.55,2.41,1.78,3.44c1.92,1.62,2.96-1.46,4.63,0.35c0.67,0.73,1.75,0.33,2.47,1
	c0.63,0.59,0.9,1.55,1.73,1.85c1.3,0.56,1.26,0.88,1.89,2.01c0.67,1.21,2.09,1.17,3.16,1.93c1.11,0.79,2.45,3.61,3.85,4.08l0,0
	c0.74-0.79,1.48-1.52,2.06-2.15c0.92-1,0.22-1.97,1-2.71c0.92-0.86,0.22-2.91,0.35-4.14c0.12-1.21,1.56-6.33,2.47-6.61
	c4.99-1.54,2.57-2.55,4.71-6.15c1.31-2.2,4.4-4.07,4.4-6.65c0-0.74-0.44-1.43-0.65-2.09c-0.04-0.13-0.01-0.43,0.07-0.86l-4.7-5.05
	c-2.81-2.99-3.07-0.73-4.94-2.28c-0.64-0.53-0.67-1.52-1.66-1.58c-2.11-0.14-2.2,1.21-3.89-0.7c-2.07-2.31-3.74-0.55-5.02-1.54
	c-1.39-1.09-0.8-0.67-2.54-1.08c-2.48-0.58-2.34-3.74-5.82-3.21c-0.79,0.12-2.79-2.52-4.09-3.01c-4-4.6-13.17-10.37-19.44-10.17
	c-2.44,0.08-3.56-1.49-5.75-1.86c-1.41-0.23-5.81-1.19-6.44-2.63c-2.05-4.69-4-4.92-8.64-7.07c-1.62-2.11-1.28-2.13-3.74-2.63
	c-0.94-0.19-1.87-3.07-2.97-3.79c-1-0.65-1.49-0.48-2-1.66c-0.83-1.89-0.77-2.35-2.39-3.98c-1.02-1.03-2.28-3.17-2.62-4.56
	c-0.39-1.59-0.79-2.06-1.35-2.37l0,0L304.9,58.21L304.9,58.21z"/>
<path class="st0" d="M374.25,124.76c0.12-0.7,0.43-1.44,0.15-2.08c-1.1-2.5,0.85-1.2,1.23-2.78c0.37-1.57,1.68-3.17,3-4.58l0,0
	c-1.4-0.47-2.74-3.29-3.85-4.08c-1.07-0.76-2.49-0.72-3.16-1.93c-0.63-1.13-0.6-1.45-1.89-2.01c-0.84-0.3-1.1-1.26-1.73-1.85
	c-0.72-0.67-1.8-0.28-2.47-1c-1.67-1.8-2.71,1.27-4.63-0.35c-1.22-1.04-1.41-1.97-1.78-3.44c-0.32-1.28-4.14,0.25-4.47-1.47
	c-0.24-1.25-0.87-3.51-2.08-4.02c-2.29-0.96-4.13-4.76-6.48-5.88c-2.3-1.09-1.76-0.44-2.51-3.13c-0.17-0.61-2.8-3.93-3.35-4.33
	c-2.2-2.2-5.59-3.62-8.37-5.1c-0.81-0.43-0.94-1.54-1.62-2.05c-1.16-0.87-2.69-1.08-3.43-2.4c-0.78-1.4-0.49-3.23-2.43-3.63
	c-3.56-0.75-3.57-0.62-5.4-3.6c-0.66-1.07-1.8-0.87-2.58-2.05c-1.23-1.84-7.44-3.75-9.62-3.84l-1.87-0.96l0,0l-0.04,6.18
	l-20.1,25.63l0,0l31.01,0.31l0.66,48.89l0,0l53.19-0.15l0,0l0.62-3.21c0.16-2.05,0.3-3.67-0.35-5.64c-0.81-2.43,0.11-3.65,2.28-4.79
	L374.25,124.76L374.25,124.76z"/>
<path class="st0" d="M213.48,50.92l1.71,0.26c2.43,0.86,1.32,4.4,3.43,4.95c0.99,0.26,1.16,0.74,1.89,1.12
	c1.42,0.75,2.93,0.67,4.36,1.7c0.94,0.68,2.31,2.22,2.93,0.27c0.89-2.78,2.26-4.79,1.78-7.96c-0.27-1.77-1.16-4.22-0.89-5.92
	c0.62-3.85,3.81-1.84,6.4-1.08c1.07,0.31,1,3.07,1,4.02c0,2.09-0.65,3.09,0,5.22c0.05,0.48,3.7,2.88,4.59,3.56
	c1.51,1.15,0.78,3.1,2.39,4.14c1.28,0.82,0.54,3.23,2.35,3.32c1.56,0.08,3.03,2.13,4.67,1.31c2.02-1.01,6.56,4.05,7.29,1.39
	c1.02-3.74,1.95,1.01,3.93,1.39c1.21,0.23,3.27-1.83,3.74-2.78c0.84-1.69,4.42-0.36,4.86-2.78c0.19-1.06,1.31-4.29,0.65-5.1
	l0.08-11.79l-3.78,0.08c-0.18,0.32-0.85,1.32-0.93,1.63c-1.13,0-0.78-0.39-1.54-1.08c-0.5-0.44-0.76-0.93-1.62-0.7
	c-0.41,0.12-0.9-0.62-1.54-0.62c-2.75,0-4.33,0.38-6.13-2.13c-0.8-1.11-1.59-1.7-1.5-3.21c0.03-0.46,0.31-0.98,0.42-1.43
	c0.24-0.98,0-1.39,0-2.32c-0.12-1.12-1.96-2.14-2.78-2.9c-0.71-0.65-0.73-2.1-1-3.05c-0.49-1.68-1.76-4.68-0.89-6.34
	c0.51-0.96,1.23-1.18,1.23-2.47c0-0.99-0.29-3.58-0.06-4.53l0,0c-2.2,0.02-4.42,0.11-6-0.27c-1.27-0.3-2.06,1.18-3.66,0.54
	c-1.18-0.47-1.67-1.62-2.47-2.47c-1.29-1.37-1.46-0.81-3.08-1.31c-0.83-0.25-0.65-3.01-3.4-2.32c-0.19,0.77,0,1.5-0.31,2.28
	c-0.85,0.21-0.14,3.18-1.08,3.71c-1.43,0.81-3.18,1.07-4.59,1.97c-0.72,0.3-1.4,0.66-2.2,0.7c-0.49,0.02-0.86-0.27-1.23-0.27
	c-0.14,0.58-0.43,0.81-0.46,1.47c-0.03,0.58,0,1.14-0.08,1.7c-0.21,1.48-1.64,2.1-2.89,2.71c-0.71,0.35-1.67,0.34-2.08,0.89
	c1.15,1.91,0.29,3.03-1.78,3.44c-0.11,0.45-0.83,1.51-1.12,1.86l0,0l4.05,3.9L213.48,50.92L213.48,50.92z"/>
<path class="st0" d="M234.32,101.65c2.99-1.18,5.54,5.59,6.71-0.54c0.16-0.83,0.44-2.77,1.58-2.71c0.93,0.06,4.43,1.42,5.13,0.39
	c1.49-2.2,1.52,0.71,2.24,1.82c0.98,1.52,1.62,1.48,3.39,1.55c1.02,0.04,1.91,0.54,2.86,0.62c1.51,0.13,2.04-1.33,3.51-1.08
	c1.51,0.26,2.73,0.08,4.24,0.08l0,0l4.71-11.87c0.86,0,1.48-0.03,2.28,0.35c0.45,0.21,0.84,0.23,1.2,0.58
	c0.47,0.47,0.66,0.65,1.39,0.7c0.32,0.02,0.52-0.34,0.66-0.58c0.21-0.35,0.42-0.49,0.77-0.62l6.4-0.08l0.93,0.43h1.7l0.77-0.66l0,0
	l20.1-25.63l0.04-6.18l0,0l0.12-33.4l0,0c-0.57-0.31-1.29-0.45-2.35-1.38c-1.17-1.04-2.45-1.59-3.47-2.9l0,0
	c-0.47-0.31-0.71-0.61-1.04-1c-0.27-0.32-0.71-0.33-1.04-0.54c-0.55-0.35-1.44-0.44-1.89-0.85c-0.31-0.28-0.12-0.89-0.08-1.24
	c0.07-0.59,0.47-0.92,0.73-1.47l-20.56-0.19l-2.51,3.17c-1,1.29-1.23,1.98-1.23,3.59c0,1.4,0.01,1.59-1.08,2.4
	c-1.74,1.28-1.77,4.35-1.85,6.34c-0.09,2.16-0.75,2.32-1.12,0.39c-0.12-0.61-0.44-1.03-0.81-1.55c-1.21-1.67-0.72-3.53-2.51-5.18
	l-1.31-2.74c-0.39-0.82,1.07-1.75-0.27-2.28c-1.92-0.75-3.51,0.36-5.36-1.08c-1.45-1.14-4.08-1.22-6.73-1.2l0,0
	c-0.24,0.94,0.06,3.54,0.06,4.53c0,1.3-0.73,1.51-1.23,2.47c-0.87,1.66,0.4,4.66,0.89,6.34c0.27,0.95,0.3,2.4,1,3.05
	c0.82,0.76,2.66,1.78,2.78,2.9c0,0.93,0.24,1.34,0,2.32c-0.11,0.45-0.4,0.98-0.42,1.43c-0.09,1.51,0.71,2.1,1.5,3.21
	c1.81,2.51,3.38,2.13,6.13,2.13c0.64,0,1.13,0.73,1.54,0.62c0.86-0.24,1.13,0.25,1.62,0.7c0.77,0.69,0.41,1.08,1.54,1.08
	c0.08-0.31,0.74-1.3,0.93-1.63l3.78-0.08l-0.08,11.79c0.66,0.82-0.46,4.04-0.65,5.1c-0.44,2.42-4.02,1.1-4.86,2.78
	c-0.47,0.95-2.54,3.02-3.74,2.78c-1.98-0.38-2.91-5.13-3.93-1.39c-0.73,2.66-5.27-2.4-7.29-1.39c-1.64,0.82-3.11-1.23-4.67-1.31
	c-1.82-0.1-1.07-2.5-2.35-3.32c-1.61-1.03-0.88-2.98-2.39-4.14c-0.89-0.68-4.54-3.08-4.59-3.56c-0.65-2.13,0-3.12,0-5.22
	c0-0.95,0.07-3.71-1-4.02c-2.59-0.75-5.78-2.77-6.4,1.08c-0.27,1.7,0.62,4.15,0.89,5.92c0.48,3.17-0.88,5.18-1.78,7.96
	c-0.62,1.95-1.99,0.41-2.93-0.27c-1.43-1.03-2.94-0.95-4.36-1.7c-0.73-0.38-0.9-0.87-1.89-1.12c-2.12-0.54-1-4.09-3.43-4.95
	l-1.71-0.26l0,0l-1.77,5.79l-17.36,6.61c-0.48,0.76-1.63,1.98-2.47,2.16c-1.03,0.23-0.46,1.15-0.73,1.89
	c-0.21,0.58-1.58,0.35-1.58,0.81c0,3.17-2.74,3.8,0.65,6.73c1.57,1.35,2.84,3.79-0.12,3.79c-0.16,0-0.38,0.29-0.61,0.77l0,0
	l12.22,2.48l23.45,0.5l0.12,7.11c-2.05,0.65-4.88,1.16-4.74,4.1c0.04,0.93,0.95,1.85,1.66,2.32c0.91,0.61,0.88,1.3,1.08,2.28
	c0.14,0.69,1,0.84,1.58,1.28c0.57,0.42,3.49,7.96,4.67,4.68c0.57-1.58,0.75-3.54,2.16-4.6C233.28,98.41,233.91,100.73,234.32,101.65
	L234.32,101.65z"/>
<path class="st0" d="M288.67,767.39c1.79,0.31,1-1.19,1.17-2.21c0.08-0.47,2.86,0.51,4-1.21c0.38-0.57-0.26-1.49,0.45-2.25
	c0.54-0.57,1.12-0.55,1.72-1c1.38,1.11,0.69-0.04,1.62-0.55c0.86-0.47,3.04,1.33,4.03-1.07c1.06-2.55,0.83-2.16,3.03-3.7
	c1.39-0.97,0.98-2.95,2-3.9c1.17-1.1,1.86-0.6,2.72-2.38c0.38-0.77,2.41-2.92,1.04-3.9c-0.42-0.3-0.29-0.71-0.69-0.97
	c-0.61-0.39,0.03,1.84-1.1,2c-1.9,0.28-3.53,0.74-5.48,0.28c-1.14-0.27-3.36-1.02-4.41-0.76c0,0.59,1.32,0.68,0.07,1.52
	c-2.9,1.95-4.79-0.89-7.14-1.87c-0.35-0.15-3.59-1.41-2.79-0.17c0.98,1.51,3.58,0.4,3.58,2.83c-3.24,0-0.35,0.7,0.76,1.59l3.17,2.56
	c0.38,0.3,1.31,1.08,0.28,1.17c-0.85,0.07-0.43,2.11-2.21,2.66c-0.67,0.21-0.59,1.32-1.28,1.66c-0.37,0.19-0.95-1.11-1-1.31h-0.28
	c-0.33,1.36,1.12,3.14-0.76,4.39c-0.46,0.3-2.98,1.71-3.31,1.59c-0.92-0.34-4.47,0.69-3.34,1.14c2.88,1.15,2.07,0.37,3.21,3.11
	L288.67,767.39L288.67,767.39z M283.85,759l-0.59,0.93c-0.29,0.13-0.57,0.29-0.9,0.24c-0.37-0.05-0.35-0.46-0.45-0.73
	c-0.17-0.46-0.65-0.4-1-0.66c-0.81-0.61-0.6-2.12,0.62-1.83c0.8,0.19,0.2,0.9,0.52,1.31c0.33,0.42,0.93-0.41,1.28-0.41
	C283.86,757.86,283.84,758.64,283.85,759L283.85,759z M292.5,753.13l0.79,0.79c-0.21,0.46-0.96,0.55-1.41,0.69
	c-0.51,0.16-0.95,0.34-1.41,0.55c-0.67,0.31-1.94-0.91-1.34-1.62c0.41-0.49,0.99,0.08,1.41,0.1c0.26,0.02,0.52,0.04,0.79,0.04
	C291.87,753.68,292.05,753.26,292.5,753.13L292.5,753.13z M314.7,754.51l0.48,1.14c-0.48,1.91,2.56,2.17,3.14,3.52
	c0.47,1.11,1.46,2.07,2.59,2.35c0.89,0.22-0.66,2.79-1.66,1.35c-1.04-1.52-2.07,0.32-3.14-0.03c-1.14-0.38-2.18-3.14-3.89-1.21
	c-0.77,0.87,0.9,1.69,0.52,2.45c-0.45,0.89,1.86,2.8-0.52,2.69c-1.42-0.06-1.48-2.2-2.41-1.76c-0.4,0.19-1.19,0.78-1.52,1.11
	c-0.84,0.84,1.57,4.65-1.1,2.52c-0.57-0.45-3.15-3.84-2.24-4.11c0.84-0.25,1.04-1.37,1.45-2.11c0.56-1-0.21-1.59,0.76-2.7
	c0.56-0.63,0.89-2.02,1.38-2.38c1.15-0.87,1.73-0.84,2.38-2.14c0.12-0.23,1.22-0.41,1.52-0.59
	C313.79,753.79,314.49,751.57,314.7,754.51L314.7,754.51z M315.9,753.92l0.76,1.07c0.57,0.41,0.22,2.15,1.41,2.97
	c0.56,0.38,2.03,0.33,2.72,0.24c1.6-0.21,3.96,0.1,5.41-0.41c1.97-0.7,1.5-1.2,1.55-2.83c0.02-0.74,1.55-0.36,2.03-0.28
	c3.37,0.56,3.09-1.88,5.45-2.7c1.85-0.64-1.16-1.03-1.38-1.11c-0.48-0.16-3.77-0.98-3.55-1.59c0.4-1.12,2.79-1.07,3.62-0.97
	c1.34,0.17-0.1-2.83-0.62-3.25c-0.6-0.49-4.51-0.07-5.03,0.69c-0.73,1.06-1.9,0.89-1.14,2.04c0.96,1.44,1.46,0.09,1.72,1.8
	c0.65,4.21-2.56,0.67-3.48-0.66c-0.79-1.14-2.17-1.83-2.69-3.04c-1.03-2.43-1.49-1.55-3.45-2.49c-0.35-0.17-1.42-1.14-1.72-1.14
	c0,1.31,1.45,2.97-0.76,3.42c-2.6,0.54-1.96,2.02-2.31,4.18C314.26,751.12,315.43,752.7,315.9,753.92L315.9,753.92z M325.69,743.35
	l0.93,2c-0.08,0.63-0.71,0.62-1.21,0.62c-0.54,0-0.8-0.19-1.04-0.66c-0.07-0.14-0.09-0.42-0.17-0.52c-0.24-0.3-0.91-0.24-1.24-0.41
	c-0.46-0.24-0.29-0.94,0.07-1.21c0.33-0.25,0.68-0.66,1.14-0.48C324.66,742.88,325.23,743.2,325.69,743.35z"/>
<g>
	<g>
		<path class="st1" d="M435.12,745.19l1.16-1.96l1.36-0.94l1.66-1.12l1.41-0.81l1.24-0.69l0.74-0.76l-0.08-0.76v-0.66l1.25-0.98
			c0,0,0.23-0.41,0.32-0.66c0.08-0.25,0.16-1.07,0.16-1.07s0.56-1.15,0.12-1.89c-0.45-0.74-1.31-0.33-1.15-2.05
			c0-1.07-0.23-1.72-0.23-1.72l-0.57-0.98l-0.32-1.07l-0.82-1.39l-0.24-0.99l-0.57-1.23l-0.55-0.27l0.64-0.03h0.74h1.07l0.25-1.8
			l-0.16-0.8c0,0-0.74-0.48-0.74-1.06c0-0.57,0.57-0.16,0.57-0.57c0-0.41-0.25-1.43-0.25-1.43l0.57-0.4l-0.08-0.86l-0.82-1.15
			l0.16-0.82l-0.9-0.41l0.82,0.35l-0.25-0.05h-0.57l-0.25-2.43l0.66-1.03l0.33,0.72l0.66,0.16l0.41-0.7l-0.08-0.52l-0.33-0.19h0.41
			l0.66-1.25l0.33-1.51l0.33-0.96l0.55,0.06l0.43-0.35h0.33l0.02-1.22l0.11-0.85v-0.57l1.51,0.64h0.66l-0.57-1.33l-0.08-1.04
			l0.66-0.63h0.57h-0.74v-1.09l2.3,1.09h-1.3v-1h2.04h0.74l-0.78-1.89v-0.9l1.07,0.72l1.58,0.08h0.34c0,0,0-1.63,0.49-1.55
			c0.49,0.08,1.31-0.45,1.31-0.45h0.82h0.38v-1h0.93l0.57-1h1.15l0.82-1h0.66c0,0-0.16-0.46,0.33-0.42c0.49,0.04,0.53,0.6,0.53,0.6
			v0.41l-0.78-0.82l-0.25,0.41l-0.41,0.33l-0.74,0.17l-0.62,1.07l-0.39,0.68l-0.24,0.8l0.17,0.98l-0.08,1.32l-0.57,0.48h-0.49h-0.33
			h-0.57l-0.98-0.47l-0.49,0.14l-0.9,0.71l-0.33,0.61l-0.74,1h-0.49l-0.25,0.5l-0.08,0.4l-0.41-0.58l-0.49,0.37l0.41,0.72
			l-0.85,0.64l-1.1,1.22v0.82l1.28,0.25l1.15-0.16l0.66,0.05l0.56,0.79h0.42l0.16-0.87l0.16-0.57l0.16,0.92l-0.57,0.5l-0.34,0.46
			l-0.48-0.59l-0.41,0.48l-0.74,0.42l-0.41,0.25h-0.66l-0.41,0.21l0.33,0.62l-0.25,0.32l-0.33-0.62l-0.88-1.18l-0.6-0.59l-0.57,0.89
			l-1.08,1.37l-0.17,0.35v1.64h0.51l-0.41-0.22l-0.41,0.44l-0.48,0.55l-0.51,1.18l-1.22,0.63l-0.48,1.29v0.82l1,0.41v0.41l0.59,1.43
			l0.71,1.04l1.13,1.03h0.9l1.08-0.41l0.39,0.4l0.49,1.46l1.07,1.42l0.33,2.03l0.57,1.22l-0.08,0.73l0.25,0.41l0.41,1.06l-0.33,0.57
			c0,0,1.04,0.41,1.13,0.41c0.1,0,0.34,1.07,0.34,1.07l0.33,0.9l-0.67,0.66l0.59,0.74l-0.91,0.9l-1.33,0.58v0.66l1.76,0.08
			l0.49,0.66l-0.04,0.66l-0.06,1.07l0.46,0.25l0.35,1.5l0.19,1.99h0.58l0.41-0.29l-0.57,0.13l-1.4,0.51l-0.16,0.46l0.57,0.44
			l0.08,0.71l-0.57,0.56l-0.42,0.65l0.67,0.49l-0.25,1.31l-0.9,1.39l-0.66,1.64h-0.66l-0.41-1.74l-0.49,0.3l-0.49,0.89l0.25,0.73
			l0.08,1.1l-0.66,0.96l-0.73,0.81l-1.57,1.31l-1.15,0.57l-1.56,0.74c0,0-1.31,1.18-1.56,2c-0.25,0.82-2.22,2.33-2.22,2.33h-2.3
			h-0.33L435.12,745.19z"/>
		<path class="st1" d="M432.58,737.17l0.03-0.12v-1.27v0.39h2.12l-0.04-0.79l-0.08-1.07v-0.14h1.68l0.04,0.62l0.28,0.25v0.41v0.66
			c0,0,2.12,0.31,1.95,0.8c-0.16,0.49-0.47,1.25-0.47,1.25h-0.82h-0.98h-0.41h-0.33l-0.08,1h0.49l0.33,1h0.9l0.41-1.19l0.49-0.45
			l0.83-0.51l0.97-0.34l0.41-0.21l0.57-0.43l0.41,0.11l0.49,0.03h-2.18v-1.63l0.56-0.33l0.44-0.57v-1.56v-1.8l0.4-2.13l0.22-0.57
			l0.03-0.57l-0.48-0.41l-0.23-0.41h-0.49l-1.18-1.5l-1.27-1.62v-0.98l0.73,0.11h-0.41l-0.49-1.06l-0.08-1.17c0,0-0.57-1.32-1.15-1
			c-0.57,0.33-1.09,0.57-1.09,0.57l-0.96,0.45l-0.49,0.88l0.23,0.65l-0.28,0.64v0.57l0.77,0.8l0.72,0.84l0.76,1.07l-0.23,0.41
			l-0.55,0.82l-0.45,0.33l0.48,0.41l0.77,0.41l0.82,0.08l0.58,0.32l0.98,0.83l0.08,0.49l-0.43,0.33l-1.13-0.33l-0.66,0.33
			l-1.01-0.16l-0.64,0.49l0.17,0.82l-1.44,0.25l-1.6,0.41v0.66l0.39,0.25l-0.29,0.57L432.58,737.17z"/>
		<path class="st1" d="M445.66,765.78l0.35-0.13l0.3-0.6l0.16-0.36l0.41-0.19c0,0,0.08-0.22,0.38-0.33c0.3-0.11,1.04-0.52,0.66,0.96
			c-0.03,0.46-0.46,0.88-0.46,0.88l-0.46,0.38l-0.6,0.57l0.03,1.01l-0.38,0.79l-0.16,1.21l-0.22,1.18h-0.25l-0.46-0.45
			c0,0-0.3-0.68-0.36-1c-0.05-0.33,0-0.69-0.3-0.85c-0.3-0.16-0.38-0.15-0.27-0.51c0.11-0.36,0.49-1.22,0.49-1.22l0.25-0.37
			l0.08-0.5l0.16-0.2c0,0,0.3-0.41,0.55-0.25"/>
		<path class="st1" d="M447.61,772.05v-0.25v-0.16c0,0,1.38-0.06,1.47,0.37c0,0,0.85-0.04,0.94,0.12c0.08,0.17,0.57,0.19,0.67,0.25
			c0.11,0.05,0.62,0.25,1,0.3c0.38,0.05,0.74,0.29,0.79,0.19c0.05-0.11,0.33,0.29,0.47,0.29c0.14,0,0.57,0,0.57,0h0.25h0.08
			l0.14-0.7l-0.14-0.79l-0.14-0.75c0,0-0.11-0.45,0-0.67c0.11-0.22,0.28-0.58,0.28-0.58l0.25-0.29c0,0,1.07-0.53,1.03,0.39
			c-0.04,0.92-0.87,1.14-0.87,1.14l-0.78,0.37v0.6v0.33v0.25v0.25v0.16v0.33c0,0,0.68,0.12,0.68,0.41s0.38,0.08,0.3,0.47
			c-0.08,0.39,0.11,1.17-0.02,1.32c-0.12,0.14-0.39,0.76-0.39,0.76h-0.82l-0.27-0.68l-0.04-0.77l-0.16-0.49l-1.2-0.21l-1.08-0.15
			v-0.25l0.66-0.18c0,0,0-0.06-0.06,0.04c-0.06,0.1-0.06,0.35-0.06,0.35s-0.03,0.27-0.15,0.12c-0.12-0.14-0.25-0.25-0.25-0.25
			l-0.26-0.02l-0.38-0.16l-0.16-0.13l-0.22-0.18l-0.06-0.31l-1.03-0.22L447.61,772.05z"/>
		<path class="st1" d="M464.19,776.16h-0.57h-0.57h-0.82l-0.41,0.04c0,0-1.11,0.22-1.85-0.72c-0.74-0.94-0.25-1.22-0.25-1.22
			l0.16-0.32l0.04-0.39l0.16-0.34c0,0,0.33,0.37,0.41-0.01c0.08-0.37,0.33-0.62,0.33-0.62l0.37,0.3l0.49,0.28h0.29l0.13-1h0.29
			l0.25-0.59l0.29,0.23l0.62,0.35h0.16l0.33-1.34l0.16-0.55l0.33-0.4c0,0,0.53-2.33,0.41-3.73c0.12-0.37-0.33,0.04,0.33-0.82
			c0.66-0.86,0.66-0.92,0.9-1.09c0.25-0.17,0.25-0.17,0.25-0.17l-0.34-0.02l-0.46-0.36v-0.25l1.1-0.29c0,0,0.86-0.04,1.06-0.41
			c0.21-0.37,0.9-0.49,1.23-0.49c0.33,0,1.23,0.29,1.56,0.53s0.74,1.11,0.9,1.6c0.16,0.49,0.27,1.54,0.02,1.79
			c-0.25,0.25-1.1,0.31-1.18,0.43c-0.08,0.12-0.2,0.34,0.01,0.52c0.21,0.18,0.99,0.18,0.95,0.67c-0.04,0.49,0.21,1.36-0.04,1.34
			c-0.25-0.02-0.49,0.35-0.21,0.59s0.37,0.57,0.21,0.82c-0.16,0.25-0.08,0.99-0.08,0.99l-0.04,0.64l-0.41,0.35l-0.25,0.29
			l-0.04,0.33l-0.41-0.12l-0.49,0.04l-0.21,0.29l-0.04,0.66l-0.57,0.16l-0.57-0.04l-0.37,0.53c0,0-0.04,1.03-0.33,0.99
			c-0.29-0.04-0.82,0.54-0.82,0.54H466h-0.57h-0.57l-0.37,0.08L464.19,776.16z"/>
		<path class="st1" d="M497.51,762.16h-0.9l-0.52-0.68l-0.71,0.34l-0.66,0.34h-1.07l-1.4,0.55l-1.15,0.45h-0.9h-1.34l-0.82,0.22
			l-0.93,0.39l-0.6,0.39h-1.07l-0.46,0.49l-0.33,0.51h-0.36h-0.33l-0.74,0.08l-0.38,0.19l-0.27,0.97l-0.33,0.76h-0.49l-0.44-0.17
			l-0.88,0.05l-0.88,0.68c0,0-0.71,1.68,0,3.11c0.71,1.42,0.98,2.26,1.92,2.43c0.93,0.17,3.88,0.15,4.43,0.42
			c0.55,0.27,0.66,0.87-0.82,1.14c-1.48,0.27-2.08-0.17-2.19,0.65c-0.11,0.82-0.05,1.98-0.16,2.31c-0.11,0.33-0.71,1.38-0.71,1.38
			h-0.77h-0.74l-1.27-0.12l-1.54-0.55l-1.59,0.7l-1.8,0.97h-1.18l-0.9-1.33l-1.09-0.23l-0.66-0.03l-0.55,0.53l-0.77,0.62l-0.38,1.36
			c0,0-0.16,1.08-0.55,1.08s-1.59,0-1.59,0s-0.22-0.77-0.55-0.98c-0.33-0.22-2.24-1.02-3.5-0.63c-1.26,0.38-2.57,0.7-2.57,0.7
			l-1.37,0.63l-1.14,0.4l-0.92,0.73v0.93l0.05,1.21l0.04,1h-0.46c0,0,0.03-1.37-0.36-2.08c-0.38-0.71-0.88-1.24-0.88-1.24
			l-1.26-0.78l-0.33-0.56l-1.02-0.85l-1.12-0.89l-0.88-0.55l-0.49-0.66l-0.98-0.5l-0.9-0.27l-0.52-0.38l-0.44-0.33l-1.08,0.05
			l-0.84-0.27l-1.2-0.33l-0.34-0.5l12.26,41.04C455.88,817.05,495.08,768.16,497.51,762.16z"/>
	</g>
	<path class="st3" d="M455.88,816.75c0,0,54.5-65.4,82.57-121.16c0,0-49.74-26.96-117.95-15.63
		C420.5,679.96,437.35,762.24,455.88,816.75z"/>
</g>
</svg>
