<?xml version="1.0" encoding="UTF-8" standalone="no"?>
<svg
   xmlns:dc="http://purl.org/dc/elements/1.1/"
   xmlns:cc="http://creativecommons.org/ns#"
   xmlns:rdf="http://www.w3.org/1999/02/22-rdf-syntax-ns#"
   xmlns:svg="http://www.w3.org/2000/svg"
   xmlns="http://www.w3.org/2000/svg"
   xmlns:sodipodi="http://sodipodi.sourceforge.net/DTD/sodipodi-0.dtd"
   xmlns:inkscape="http://www.inkscape.org/namespaces/inkscape"
   width="2504.8796"
   height="2310.5596"
   version="1.0"
   baseProfile="tiny"
   id="svg2"
   sodipodi:version="0.32"
   inkscape:version="0.46"
   sodipodi:docname="formosa.svg"
   inkscape:output_extension="org.inkscape.output.svg.inkscape">
  <metadata
     id="metadata75">
    <rdf:RDF>
      <cc:Work
         rdf:about="">
        <dc:format>image/svg+xml</dc:format>
        <dc:type
           rdf:resource="http://purl.org/dc/dcmitype/StillImage" />
      </cc:Work>
    </rdf:RDF>
  </metadata>
  <sodipodi:namedview
     inkscape:window-height="696"
     inkscape:window-width="1024"
     inkscape:pageshadow="2"
     inkscape:pageopacity="0.0"
     guidetolerance="10.0"
     gridtolerance="10.0"
     objecttolerance="10.0"
     borderopacity="1.0"
     bordercolor="#666666"
     pagecolor="#ffffff"
     id="base"
     showgrid="false"
     inkscape:zoom="0.19412246"
     inkscape:cx="1226.3204"
     inkscape:cy="1148.3828"
     inkscape:window-x="-4"
     inkscape:window-y="-4"
     inkscape:current-layer="svg2" />
  <desc
     id="desc4">Generated with Qt</desc>
  <defs
     id="defs6">
    <inkscape:perspective
       sodipodi:type="inkscape:persp3d"
       inkscape:vp_x="0 : 371.99942 : 1"
       inkscape:vp_y="0 : 1000 : 0"
       inkscape:vp_z="1052.1 : 371.99942 : 1"
       inkscape:persp3d-origin="526.04999 : 247.99961 : 1"
       id="perspective77" />
  </defs>
  <g
     style="font-size:34.375px;font-style:normal;font-weight:400;fill:none;fill-rule:evenodd;stroke:#000000;stroke-width:1;stroke-linecap:square;stroke-linejoin:bevel;stroke-opacity:1;font-family:MS Shell Dlg 2"
     id="g10"
     font-style="normal"
     font-weight="400"
     font-size="34.375"
     vector-effect="non-scaling-stroke"
     transform="translate(-396.24013,-112.89898)" />
  <g
     style="font-size:34.375px;font-style:normal;font-weight:400;fill:none;fill-rule:evenodd;stroke:#000000;stroke-width:1;stroke-linecap:square;stroke-linejoin:bevel;stroke-opacity:1;font-family:MS Shell Dlg 2"
     id="g12"
     font-style="normal"
     font-weight="400"
     font-size="34.375"
     transform="matrix(11.8081,0,0,11.8081,-396.24013,-112.89898)"
     vector-effect="non-scaling-stroke" />
  <g
     style="font-size:34.375px;font-style:normal;font-weight:400;fill:none;fill-rule:evenodd;stroke:#000000;stroke-width:1;stroke-linecap:square;stroke-linejoin:bevel;stroke-opacity:1;font-family:MS Shell Dlg 2"
     id="g18"
     font-style="normal"
     font-weight="400"
     font-size="34.375"
     transform="matrix(11.8081,0,0,11.8081,-396.24013,-112.89898)"
     vector-effect="non-scaling-stroke" />
  <g
     style="font-size:34.375px;font-style:normal;font-weight:400;fill:none;fill-rule:evenodd;stroke:#000000;stroke-width:1;stroke-linecap:square;stroke-linejoin:bevel;stroke-opacity:1;font-family:MS Shell Dlg 2"
     id="g20"
     font-style="normal"
     font-weight="400"
     font-size="34.375"
     transform="matrix(11.8081,0,0,11.8081,-396.24013,-112.89898)"
     vector-effect="non-scaling-stroke" />
  <g
     style="font-size:34.375px;font-style:normal;font-weight:400;fill:none;fill-rule:evenodd;stroke:#000000;stroke-width:1;stroke-linecap:square;stroke-linejoin:bevel;stroke-opacity:1;font-family:MS Shell Dlg 2"
     id="g26"
     font-style="normal"
     font-weight="400"
     font-size="34.375"
     transform="matrix(11.8081,0,0,11.8081,-396.24013,-112.89898)"
     vector-effect="non-scaling-stroke" />
  <g
     style="font-size:34.375px;font-style:normal;font-weight:400;fill:none;fill-rule:evenodd;stroke:#000000;stroke-width:1;stroke-linecap:square;stroke-linejoin:bevel;stroke-opacity:1;font-family:MS Shell Dlg 2"
     id="g28"
     font-style="normal"
     font-weight="400"
     font-size="34.375"
     transform="matrix(11.8081,0,0,11.8081,-384.43203,-101.09088)"
     vector-effect="non-scaling-stroke" />
  <g
     style="font-size:34.375px;font-style:normal;font-weight:400;fill:none;fill-rule:evenodd;stroke:#000000;stroke-width:1;stroke-linecap:square;stroke-linejoin:bevel;stroke-opacity:1;font-family:MS Shell Dlg 2"
     id="g30"
     font-style="normal"
     font-weight="400"
     font-size="34.375"
     transform="matrix(11.8081,0,0,11.8081,-384.43203,-101.09088)"
     vector-effect="non-scaling-stroke" />
  <g
     style="font-size:34.37500000000000000px;font-style:normal;font-weight:400;fill:#e8e9d6;fill-opacity:1;fill-rule:evenodd;stroke:#000000;stroke-width:0.25592600999999998;stroke-linecap:square;stroke-linejoin:bevel;stroke-miterlimit:4;stroke-dasharray:none;stroke-opacity:1;font-family:MS Shell Dlg 2"
     id="g36"
     font-style="normal"
     font-weight="400"
     font-size="34.375"
     transform="matrix(11.8081,0,0,11.8081,-384.43203,-101.09088)">
    <path
       style="fill:#e8e9d6;fill-opacity:1;fill-rule:evenodd;stroke-width:0.25592600999999998;stroke-miterlimit:4;stroke-dasharray:none"
       id="path38"
       d="M 54.6366,37.3898 L 54.9784,54.6309 L 54.9801,54.724 L 32.7574,54.76 L 32.7586,54.1095 L 32.7587,53.8922 L 32.7603,52.8222 L 32.7637,50.6954 L 32.7653,49.6306 L 32.7691,47.4987 L 32.7707,46.439 L 32.7737,44.3013 L 32.7753,43.2471 L 32.7788,41.1045 L 32.7805,40.0554 L 32.7843,37.9071 L 32.7858,36.8638 L 32.789,34.7102 L 32.791,33.6721 L 32.7945,31.5128 L 32.7961,30.4805 L 32.7997,28.3157 L 32.8013,27.5654 L 32.8011,27.5596 L 32.8015,27.2884 L 32.8027,26.552 L 32.8049,25.119 L 32.8064,24.0967 L 32.8084,23.0404 L 32.8105,21.9215 L 32.8111,21.4565 L 32.8159,18.7246 L 32.8166,18.265 L 32.8212,15.527 L 32.822,15.0726 L 32.8267,12.3299 L 32.8251,11.8809 L 32.8139,8.68911 L 33.2132,9.03405 L 33.3561,9.39219 L 33.5412,9.56857 L 33.9286,9.68804 L 34.2517,9.70938 L 34.4713,9.7245 L 34.8339,9.90096 L 35.0615,10.2204 L 35.1227,10.9757 L 35.4593,11.3724 L 36.0085,11.0318 L 36.3295,11.1974 L 36.4698,11.2695 L 36.5532,11.7714 L 37.088,12.3472 L 37.3192,12.8003 L 37.6046,13.0688 L 37.6323,13.3316 L 37.4319,13.4203 L 37.2101,13.7431 L 37.0828,14.49 L 36.4508,14.728 L 36.2219,14.8746 L 36.4705,15.2324 L 36.582,15.464 L 36.8448,15.5208 L 37.0506,15.6855 L 37.1071,15.9249 L 37.2796,16.1182 L 37.6131,15.9521 L 38.097,16.1139 L 38.2048,16.3267 L 38.4298,16.4636 L 38.5933,16.9325 L 39.0248,16.362 L 39.2644,16.2767 L 39.2867,16.4535 L 39.5332,17.1117 L 39.3271,17.4352 L 38.7624,17.9844 L 38.6486,18.3538 L 38.7556,18.5853 L 39.1352,18.5318 L 39.3381,18.3726 L 39.5478,18.4675 L 39.8375,19.0349 L 39.2779,19.2457 L 39.0462,19.3608 L 39.4575,19.8287 L 39.8546,19.8559 L 40.2028,20.2967 L 40.5718,20.7783 L 40.8948,21.6143 L 41.0531,21.8178 L 41.2477,21.9961 L 41.4447,22.1729 L 41.6601,22.3293 L 41.8709,22.4908 L 42.1326,22.5685 L 42.3576,22.7092 L 42.2018,22.8102 L 41.8505,22.8568 L 41.9981,23.0168 L 42.065,23.2598 L 42.14,23.5022 L 42.2785,23.7301 L 42.4389,23.6655 L 42.6259,23.636 L 42.8156,23.82 L 43.0242,23.9845 L 43.2161,24.1661 L 43.4137,24.3373 L 43.6808,24.4007 L 43.9252,24.5161 L 44.1506,24.6586 L 44.3527,24.8313 L 44.5427,25.014 L 44.6957,25.2253 L 44.8103,25.4529 L 44.947,25.66 L 45.1831,25.5265 L 45.2976,25.7377 L 45.1996,25.963 L 45.2698,26.2092 L 45.4913,26.3558 L 45.676,26.5409 L 45.807,26.7639 L 45.9568,26.9758 L 46.0667,27.2087 L 46.1818,27.4388 L 46.4852,27.2017 L 46.706,27.2967 L 46.7893,27.5378 L 46.9407,27.7497 L 47.0813,27.9666 L 47.0178,28.2036 L 46.786,28.1342 L 46.5392,27.9905 L 46.5624,28.2088 L 46.7134,28.4243 L 46.7474,28.673 L 46.9197,28.8719 L 47.0877,29.0718 L 47.1057,29.1791 L 47.1307,29.3303 L 47.3514,29.224 L 47.5439,29.3438 L 47.6295,29.5885 L 47.695,29.7885 L 47.7366,29.8603 L 47.8178,30.0003 L 47.762,30.2453 L 47.7357,30.4901 L 47.7793,30.736 L 47.7486,30.9881 L 47.7468,31.2425 L 47.7549,31.4978 L 47.6428,31.7271 L 47.6181,31.9555 L 47.8904,31.9838 L 48.1357,32.0969 L 48.3378,32.2699 L 48.3553,32.519 L 48.3614,32.7664 L 48.1851,32.9622 L 48.2416,33.2087 L 48.3334,33.4488 L 48.4453,33.6808 L 48.6106,33.8832 L 48.7642,34.101 L 49.0113,34.138 L 49.2137,33.9704 L 49.4457,33.8315 L 49.5603,34.0386 L 49.716,34.2511 L 49.7377,34.4895 L 49.9205,34.6671 L 50.1377,34.821 L 50.3217,35.0099 L 50.5405,35.1669 L 50.7306,35.3415 L 50.8229,35.5843 L 50.929,35.8194 L 51.1434,35.8601 L 51.164,35.5985 L 51.3659,35.6401 L 51.57,35.8142 L 51.9256,35.872 L 52.1505,35.8281 L 52.2931,36.0488 L 52.3952,36.2626 L 52.6486,36.3751 L 53.0294,36.5201 L 53.3965,36.6456 L 53.6736,36.5656 L 53.8988,36.6644 L 54.1014,36.8362 L 54.2999,37.0253 L 54.5189,37.1863 L 54.6366,37.3898" />
    <path
       style="fill:#e8e9d6;fill-opacity:1;fill-rule:evenodd;stroke-width:0.25592600999999998;stroke-miterlimit:4;stroke-dasharray:none"
       id="path40"
       d="M 54.6366,37.3898 L 54.6944,37.637 L 54.7806,37.8777 L 54.9437,38.0814 L 55.1862,38.1833 L 55.4602,38.3895 L 55.5086,38.6405 L 55.6933,38.8291 L 55.8976,38.9994 L 56.0694,39.1979 L 56.2865,39.3499 L 56.534,39.455 L 56.8102,39.4515 L 57.0754,39.6235 L 57.0358,39.8515 L 57.3066,39.9153 L 57.5394,39.9567 L 57.5806,39.9644 L 57.8416,40.0372 L 58.0755,40.1629 L 58.2958,40.3156 L 58.5077,40.4814 L 58.716,40.6487 L 58.9318,40.8162 L 59.1181,41.002 L 59.2273,41.2258 L 59.278,41.4793 L 59.3222,41.7334 L 59.36,41.9851 L 59.4151,42.2337 L 59.4894,42.4792 L 59.5878,42.7173 L 59.7305,42.9362 L 59.9593,43.0707 L 60.2232,43.1457 L 60.4983,43.1676 L 60.6904,43.347 L 60.899,43.5126 L 61.125,43.6562 L 61.3405,43.8144 L 61.4918,44.0209 L 61.6348,44.2369 L 61.7787,44.4547 L 61.9782,44.6228 L 62.1922,44.7812 L 62.392,44.9562 L 62.6131,45.1064 L 62.8826,45.1365 L 63.147,45.0653 L 63.3693,44.9303 L 63.6426,44.9628 L 63.9177,44.96 L 64.1703,45.0594 L 64.4405,45.0842 L 64.7166,45.0851 L 64.9883,45.1313 L 65.2414,45.2335 L 65.4442,45.3606 L 65.5189,45.4967 L 65.7415,45.6401 L 65.9839,45.7648 L 66.2273,45.8828 L 66.4305,46.0574 L 66.6953,46.0038 L 66.962,46.0677 L 66.9454,46.3069 L 66.6282,46.4959 L 66.8187,46.6676 L 66.9789,46.8736 L 67.0815,47.1088 L 67.204,47.3371 L 67.3978,47.5148 L 67.6111,47.6767 L 67.8081,47.8741 L 68.0167,47.8653 L 68.2745,47.8359 L 68.5207,47.9563 L 68.7788,48.045 L 69.1535,48.1589 L 69.0177,48.303 L 68.8974,48.5319 L 68.8598,48.7864 L 68.8873,49.0353 L 68.9976,49.2714 L 69.1577,49.4766 L 69.3522,49.6575 L 69.5696,49.8135 L 69.7783,49.9734 L 69.9639,50.1561 L 70.1307,50.3603 L 70.352,50.5816 L 70.3575,50.742 L 70.2533,50.9077 L 70.3647,51.0638 L 70.5505,51.1194 L 70.6961,51.0626 L 70.8929,51.1187 L 71.1302,51.3136 L 71.2949,51.3487 L 71.5971,51.2193 L 71.7552,51.2951 L 71.9374,51.2999 L 72.1311,51.2845 L 72.3234,51.3152 L 72.5272,51.5248 L 72.6427,51.651 L 72.8292,51.7674 L 72.8861,51.8124 L 72.999,51.9016 L 73.1191,52.0504 L 73.2591,52.1765 L 73.3881,52.282 L 73.6069,52.3643 L 73.8589,52.432 L 74.2951,52.4435 L 74.5567,52.7412 L 74.7493,52.7716 L 74.754,52.6192 L 75.0586,52.4182 L 75.2863,52.5516 L 75.5348,52.5582 L 75.6828,52.6026 L 75.8445,52.5561 L 76.0672,52.4905 L 76.2659,52.5163 L 76.4626,52.5822 L 76.5191,52.7318 L 76.6307,52.8675 L 76.7769,52.9782 L 76.9188,53.0329 L 77.1213,53.1046 L 77.2747,53.1491 L 77.6439,53.1895 L 78.044,53.2915 L 78.1668,53.4377 L 78.3339,53.5848 L 78.4055,53.7854 L 78.5335,53.9418 L 78.8243,54.0154 L 79.0484,54.1131 L 79.344,54.2022 L 79.4793,54.3026 L 79.5596,54.5749 L 79.5827,54.7337 L 79.7641,54.7688 L 79.9517,54.9673 L 80.0366,55.0919 L 80.0318,55.2449 L 79.9836,55.3915 L 80.2077,55.4684 L 80.4216,55.5301 L 80.6044,55.7135 L 80.853,55.9085 L 81.2366,56.4073 L 81.5208,56.5371 L 81.8602,56.6378 L 82.09,56.7198 L 82.3362,56.8177 L 82.6713,56.8927 L 83.1295,56.7309 L 83.4216,56.7811 L 83.7717,56.9 L 84.1175,57.0005 L 84.4572,57.1058 L 84.608,57.2524 L 84.7251,57.4136 L 84.847,57.6049 L 85.0898,57.6113 L 85.3143,57.6932 L 85.4542,57.8294 L 85.7094,57.999 L 85.9615,58.092 L 86.2543,58.089 L 86.2847,58.3852 L 86.2779,58.625 L 86.4263,58.853 L 86.4945,58.5945 L 86.6344,58.3535 L 86.7805,58.4641 L 86.8477,58.644 L 87.0408,58.848 L 87.3869,58.9328 L 87.5669,59.0291 L 87.7325,59.232 L 87.8877,59.4242 L 88.0999,59.552 L 88.3312,59.7821 L 88.316,59.9346 L 88.056,59.9383 L 87.9452,60.1393 L 88.0541,60.392 L 88.2617,60.6979 L 88.3507,60.8735 L 88.3679,61.0573 L 88.1355,61.2453 L 88.0637,61.4321 L 88.1471,61.6282 L 88.4381,61.7168 L 88.586,61.9497 L 88.4363,62.1651 L 88.426,62.3436 L 88.5553,62.4689 L 88.7014,62.5747 L 88.7029,62.7225 L 88.6985,62.8855 L 88.8286,62.9906 L 88.9243,63.1205 L 89.0851,63.3332 L 89.4707,63.5925 L 89.737,63.7672 L 90.0332,64.0754 L 90.2403,64.3912 L 90.4199,64.7065 L 90.6326,65.0178 L 90.6379,65.237 L 90.843,65.4206 L 91.1994,65.7503 L 91.3634,66.0346 L 91.4132,66.4334 L 91.548,66.7836 L 91.7984,67.1464 L 92.1051,67.48 L 92.259,67.7285 L 92.3259,67.889 L 92.4044,68.0785 L 92.6936,68.3085 L 92.9076,68.5241 L 93.2697,68.4462 L 93.5474,68.4271 L 93.5422,68.6362 L 93.4967,68.8696 L 93.7218,68.9513 L 93.8568,68.8678 L 94.0138,68.8356 L 94.1755,68.7631 L 94.2796,68.6029 L 94.416,68.4832 L 94.6484,68.4991 L 94.7619,68.3895 L 94.894,68.2397 L 95.2152,68.232 L 95.5357,68.4689 L 95.6832,68.5593 L 95.8819,68.5894 L 96.1181,68.6563 L 96.3132,68.8189 L 96.5117,69.0781 L 96.7114,69.2768 L 96.948,69.5421 L 97.0972,69.7649 L 97.3798,69.9855 L 97.5751,70.138 L 97.8419,70.3278 L 98.052,70.3477 L 98.3224,70.3895 L 98.5291,70.5374 L 98.7068,70.7351 L 98.9395,70.9497 L 99.002,70.9932 L 99.2773,71.1868 L 99.6407,71.2463 L 99.8834,71.3384 L 100.26,71.3317 L 100.649,71.3098 L 100.95,71.2554 L 101.226,71.2925 L 101.46,71.4559 L 101.577,71.6569 L 101.879,71.5518 L 102.357,71.5067 L 102.58,71.467 L 102.952,71.4282 L 103.392,71.5758 L 103.651,71.6426 L 103.906,71.6586 L 104.189,71.6445 L 104.49,71.6003 L 104.738,71.6262 L 104.935,71.7426 L 105.069,71.9139 L 105.268,72.178 L 105.432,72.248 L 105.584,72.3842 L 105.831,72.4863 L 106.062,72.3384 L 106.494,72.348 L 106.835,72.2686 L 107.026,72.3646 L 107.204,72.3837 L 107.371,72.5659 L 107.589,72.7339 L 107.795,72.6615 L 108.131,72.7865 L 108.326,72.7295 L 108.524,72.5907 L 108.735,72.5956 L 108.957,72.5546 L 109.269,72.505 L 109.448,72.6668 L 109.636,72.6811 L 109.722,72.8154 L 109.873,72.9922 L 110.056,72.9755 L 110.208,73.1114 L 110.264,73.3114 L 110.282,73.7094 L 110.331,73.9806 L 110.554,74.1893 L 110.509,74.4227 L 110.739,74.5602 L 110.533,74.7906 L 111.001,74.9737 L 111.253,74.8416 L 111.58,74.8739 L 111.98,75.0608 L 112.149,75.1869 L 112.285,75.0671 L 112.473,75.1274 L 112.632,75.1611 L 112.826,75.2114 L 113.06,75.3691 L 113.36,75.3447 L 113.787,75.3792 L 114.122,75.2789 L 114.382,75.0808 L 114.614,74.9121 L 114.777,74.8186 L 115.03,74.6709 L 115.197,74.6439 L 115.408,74.6277 L 115.722,74.721 L 116.017,74.9153 L 116.203,75.0313 L 116.602,75.0652 L 116.87,75.213 L 117.125,75.4633 L 117.386,75.6976 L 117.695,76.0256 L 118.041,76.1448 L 118.347,76.1507 L 118.551,76.2008 L 118.909,76.3353 L 119.22,76.5127 L 119.449,76.7334 L 119.663,77.0692 L 119.678,77.329 L 119.638,77.5703 L 119.606,77.8144 L 119.691,77.9919 L 119.712,78.0352 L 119.912,78.1712 L 120.201,78.2058 L 113.53,84.8948 L 100.11,98.2829 L 98.4494,99.9438 L 97.845,100.548 L 86.1615,112.188 L 86.1767,112.029 L 86.1442,111.787 L 86.1394,111.543 L 86.1311,111.3 L 86.0496,111.069 L 85.8774,110.862 L 85.7393,110.671 L 85.719,110.43 L 85.6272,110.233 L 85.8331,110.063 L 85.9732,109.859 L 85.7108,109.877 L 85.4466,109.922 L 85.3095,109.73 L 85.2922,109.484 L 85.2228,109.294 L 85.1617,109.137 L 85.1274,108.896 L 85.1633,108.652 L 85.2553,108.432 L 84.9993,108.375 L 84.7916,108.32 L 84.6245,108.514 L 84.5476,108.718 L 84.596,108.958 L 84.3926,109.094 L 84.1641,108.978 L 84.064,108.74 L 83.9231,108.592 L 83.6912,108.689 L 83.5851,108.468 L 83.669,108.243 L 83.6635,108.022 L 83.4666,107.897 L 83.4943,107.649 L 83.4378,107.412 L 83.5172,107.191 L 83.2929,107.056 L 83.1335,106.862 L 82.986,106.654 L 82.723,106.648 L 82.4579,106.647 L 82.3738,106.418 L 82.5238,106.217 L 82.5571,105.971 L 82.3438,105.844 L 82.0785,105.814 L 81.8108,105.811 L 81.5503,105.771 L 81.294,105.698 L 81.0385,105.632 L 80.9434,105.41 L 80.7683,105.288 L 80.4995,105.201 L 80.2678,105.221 L 80.0732,105.402 L 79.881,105.576 L 79.6142,105.569 L 79.3486,105.546 L 79.083,105.525 L 78.8151,105.523 L 78.5537,105.584 L 78.3643,105.745 L 78.2975,105.985 L 78.1783,106.197 L 77.9432,106.22 L 77.9476,105.983 L 78.0926,105.768 L 77.9904,105.571 L 77.7416,105.481 L 77.4765,105.458 L 77.2115,105.411 L 76.9553,105.47 L 76.7033,105.497 L 76.4519,105.398 L 76.1827,105.394 L 75.93,105.364 L 75.7319,105.193 L 75.5078,105.058 L 75.3311,104.875 L 75.1124,104.794 L 74.8484,104.831 L 74.5886,104.886 L 74.3255,104.892 L 74.1168,104.743 L 73.9087,104.593 L 73.6469,104.551 L 73.388,104.493 L 73.3,104.469 L 73.1317,104.421 L 72.8747,104.367 L 72.6088,104.415 L 72.3725,104.505 L 72.1953,104.693 L 71.9922,104.793 L 71.7936,104.624 L 71.6567,104.412 L 71.687,104.173 L 71.6231,103.938 L 71.5373,103.705 L 71.4478,103.475 L 71.2986,103.272 L 71.1915,103.052 L 71.1006,102.827 L 70.9134,102.628 L 70.7009,102.531 L 70.4535,102.671 L 70.2764,102.576 L 70.158,102.4 L 69.9475,102.266 L 69.7213,102.119 L 69.5455,101.928 L 69.502,101.678 L 69.4406,101.426 L 69.2463,101.337 L 68.9685,101.43 L 68.7818,101.268 L 68.7474,101.019 L 68.616,100.795 L 68.4251,100.616 L 68.171,100.514 L 67.9148,100.418 L 67.6712,100.305 L 67.4785,100.123 L 67.3021,99.9275 L 67.157,99.7114 L 67.0682,99.4602 L 67.0611,99.2215 L 67.0076,98.9736 L 66.9904,98.7199 L 66.8878,98.4878 L 66.7203,98.2852 L 66.5246,98.1066 L 66.2794,97.9906 L 66.0647,97.8324 L 65.8825,97.6429 L 65.711,97.4441 L 65.5009,97.4077 L 65.3663,97.6433 L 65.0458,97.8465 L 64.765,97.8301 L 64.5281,97.7213 L 64.273,97.6368 L 63.8524,97.6047 L 63.7523,97.4026 L 63.6958,97.1579 L 63.6281,97.1549 L 63.4309,97.1462 L 63.1921,97.2753 L 63.0037,97.4578 L 62.7397,97.4351 L 62.5019,97.3065 L 62.4587,97.2685 L 62.3021,97.131 L 62.1263,96.936 L 61.9432,96.7492 L 61.7332,96.5839 L 61.5544,96.3916 L 61.4384,96.1623 L 61.2955,95.9452 L 61.1083,95.7633 L 60.9632,95.5644 L 60.9455,95.3115 L 60.8588,95.0706 L 60.7318,94.8475 L 60.6302,94.6083 L 60.739,94.3862 L 60.7769,94.1343 L 60.7398,93.9871 L 60.7144,93.8856 L 60.557,93.6864 L 60.3242,93.5414 L 60.0938,93.4013 L 59.8446,93.2955 L 59.5828,93.2131 L 59.3166,93.1448 L 59.061,93.0535 L 58.815,92.9385 L 58.5435,92.8606 L 58.2953,92.5845 L 58.2085,92.3403 L 58.1336,92.0968 L 58.0353,91.8605 L 57.9146,91.6329 L 57.797,91.4046 L 57.6863,91.1737 L 57.524,90.9681 L 57.3566,90.9665 L 57.4599,91.2301 L 57.5335,91.4738 L 57.6037,91.7207 L 57.6022,91.9784 L 57.4555,92.1508 L 57.194,92.052 L 56.9915,91.8813 L 56.946,91.8307 L 56.8198,91.6906 L 56.5744,91.5716 L 56.3476,91.4235 L 56.2098,91.2109 L 56.0682,90.9866 L 55.8291,90.9443 L 55.8734,91.1023 L 55.8992,91.1943 L 55.978,91.4357 L 55.6973,91.4915 L 55.5334,91.2866 L 55.4252,91.0556 L 55.3823,91.0356 L 55.4289,84.2932 L 55.4285,83.6819 L 55.4264,77.3772 L 55.3592,73.9589 L 55.3433,73.1513 L 55.3354,72.7519 L 54.9883,55.1281 L 54.9801,54.724 L 54.9784,54.6309 L 54.6366,37.3898" />
    <path
       style="fill:#e8e9d6;fill-opacity:1;fill-rule:evenodd;stroke-width:0.25592600999999998;stroke-miterlimit:4;stroke-dasharray:none"
       id="path42"
       d="M 54.9801,54.724 L 54.9883,55.1281 L 55.3354,72.7519 L 55.3433,73.1513 L 55.3592,73.9589 L 55.4264,77.3772 L 55.4285,83.6819 L 55.4289,84.2932 L 55.3823,91.0356 L 55.1875,90.9444 L 54.9084,90.924 L 54.6408,90.8603 L 54.4037,90.7351 L 54.2042,90.5515 L 53.9606,90.5193 L 53.9222,90.7744 L 53.8054,90.9637 L 53.5427,90.896 L 53.3522,90.5484 L 53.3302,90.3174 L 53.2502,90.0762 L 53.0655,89.8874 L 52.8187,89.783 L 52.5553,89.7045 L 52.3375,89.5489 L 52.1499,89.3618 L 52.0904,89.1171 L 51.9776,88.8804 L 51.744,88.7676 L 51.4699,88.7096 L 51.199,88.6608 L 50.9381,88.5824 L 50.6852,88.4816 L 50.4264,88.3942 L 50.1677,88.3062 L 49.9177,88.2015 L 49.6896,88.0588 L 49.4871,87.8862 L 49.4064,87.6568 L 49.4132,87.3941 L 49.2447,87.2526 L 48.9672,87.281 L 48.7789,87.4566 L 48.5542,87.5946 L 48.2795,87.585 L 48.0134,87.5184 L 47.7407,87.4969 L 47.4888,87.3948 L 47.2392,87.3106 L 47.0155,87.464 L 46.8202,87.6425 L 46.5668,87.7397 L 46.3468,87.6313 L 46.3328,87.3684 L 46.2597,87.1265 L 46.0369,86.9861 L 45.7618,86.9808 L 45.7334,86.9831 L 45.487,87.0025 L 45.2142,87.0401 L 44.9412,87.0624 L 44.6651,87.0477 L 44.3952,87.0034 L 44.1473,86.8937 L 43.9,86.7848 L 43.6332,86.7208 L 43.401,86.5775 L 43.4434,86.3708 L 43.6238,86.2045 L 43.818,86.0456 L 44.0339,85.7617 L 43.9368,85.645 L 43.8236,85.5088 L 43.6242,85.6747 L 43.4516,85.8732 L 43.2297,86.0193 L 42.9909,86.1479 L 42.7566,86.2802 L 42.5264,86.4191 L 42.2851,86.5471 L 42.0125,86.5289 L 41.8742,86.3248 L 41.8148,86.0777 L 41.6014,85.9221 L 41.4383,85.8087 L 41.6011,85.5981 L 41.5648,85.3742 L 41.4944,85.389 L 41.2952,85.4309 L 41.0807,85.5832 L 40.9054,85.7787 L 40.7961,86.0113 L 40.656,86.2293 L 40.463,86.3935 L 40.195,86.2991 L 40.2046,86.0699 L 40.2597,85.8223 L 40.264,85.5698 L 40.4348,85.3622 L 40.4201,85.1455 L 40.355,84.9042 L 40.458,84.6584 L 40.2501,84.4645 L 39.9729,84.511 L 39.741,84.6546 L 39.4634,84.6722 L 39.3753,84.4565 L 39.5616,84.2765 L 39.7677,84.1141 L 39.5309,83.886 L 39.2739,83.7939 L 39.005,83.7353 L 38.7777,83.5932 L 38.5055,83.5959 L 38.23,83.571 L 37.9666,83.4993 L 37.7967,83.3088 L 37.659,83.0802 L 37.2997,83.0839 L 37.036,83.1554 L 36.7726,83.2325 L 36.5008,83.1999 L 36.2379,83.1239 L 36.1057,82.9196 L 35.8442,83.0025 L 35.5658,82.9925 L 35.3017,82.9327 L 35.2315,82.6987 L 35.0173,82.5805 L 34.8617,82.3773 L 34.7996,82.1224 L 34.5437,82.0658 L 34.2617,82.0573 L 33.8394,82.0958 L 33.8329,81.8972 L 34.0695,81.7558 L 34.2393,81.5564 L 34.4252,81.3863 L 34.268,81.1969 L 34.02,81.2967 L 33.8055,81.4627 L 33.5695,81.5709 L 33.3031,81.6264 L 33.0608,81.747 L 32.8395,81.8975 L 32.6846,81.9527 L 32.6853,81.5447 L 32.6906,78.8992 L 32.7092,78.3536 L 32.7581,76.905 L 32.7565,76.668 L 32.7562,76.5547 L 32.7563,76.5411 L 32.7557,76.414 L 32.7552,76.2869 L 32.7547,76.1607 L 32.7542,76.0332 L 32.7536,75.9059 L 32.7531,75.779 L 32.7526,75.6525 L 32.7518,75.5252 L 32.751,75.3983 L 32.7506,75.271 L 32.7505,75.1447 L 32.7498,75.0177 L 32.7488,74.8904 L 32.7484,74.7635 L 32.7479,74.6366 L 32.7474,74.5097 L 32.7467,74.3826 L 32.7462,74.2555 L 32.7459,74.129 L 32.7453,74.0017 L 32.745,73.8746 L 32.7442,73.7476 L 32.7437,73.6209 L 32.7432,73.4938 L 32.7424,73.3669 L 32.7419,73.2396 L 32.7416,73.1129 L 32.7408,72.9858 L 32.7401,72.8589 L 32.7398,72.7316 L 32.7394,72.6051 L 32.7387,72.4783 L 32.738,72.3508 L 32.7377,72.2241 L 32.7374,72.0972 L 32.7367,71.9703 L 32.7359,71.843 L 32.7354,71.7161 L 32.7347,71.5896 L 32.734,71.4623 L 32.7337,71.3355 L 32.7332,71.2082 L 32.7326,71.0817 L 32.7342,69.8767 L 32.7362,68.7798 L 32.7393,66.6798 L 32.7409,65.5883 L 32.7415,65.0791 L 32.7435,63.8 L 32.7439,63.4827 L 32.7441,63.261 L 32.7455,62.3968 L 32.7487,60.286 L 32.7504,59.2053 L 32.7536,57.0893 L 32.7554,56.0138 L 32.7574,54.76 L 54.9801,54.724" />
    <path
       style="fill:#e8e9d6;fill-opacity:1;fill-rule:evenodd;stroke-width:0.25592600999999998;stroke-miterlimit:4;stroke-dasharray:none"
       id="path44"
       d="M 120.201,78.2058 L 120.448,78.1849 L 120.713,78.1823 L 120.979,78.1798 L 121.244,78.1762 L 121.51,78.1773 L 121.776,78.1738 L 122.033,78.2204 L 122.185,78.4201 L 122.367,78.5944 L 122.607,78.6988 L 122.86,78.7732 L 123.115,78.8421 L 123.375,78.8889 L 123.638,78.9265 L 123.901,78.9647 L 124.161,79.0143 L 124.42,79.0715 L 124.681,79.1131 L 124.945,79.1264 L 125.211,79.1232 L 125.478,79.1189 L 125.743,79.1308 L 126.008,79.1549 L 126.273,79.1608 L 126.539,79.151 L 126.801,79.1094 L 127.063,79.0666 L 127.327,79.0638 L 127.593,79.0833 L 127.858,79.1173 L 128.121,79.1423 L 128.384,79.1227 L 128.646,79.0733 L 128.909,79.0426 L 129.174,79.0265 L 129.44,79.0143 L 129.706,79.0081 L 129.97,78.9888 L 130.234,78.9612 L 130.497,78.923 L 130.757,78.8722 L 131.015,78.8133 L 131.273,78.7518 L 131.52,78.6658 L 131.756,78.5536 L 131.989,78.4351 L 132.221,78.3166 L 132.485,78.2708 L 132.711,78.1539 L 132.914,77.9926 L 133.128,77.8417 L 133.356,77.7258 L 133.622,77.7564 L 133.887,77.7688 L 134.153,77.7738 L 134.377,77.7699 L 134.419,77.7691 L 134.69,77.7692 L 134.91,77.6364 L 135.109,77.5132 L 135.167,77.5406 L 135.345,77.6258 L 135.489,77.7093 L 135.909,77.9591 L 138.077,79.2515 L 138.413,79.4444 L 141.365,81.1385 L 144.255,82.7814 L 146.242,83.9409 L 147.157,84.475 L 147.265,84.5384 L 148.225,85.0977 L 150.204,86.2565 L 151.985,87.2983 L 152.956,87.8573 L 153.148,87.9678 L 153.545,88.1959 L 154.074,88.5003 L 156.103,89.6658 L 158.513,91.0489 L 159.067,91.3499 L 159.64,91.6608 L 159.886,91.7535 L 160.055,91.9501 L 160.108,92.178 L 160.045,92.422 L 160.172,92.6248 L 160.354,92.8148 L 160.532,93.0001 L 160.665,93.2058 L 160.773,93.4263 L 160.933,93.6227 L 161.081,93.8263 L 161.25,94.0131 L 161.45,94.1741 L 161.657,94.3288 L 161.863,94.484 L 162.081,94.6249 L 162.257,94.805 L 162.377,95.0231 L 162.541,95.2149 L 162.772,95.3339 L 163.036,95.3621 L 163.29,95.4364 L 163.518,95.5628 L 163.772,95.6289 L 164.007,95.7462 L 164.218,95.8963 L 164.3,96.1222 L 164.376,96.3568 L 164.467,96.5867 L 164.591,96.801 L 164.748,96.9994 L 164.888,97.2084 L 164.914,97.4493 L 164.985,97.6845 L 165.074,97.9147 L 165.182,98.1379 L 165.307,98.3531 L 165.481,98.5382 L 165.683,98.6975 L 165.92,98.8093 L 166.179,98.8943 L 166.403,98.8038 L 166.638,98.7109 L 166.897,98.7761 L 167.113,98.9212 L 167.276,99.1123 L 167.393,99.3332 L 167.433,99.4102 L 167.498,99.5346 L 167.508,99.5533 L 167.604,99.7807 L 167.736,99.9958 L 167.979,100.088 L 168.24,100.138 L 168.259,100.14 L 168.504,100.174 L 168.771,100.165 L 169.037,100.175 L 169.299,100.226 L 169.542,100.334 L 169.744,100.488 L 169.806,100.723 L 169.995,100.899 L 170.148,101.096 L 170.282,101.314 L 170.533,101.362 L 170.797,101.404 L 171.056,101.465 L 171.316,101.522 L 171.577,101.571 L 171.848,101.573 L 172.064,101.696 L 172.295,101.81 L 172.554,101.873 L 172.806,101.96 L 172.954,102.157 L 173.079,102.378 L 173.21,102.589 L 173.454,102.676 L 173.717,102.68 L 173.925,102.838 L 174.12,103.004 L 174.254,103.211 L 174.275,103.36 L 174.501,103.501 L 174.733,103.603 L 174.992,103.664 L 175.191,103.821 L 175.406,103.962 L 175.616,104.112 L 175.797,104.3 L 175.983,104.383 L 176.236,104.281 L 176.464,104.283 L 176.662,104.155 L 176.918,104.077 L 177.177,104.108 L 177.413,104.225 L 177.596,104.407 L 177.831,104.506 L 178.067,104.612 L 178.333,104.633 L 178.474,104.831 L 178.705,104.95 L 178.816,105.146 L 179.021,105.291 L 179.284,105.29 L 179.442,105.388 L 179.581,105.533 L 179.748,105.724 L 179.929,105.907 L 180.153,105.996 L 180.423,106 L 180.693,105.985 L 180.912,106.043 L 181.139,106.102 L 181.399,106.025 L 181.65,106.056 L 181.894,106.168 L 182.14,106.261 L 182.301,106.456 L 182.513,106.602 L 182.753,106.709 L 182.969,106.852 L 183.192,106.991 L 183.341,107.165 L 183.566,107.274 L 183.818,107.367 L 183.943,107.58 L 184.185,107.676 L 184.439,107.752 L 184.686,107.848 L 184.855,108.029 L 185.102,108.103 L 185.217,108.289 L 185.349,108.401 L 185.401,108.445 L 185.545,108.646 L 185.645,108.816 L 185.666,121.036 L 185.67,123.636 L 185.016,124.128 L 178.48,129.038 L 169.022,136.116 L 168.805,136.278 L 152.741,148.226 L 152.74,148.292 L 152.734,149.969 L 152.69,160.95 L 152.67,166.048 L 152.668,170.587 L 152.65,170.633 L 152.591,170.784 L 152.592,170.827 L 152.697,171.264 L 152.614,171.443 L 152.503,171.658 L 152.423,171.691 L 152.262,171.757 L 152.11,171.86 L 152.089,172.044 L 151.652,171.889 L 151.753,171.746 L 151.864,171.556 L 151.969,171.295 L 151.839,171.169 L 151.684,170.951 L 151.485,170.866 L 151.31,170.852 L 150.999,170.783 L 150.981,170.615 L 151.194,170.481 L 151.09,170.175 L 150.987,170.069 L 150.986,169.911 L 151.006,169.727 L 151.178,169.364 L 151.358,169.23 L 151.429,169.031 L 151.376,168.852 L 151.46,168.689 L 151.576,168.479 L 151.412,168.424 L 151.254,168.435 L 151.057,168.427 L 151.027,168.233 L 151.001,167.902 L 151.157,167.651 L 151.076,167.458 L 150.934,167.362 L 151.034,167.178 L 151.128,166.968 L 151.057,166.617 L 150.955,166.324 L 151.144,166.295 L 151.166,166.142 L 151.056,166.081 L 150.876,165.981 L 150.618,166.09 L 150.371,166.194 L 150.201,166.195 L 149.953,166.136 L 149.784,166.132 L 149.604,166.255 L 149.478,166.047 L 149.442,165.803 L 149.334,165.676 L 149.264,165.437 L 149.144,165.328 L 148.882,165.313 L 148.655,165.225 L 148.696,164.972 L 148.701,164.724 L 148.454,164.683 L 148.49,164.454 L 148.591,164.253 L 148.363,164.226 L 148.128,164.265 L 147.921,164.094 L 147.802,163.883 L 147.796,163.639 L 147.643,163.478 L 147.46,163.412 L 147.558,163.172 L 147.709,162.962 L 147.662,162.736 L 147.387,162.707 L 147.373,162.47 L 147.139,162.332 L 146.787,162.216 L 146.728,162.028 L 146.471,161.939 L 146.28,161.802 L 146.119,161.61 L 146.102,161.359 L 145.921,161.212 L 145.666,161.157 L 145.453,161.089 L 145.445,160.849 L 145.359,160.746 L 145.328,160.709 L 145.065,160.825 L 144.823,160.836 L 144.696,160.644 L 144.79,160.403 L 144.931,160.209 L 144.933,160.003 L 144.675,160.077 L 144.429,160.175 L 144.163,160.229 L 143.925,160.193 L 143.823,159.962 L 143.687,159.753 L 143.492,159.587 L 143.345,159.382 L 143.197,159.175 L 142.984,159.033 L 142.77,158.877 L 142.868,158.701 L 142.665,158.545 L 142.408,158.564 L 142.192,158.709 L 141.982,158.6 L 142.05,158.36 L 142.154,158.127 L 142.235,157.898 L 142.132,157.691 L 141.967,157.626 L 142.044,157.398 L 142.212,157.206 L 142.387,157.016 L 142.177,156.955 L 141.94,156.87 L 141.774,156.667 L 141.554,156.558 L 141.292,156.492 L 141.066,156.361 L 140.826,156.253 L 140.579,156.152 L 140.383,155.99 L 140.229,155.788 L 140.082,155.584 L 139.908,155.392 L 139.674,155.296 L 139.4,155.273 L 139.137,155.222 L 138.876,155.16 L 138.621,155.075 L 138.441,154.907 L 138.419,154.659 L 138.281,154.463 L 138.125,154.257 L 137.894,154.199 L 137.624,154.243 L 137.421,154.106 L 137.24,153.91 L 137.062,153.717 L 136.867,153.569 L 136.594,153.583 L 136.342,153.494 L 136.08,153.506 L 135.817,153.48 L 135.728,153.26 L 135.483,153.158 L 135.285,152.995 L 135.024,152.931 L 134.953,152.692 L 134.697,152.662 L 134.878,152.354 L 135.15,152.295 L 135.03,152.11 L 134.765,152.042 L 134.593,151.901 L 134.493,151.78 L 134.255,151.674 L 134.194,151.433 L 134.018,151.376 L 133.774,151.482 L 133.507,151.469 L 133.247,151.395 L 133.01,151.26 L 132.772,151.266 L 132.52,151.331 L 132.256,151.24 L 132.245,151.027 L 132.517,150.913 L 132.393,150.785 L 132.208,150.578 L 132.016,150.524 L 131.755,150.64 L 131.614,150.708 L 131.507,150.605 L 131.481,150.519 L 131.445,150.398 L 131.405,150.401 L 131.029,150.424 L 130.757,150.404 L 130.496,150.341 L 130.242,150.26 L 129.981,150.193 L 129.765,150.053 L 129.537,149.898 L 129.306,149.805 L 129.357,150.049 L 129.094,150.06 L 128.891,150.191 L 128.794,150.425 L 128.568,150.393 L 128.406,150.194 L 128.142,150.096 L 127.971,149.946 L 127.98,149.687 L 128.026,149.601 L 128.095,149.471 L 128.239,149.262 L 128.32,149.03 L 128.376,148.791 L 128.088,148.875 L 128.032,148.672 L 128.133,148.441 L 128.048,148.273 L 127.738,148.49 L 127.711,148.262 L 127.742,148.178 L 127.797,148.03 L 127.839,147.915 L 127.916,147.7 L 127.68,147.831 L 127.48,147.745 L 127.343,147.677 L 127.175,147.871 L 127.05,147.824 L 126.931,147.779 L 126.841,147.552 L 126.815,147.307 L 126.815,147.061 L 126.821,146.815 L 126.81,146.573 L 126.71,146.353 L 126.549,146.155 L 126.335,146.006 L 126.18,145.808 L 126.034,145.592 L 126.144,145.39 L 126.298,145.179 L 126.274,144.957 L 126.082,144.773 L 126.198,144.581 L 126.465,144.543 L 126.546,144.358 L 126.39,144.145 L 126.209,143.954 L 126.19,143.745 L 125.962,143.643 L 125.709,143.664 L 125.753,143.45 L 125.994,143.321 L 126.187,143.157 L 126.056,142.989 L 125.794,142.902 L 125.541,142.82 L 125.292,142.723 L 125.041,142.64 L 124.774,142.667 L 124.518,142.744 L 124.313,142.918 L 124.082,142.975 L 123.96,142.792 L 124.061,142.547 L 124.163,142.32 L 124.014,142.165 L 123.952,142.242 L 123.841,142.381 L 123.619,142.491 L 123.339,142.433 L 123.212,142.241 L 123.225,141.987 L 123.397,141.804 L 123.644,141.695 L 123.793,141.493 L 123.802,141.225 L 123.582,141.219 L 123.297,141.303 L 123.192,141.144 L 123.146,140.88 L 123.131,140.648 L 123.251,140.423 L 123.145,140.216 L 122.87,140.193 L 122.652,140.307 L 122.462,140.487 L 122.233,140.615 L 121.965,140.644 L 121.781,140.47 L 121.661,140.327 L 121.618,140.277 L 121.379,140.165 L 121.155,140.016 L 121.32,139.873 L 121.559,139.76 L 121.776,139.624 L 121.891,139.405 L 121.889,139.156 L 122.029,138.969 L 122.175,138.897 L 122.267,138.728 L 122.021,138.667 L 121.961,138.652 L 121.861,138.433 L 121.654,138.517 L 121.537,138.744 L 121.358,138.868 L 121.26,138.632 L 121.247,138.602 L 121.162,138.405 L 121.073,138.174 L 121.014,137.932 L 121.049,137.678 L 120.79,137.562 L 120.616,137.399 L 120.365,137.327 L 120.509,137.117 L 120.601,136.908 L 120.409,136.783 L 120.297,136.789 L 120.132,136.797 L 119.865,136.824 L 119.622,136.728 L 119.39,136.605 L 119.16,136.476 L 118.925,136.355 L 118.763,136.21 L 118.746,135.996 L 118.471,136.026 L 118.205,136.094 L 118.072,135.958 L 118.158,135.707 L 118.268,135.485 L 118.408,135.276 L 118.568,135.071 L 118.518,134.828 L 118.325,134.9 L 118.236,135.131 L 118.053,135.308 L 117.796,135.372 L 117.672,135.154 L 117.58,134.924 L 117.502,134.69 L 117.449,134.451 L 117.38,134.214 L 117.296,133.976 L 117.167,133.772 L 116.991,133.558 L 116.689,133.641 L 116.446,133.554 L 116.199,133.428 L 115.967,133.306 L 115.741,133.166 L 115.506,133.01 L 115.748,132.789 L 115.808,132.59 L 115.582,132.45 L 115.539,132.208 L 115.294,132.111 L 115.086,131.961 L 114.971,131.729 L 114.949,131.506 L 115.086,131.431 L 115.04,131.242 L 114.861,131.035 L 114.734,130.821 L 114.66,130.621 L 115.051,130.434 L 115.068,130.267 L 114.838,130.203 L 114.81,130.195 L 114.549,130.283 L 114.316,130.204 L 114.088,130.061 L 113.83,129.983 L 113.602,129.873 L 113.483,129.705 L 113.455,129.665 L 113.332,129.434 L 113.275,129.368 L 113.181,129.261 L 112.924,129.343 L 112.798,129.559 L 112.667,129.778 L 112.526,129.988 L 112.328,130.142 L 112.063,130.221 L 111.851,130.144 L 111.855,129.875 L 111.813,129.809 L 111.762,129.729 L 111.678,129.728 L 111.471,129.727 L 111.229,129.607 L 111.176,129.399 L 111.326,129.224 L 111.176,129.007 L 110.942,129.098 L 110.714,129.243 L 110.506,129.308 L 110.395,129.193 L 110.308,129.138 L 110.248,129.099 L 110.152,129.214 L 109.951,129.386 L 109.725,129.272 L 109.485,129.152 L 109.233,129.067 L 108.979,128.983 L 108.729,128.891 L 108.654,128.667 L 108.59,128.586 L 108.546,128.531 L 108.3,128.622 L 108.025,128.627 L 107.878,128.448 L 108.088,128.198 L 108.012,128.028 L 107.735,128.068 L 107.616,128.287 L 107.504,128.387 L 107.338,128.343 L 107.313,128.077 L 107.427,127.869 L 107.727,127.626 L 107.839,127.386 L 107.71,127.247 L 107.435,127.189 L 107.174,127.135 L 106.913,127.178 L 106.648,127.209 L 106.384,127.163 L 106.135,127.062 L 105.878,127.025 L 105.607,127.084 L 105.376,127.005 L 105.17,126.836 L 104.907,126.789 L 104.655,126.714 L 104.709,126.538 L 104.822,126.323 L 104.653,126.152 L 104.426,126.005 L 104.187,125.889 L 103.941,125.797 L 103.831,125.575 L 103.791,125.332 L 103.745,125.236 L 103.687,125.118 L 103.433,125.193 L 103.254,125.075 L 103.213,124.851 L 102.971,124.727 L 102.788,124.72 L 102.717,124.718 L 102.459,124.803 L 102.203,124.734 L 101.948,124.653 L 101.747,124.654 L 101.693,124.654 L 101.425,124.653 L 101.371,124.613 L 101.216,124.501 L 100.962,124.434 L 100.727,124.325 L 100.49,124.193 L 100.403,123.991 L 100.33,123.761 L 100.129,123.597 L 99.984,123.394 L 99.7842,123.269 L 99.534,123.245 L 99.3797,123.23 L 99.1455,123.111 L 98.9082,122.998 L 98.702,122.843 L 98.5819,122.69 L 98.7046,122.505 L 98.4528,122.397 L 98.1875,122.356 L 97.9159,122.323 L 97.6769,122.24 L 97.5254,122.121 L 97.3007,122.276 L 97.0428,122.236 L 96.8512,122.069 L 96.6829,121.934 L 96.6754,121.68 L 96.6846,121.433 L 96.6798,121.192 L 96.5186,120.995 L 96.2854,120.875 L 96.0242,120.828 L 95.7564,120.857 L 95.4763,120.798 L 95.2913,120.684 L 95.4928,120.502 L 95.7437,120.39 L 95.9447,120.255 L 95.8448,120.028 L 95.6034,119.921 L 95.3586,119.812 L 95.1286,119.687 L 94.9527,119.506 L 94.7947,119.303 L 94.6124,119.132 L 94.3581,119.057 L 94.0964,118.99 L 93.8515,118.898 L 93.6834,118.705 L 93.4326,118.616 L 93.2516,118.452 L 93.0781,118.281 L 92.8136,118.216 L 92.7066,118.008 L 92.6834,117.764 L 92.5147,117.599 L 92.2379,117.611 L 91.9762,117.556 L 91.8194,117.385 L 92.0747,117.315 L 92.1425,117.078 L 92.1957,116.881 L 91.9336,116.788 L 91.6922,116.688 L 91.4195,116.672 L 91.3207,116.447 L 91.0991,116.402 L 90.8361,116.46 L 90.5738,116.399 L 90.3755,116.254 L 90.3094,116.007 L 90.232,115.769 L 90.0118,115.664 L 89.7693,115.559 L 89.5334,115.443 L 89.3242,115.315 L 89.2013,115.226 L 89.0472,115.037 L 89.0858,114.789 L 88.9635,114.577 L 88.7548,114.415 L 88.5255,114.469 L 88.4026,114.243 L 88.4175,114.003 L 88.3309,113.788 L 88.1953,113.575 L 87.9951,113.451 L 87.798,113.612 L 87.6333,113.817 L 87.4575,113.739 L 87.2694,113.559 L 87.0427,113.426 L 86.8418,113.279 L 86.8101,113.036 L 86.6676,112.829 L 86.6525,112.586 L 86.6165,112.394 L 86.336,112.417 L 86.1525,112.283 L 86.1615,112.188 L 97.845,100.548 L 98.4494,99.9438 L 100.11,98.2829 L 113.53,84.8948 L 120.201,78.2058" />
    <path
       style="fill:#e8e9d6;fill-opacity:1;fill-rule:evenodd;stroke-width:0.25592600999999998;stroke-miterlimit:4;stroke-dasharray:none"
       id="path46"
       d="M 185.645,108.816 L 185.83,109.034 L 185.991,109.228 L 186.124,109.439 L 186.375,109.434 L 186.621,109.329 L 186.851,109.414 L 187.084,109.531 L 187.341,109.6 L 187.546,109.756 L 187.682,109.848 L 187.872,109.969 L 188.086,110.118 L 188.281,110.283 L 188.391,110.505 L 188.55,110.7 L 188.77,110.837 L 188.988,110.979 L 189.179,111.159 L 189.399,111.257 L 189.662,111.258 L 189.9,111.286 L 190.156,111.277 L 190.412,111.225 L 190.637,111.34 L 190.889,111.341 L 191.157,111.288 L 191.421,111.276 L 191.664,111.381 L 191.924,111.429 L 192.192,111.416 L 192.45,111.336 L 192.706,111.288 L 192.973,111.354 L 193.149,111.523 L 193.268,111.749 L 193.363,111.978 L 193.434,112.214 L 193.481,112.446 L 193.629,112.634 L 193.725,112.865 L 193.962,112.925 L 194.22,112.855 L 194.454,112.739 L 194.666,112.792 L 194.852,112.943 L 194.901,113.158 L 195.075,113.325 L 195.142,113.562 L 195.209,113.567 L 195.368,113.582 L 195.408,113.586 L 195.666,113.665 L 195.923,113.7 L 196.177,113.62 L 196.431,113.535 L 196.692,113.486 L 196.949,113.533 L 197.184,113.638 L 197.451,113.604 L 197.702,113.613 L 197.947,113.722 L 198.202,113.657 L 198.45,113.565 L 198.679,113.472 L 198.844,113.474 L 199.023,113.351 L 199.272,113.264 L 199.537,113.229 L 199.808,113.229 L 200.045,113.323 L 200.26,113.469 L 200.52,113.524 L 200.786,113.565 L 201.047,113.615 L 201.295,113.706 L 201.541,113.802 L 201.786,113.901 L 202.032,113.994 L 202.285,114.071 L 202.542,114.127 L 202.545,114.128 L 202.911,114.226 L 203.147,114.339 L 203.406,114.398 L 203.656,114.484 L 203.919,114.504 L 204.16,114.394 L 204.394,114.278 L 204.662,114.258 L 204.907,114.343 L 205.125,114.486 L 205.32,114.652 L 205.521,114.812 L 205.741,114.953 L 205.927,115.124 L 206.091,115.318 L 206.222,115.532 L 206.264,115.77 L 206.422,115.968 L 206.585,116.161 L 206.621,116.402 L 206.505,116.622 L 206.446,116.847 L 206.597,117.042 L 206.858,117.111 L 207.1,117.21 L 207.335,117.331 L 207.463,117.542 L 207.592,117.758 L 207.778,117.932 L 207.929,118.123 L 208.005,118.36 L 208.081,118.594 L 208.255,118.74 L 208.303,127.29 L 208.34,133.759 L 208.369,138.729 L 203.542,138.744 L 202.3,138.774 L 200.476,138.782 L 198.329,138.79 L 198.333,142.168 L 185.744,133.857 L 178.48,129.038 L 185.016,124.128 L 185.67,123.636 L 185.666,121.036 L 185.645,108.816" />
    <path
       style="fill:#e8e9d6;fill-opacity:1;fill-rule:evenodd;stroke-width:0.25592600999999998;stroke-miterlimit:4;stroke-dasharray:none"
       id="path48"
       d="M 208.255,118.74 L 208.517,118.865 L 208.787,118.874 L 208.912,118.935 L 209.002,118.98 L 209.151,119.184 L 209.374,119.317 L 209.571,119.479 L 209.812,119.583 L 209.969,119.782 L 210.012,120.022 L 210.021,120.266 L 210.028,120.519 L 210.247,120.573 L 210.268,120.767 L 210.113,120.935 L 210.259,121.149 L 210.49,121.074 L 210.635,120.868 L 210.87,120.778 L 210.918,120.764 L 211.11,120.708 L 211.226,120.495 L 211.227,120.408 L 211.228,120.247 L 211.289,120.012 L 211.438,119.81 L 211.63,119.637 L 211.858,119.513 L 212.077,119.38 L 212.225,119.172 L 212.442,119.047 L 212.667,118.916 L 212.889,118.779 L 213.036,118.572 L 213.26,118.45 L 213.496,118.344 L 213.604,118.117 L 213.845,118.013 L 214.088,117.91 L 214.327,117.825 L 214.597,117.844 L 214.875,117.808 L 215.059,117.937 L 215.177,118.167 L 215.283,118.391 L 215.431,118.594 L 215.632,118.754 L 215.832,118.672 L 216.025,118.855 L 216.131,118.976 L 216.326,119.092 L 216.427,119.315 L 216.54,119.52 L 216.788,119.612 L 217.057,119.667 L 217.326,119.664 L 217.599,119.656 L 217.832,119.745 L 218.051,119.797 L 218.316,119.751 L 218.406,119.96 L 218.56,120.162 L 218.728,120.351 L 218.909,120.531 L 218.94,120.773 L 218.941,121.016 L 218.914,121.257 L 218.937,121.506 L 219.168,121.607 L 219.429,121.661 L 219.635,121.817 L 219.849,121.957 L 220.107,121.888 L 220.34,121.796 L 220.6,121.768 L 220.825,121.624 L 221.084,121.602 L 221.113,121.775 L 221.193,121.985 L 221.361,122.109 L 221.533,122.271 L 221.495,122.516 L 221.538,122.68 L 221.687,122.82 L 221.751,123.05 L 222.013,123.047 L 222.269,123.119 L 222.498,123.006 L 222.731,122.886 L 222.938,122.939 L 223.116,122.971 L 223.315,122.829 L 223.523,122.674 L 223.729,122.541 L 223.912,122.71 L 224.168,122.647 L 224.412,122.55 L 224.633,122.481 L 224.738,122.714 L 224.867,122.931 L 224.999,123.147 L 225.117,123.363 L 225.097,123.585 L 225.104,123.82 L 225.088,124.063 L 225.203,124.279 L 225.454,124.358 L 225.591,124.546 L 225.836,124.655 L 226.094,124.722 L 226.101,124.716 L 226.287,124.564 L 226.517,124.611 L 226.71,124.496 L 226.948,124.509 L 227.175,124.568 L 227.25,124.557 L 227.428,124.53 L 227.62,124.473 L 227.727,124.477 L 227.817,124.481 L 228.079,124.482 L 228.329,124.481 L 228.588,124.522 L 228.85,124.581 L 229.032,124.591 L 229.119,124.596 L 229.356,124.688 L 229.619,124.724 L 229.891,124.747 L 230.116,124.632 L 230.358,124.609 L 230.625,124.649 L 230.876,124.73 L 231.132,124.805 L 231.375,124.856 L 231.466,125.088 L 231.597,125.278 L 231.754,125.447 L 231.763,125.693 L 231.711,125.937 L 231.857,126.121 L 231.794,126.292 L 231.985,126.424 L 232.22,126.541 L 232.406,126.72 L 232.576,126.912 L 232.843,127.087 L 232.945,127.324 L 233.13,127.463 L 233.353,127.597 L 233.572,127.594 L 233.813,127.639 L 234.045,127.765 L 234.299,127.827 L 234.538,127.885 L 234.75,127.869 L 234.941,128.02 L 235.09,128.222 L 235.306,128.37 L 235.429,128.582 L 235.659,128.697 L 235.862,128.855 L 236.049,129.018 L 235.949,129.219 L 236.064,129.401 L 236.067,129.642 L 236.077,129.884 L 236.2,130.075 L 236.167,130.293 L 236.144,130.535 L 236.022,130.724 L 236.101,130.948 L 236.119,131.125 L 236.253,131.252 L 236.409,131.41 L 236.237,131.581 L 236.51,131.641 L 236.759,131.614 L 236.729,131.827 L 236.783,132.06 L 236.68,132.278 L 237.042,132.152 L 237.219,132.332 L 237.249,132.365 L 237.344,132.474 L 237.276,132.702 L 237.422,132.815 L 237.592,132.931 L 237.846,132.975 L 238.04,133.089 L 238.028,133.343 L 237.96,133.579 L 237.866,133.821 L 238.124,133.83 L 238.248,134.013 L 238.442,134.014 L 238.319,134.205 L 238.096,134.354 L 238.258,134.546 L 238.309,134.644 L 238.373,134.768 L 238.364,135.013 L 238.361,135.253 L 238.454,135.363 L 238.523,135.447 L 238.632,135.66 L 238.862,135.791 L 239.078,135.939 L 239.226,136.136 L 239.386,136.317 L 239.462,136.511 L 239.617,136.64 L 239.808,136.811 L 240.03,136.948 L 240.239,137.1 L 240.437,137.265 L 240.627,137.439 L 240.787,137.634 L 240.945,137.832 L 241.032,138.026 L 241.049,138.062 L 241.195,138.206 L 241.479,138.206 L 241.737,138.273 L 241.973,138.392 L 242.187,138.539 L 242.388,138.701 L 242.616,138.893 L 242.842,139.024 L 243.062,139.164 L 243.084,139.18 L 243.265,139.324 L 243.427,139.517 L 243.576,139.722 L 243.727,139.923 L 243.882,140.123 L 244.034,140.324 L 244.179,140.529 L 244.31,140.743 L 244.407,140.97 L 244.484,141.205 L 244.541,141.443 L 244.553,141.686 L 244.558,141.856 L 244.561,141.933 L 244.537,142.171 L 244.419,142.388 L 244.287,142.604 L 244.183,142.829 L 244.088,143.058 L 244.011,143.292 L 243.916,143.519 L 243.796,143.738 L 243.694,143.968 L 243.645,144.205 L 243.717,144.436 L 243.817,144.667 L 243.898,144.901 L 243.976,145.135 L 244.035,145.372 L 244.065,145.615 L 244.07,145.861 L 244.054,146.103 L 243.936,146.323 L 243.773,146.518 L 243.596,146.712 L 243.365,146.797 L 243.091,146.76 L 242.835,146.647 L 242.611,146.679 L 242.487,146.907 L 242.437,147.149 L 242.429,147.393 L 242.427,147.638 L 242.373,147.874 L 242.281,148.105 L 242.218,148.349 L 242.056,148.532 L 241.817,148.657 L 241.552,148.695 L 241.288,148.65 L 241.063,148.509 L 240.889,148.324 L 240.7,148.151 L 240.462,148.038 L 240.193,147.966 L 239.933,147.948 L 239.714,148.091 L 239.568,148.297 L 239.46,148.522 L 239.361,148.751 L 239.283,148.984 L 239.249,149.226 L 239.261,149.47 L 239.32,149.708 L 239.388,149.945 L 239.451,150.191 L 239.342,150.405 L 239.12,150.547 L 238.85,150.573 L 238.581,150.527 L 238.344,150.414 L 238.114,150.281 L 237.886,150.153 L 237.728,150.065 L 237.652,150.023 L 237.409,149.935 L 237.177,150.038 L 236.949,150.186 L 236.729,150.333 L 236.519,150.486 L 236.316,150.646 L 236.107,150.803 L 235.896,150.96 L 235.698,151.124 L 235.573,151.256 L 235.525,151.306 L 235.401,151.52 L 235.306,151.752 L 235.214,151.983 L 235.135,152.217 L 235.067,152.455 L 234.994,152.708 L 235.013,152.924 L 235.265,153.044 L 235.531,153.07 L 235.804,153.061 L 236.079,153.041 L 236.34,153.061 L 236.612,153.182 L 236.703,153.359 L 236.556,153.576 L 236.377,153.777 L 236.205,153.97 L 236.019,154.147 L 235.804,154.287 L 235.536,154.362 L 235.308,154.475 L 235.17,154.68 L 235.058,154.913 L 234.902,155.106 L 234.658,155.221 L 234.393,155.27 L 234.119,155.294 L 233.849,155.28 L 233.605,155.195 L 233.374,155.052 L 233.137,154.942 L 232.853,154.924 L 232.759,154.959 L 232.68,154.83 L 232.608,154.724 L 232.515,154.641 L 232.4,154.582 L 232.274,154.534 L 232.148,154.485 L 232.03,154.427 L 231.913,154.367 L 231.79,154.317 L 231.664,154.272 L 231.537,154.231 L 231.409,154.193 L 231.28,154.158 L 231.151,154.125 L 231.021,154.091 L 230.893,154.051 L 230.762,154.035 L 230.63,154.063 L 230.497,154.081 L 230.363,154.069 L 230.23,154.052 L 230.096,154.044 L 229.961,154.036 L 229.826,154.029 L 229.692,154.021 L 229.558,154.013 L 229.424,154.004 L 229.289,153.992 L 229.155,153.979 L 229.024,153.953 L 228.896,153.914 L 228.771,153.869 L 228.645,153.827 L 228.515,153.794 L 228.385,153.762 L 228.26,153.717 L 228.137,153.667 L 228.016,153.614 L 227.894,153.561 L 227.773,153.508 L 227.653,153.453 L 227.532,153.399 L 227.41,153.346 L 227.288,153.295 L 227.169,153.239 L 227.05,153.181 L 226.925,153.139 L 226.796,153.103 L 226.666,153.069 L 226.536,153.036 L 226.401,153.012 L 226.266,152.989 L 226.141,152.95 L 226.033,152.885 L 225.94,152.798 L 225.853,152.701 L 225.764,152.607 L 225.67,152.517 L 225.573,152.43 L 225.463,152.368 L 225.33,152.343 L 225.197,152.313 L 225.066,152.276 L 224.963,152.205 L 224.887,152.101 L 224.801,152.008 L 224.683,151.948 L 224.555,151.908 L 224.422,151.885 L 224.296,151.842 L 224.204,151.756 L 224.195,151.631 L 224.144,151.525 L 224.03,151.451 L 224.007,151.337 L 224.005,151.216 L 223.961,151.101 L 223.91,150.988 L 223.835,150.886 L 223.754,150.785 L 223.672,150.683 L 223.598,150.58 L 223.542,150.475 L 223.531,150.363 L 223.583,150.241 L 223.629,150.125 L 223.679,150.011 L 223.729,149.897 L 223.774,149.782 L 223.806,149.665 L 223.82,149.544 L 223.819,149.421 L 223.808,149.299 L 223.781,149.18 L 223.749,149.061 L 223.727,148.94 L 223.712,148.819 L 223.69,148.699 L 223.655,148.58 L 223.612,148.462 L 223.554,148.353 L 223.471,148.26 L 223.361,148.184 L 223.241,148.131 L 223.11,148.101 L 222.98,148.068 L 222.867,148.002 L 222.751,147.94 L 222.625,147.899 L 222.496,147.861 L 222.372,147.815 L 222.249,147.765 L 222.128,147.711 L 222.012,147.65 L 221.904,147.576 L 221.803,147.493 L 221.699,147.416 L 221.582,147.365 L 221.446,147.351 L 221.314,147.325 L 221.187,147.285 L 221.061,147.242 L 220.934,147.2 L 220.805,147.167 L 220.674,147.141 L 220.541,147.118 L 220.409,147.093 L 220.28,147.06 L 220.156,147.014 L 220.036,146.959 L 219.916,146.901 L 219.795,146.849 L 219.668,146.81 L 219.537,146.781 L 219.404,146.757 L 219.27,146.734 L 219.138,146.708 L 219.054,146.686 L 219.011,146.675 L 218.891,146.625 L 218.786,146.547 L 218.684,146.465 L 218.578,146.387 L 218.472,146.309 L 218.357,146.252 L 218.22,146.231 L 218.088,146.253 L 217.98,146.318 L 217.881,146.406 L 217.78,146.489 L 217.678,146.569 L 217.559,146.628 L 217.434,146.675 L 217.304,146.698 L 217.167,146.689 L 217.049,146.741 L 216.935,146.817 L 216.821,146.883 L 216.699,146.908 L 216.567,146.877 L 216.436,146.835 L 216.309,146.793 L 216.187,146.743 L 216.07,146.682 L 215.961,146.61 L 215.861,146.528 L 215.767,146.441 L 215.654,146.376 L 215.542,146.309 L 215.441,146.229 L 215.35,146.14 L 215.339,147.36 L 215.324,147.36 L 203.346,147.255 L 202.255,147.215 L 198.338,147.144 L 198.333,142.777 L 198.333,142.351 L 198.333,142.168 L 198.329,138.79 L 200.476,138.782 L 202.3,138.774 L 203.542,138.744 L 208.369,138.729 L 208.34,133.759 L 208.303,127.29 L 208.255,118.74" />
    <path
       style="fill:#e8e9d6;fill-opacity:1;fill-rule:evenodd;stroke-width:0.25592600999999998;stroke-miterlimit:4;stroke-dasharray:none"
       id="path50"
       d="M 198.333,142.168 L 198.333,142.351 L 198.333,142.777 L 198.338,147.144 L 198.34,149.645 L 198.348,155.738 L 198.339,155.737 L 192.363,155.766 L 184.135,155.796 L 184.135,155.891 L 184.126,163.8 L 184.126,163.988 L 184.125,164.917 L 184.126,166.402 L 184.127,173.799 L 181.984,173.819 L 181.982,174.562 L 181.974,178.233 L 181.965,182.547 L 181.851,182.517 L 181.669,182.448 L 181.505,182.44 L 181.345,182.284 L 180.805,182.133 L 180.617,182.073 L 180.369,182.122 L 180.194,182.135 L 179.967,182.112 L 179.814,182.078 L 179.665,181.978 L 179.483,181.914 L 179.25,181.8 L 178.931,181.686 L 178.746,181.78 L 178.493,181.89 L 178.171,181.93 L 178.013,181.932 L 177.837,181.888 L 177.694,181.818 L 177.517,181.698 L 177.374,181.577 L 177.26,181.482 L 177.127,181.33 L 176.979,181.22 L 176.807,181.105 L 176.452,180.803 L 176.267,180.453 L 176.103,180.455 L 175.939,180.467 L 175.646,180.521 L 175.592,180.354 L 175.618,180.144 L 175.773,179.913 L 175.313,179.786 L 175.007,179.718 L 174.678,179.661 L 174.508,179.647 L 174.191,179.6 L 174.24,179.451 L 174.454,179.413 L 174.553,179.244 L 174.483,179.041 L 174.679,178.916 L 174.637,178.749 L 174.488,178.623 L 174.282,178.421 L 173.862,178.686 L 173.71,178.728 L 173.457,178.77 L 173.309,178.794 L 173.013,178.965 L 172.833,179.141 L 172.66,179.27 L 172.605,179.449 L 172.557,179.643 L 172.356,179.819 L 172.069,179.914 L 171.871,179.952 L 171.499,180.012 L 171.33,180.08 L 171.185,180.199 L 170.989,180.323 L 170.779,180.346 L 170.503,180.415 L 170.153,180.5 L 169.877,180.585 L 169.55,180.644 L 169.286,180.724 L 169.02,180.803 L 168.636,180.817 L 168.29,180.734 L 168.012,180.624 L 167.761,180.505 L 167.551,180.405 L 167.375,180.32 L 167.237,180.184 L 167.2,179.914 L 167.096,179.772 L 166.914,179.631 L 166.945,179.896 L 166.834,180.05 L 166.6,179.874 L 166.426,179.942 L 166.282,180.275 L 166.085,180.323 L 165.937,180.237 L 165.711,180.26 L 165.703,180.26 L 165.491,180.262 L 165.411,180.263 L 165.135,180.342 L 164.799,180.07 L 164.581,179.843 L 164.494,179.721 L 164.362,179.534 L 164.226,179.369 L 164.195,179.332 L 163.931,179.177 L 163.728,178.974 L 163.703,178.77 L 163.603,178.657 L 163.566,178.614 L 163.802,178.472 L 163.804,178.214 L 163.828,177.826 L 163.876,177.668 L 163.999,177.483 L 164.071,177.299 L 163.95,177.167 L 163.624,177.313 L 163.581,177.059 L 163.521,176.738 L 163.455,176.448 L 163.397,176.26 L 163.328,176.128 L 163.235,175.951 L 163.15,175.801 L 163.123,175.754 L 163.114,175.737 L 163.022,175.585 L 162.93,175.433 L 162.86,175.266 L 162.818,175.088 L 162.782,174.889 L 162.581,174.585 L 162.449,174.387 L 162.678,174.166 L 162.719,173.824 L 162.915,173.674 L 163.067,173.581 L 162.975,173.46 L 162.821,173.318 L 162.712,173.182 L 162.525,173.138 L 162.489,172.99 L 162.34,172.762 L 162.061,172.576 L 161.913,172.415 L 161.624,172.381 L 161.404,172.334 L 161.398,172.332 L 161.037,172.341 L 160.867,172.319 L 160.737,172.303 L 160.63,172.349 L 160.557,172.381 L 160.451,172.494 L 160.333,172.592 L 160.074,172.661 L 159.946,172.774 L 159.736,172.643 L 159.538,172.681 L 159.351,172.641 L 159.383,172.448 L 159.141,172.47 L 158.944,172.513 L 158.707,172.556 L 158.542,172.526 L 158.295,172.402 L 158.19,172.254 L 158.019,172.143 L 158.001,172.142 L 157.861,172.134 L 157.646,172.142 L 157.393,172.236 L 157.207,172.237 L 157.132,172.075 L 156.866,172.056 L 156.512,172.141 L 156.365,172.224 L 156.19,172.195 L 155.952,172.105 L 155.827,172.102 L 155.762,172.1 L 155.63,172.097 L 155.484,172.149 L 155.32,172.105 L 155.191,171.953 L 155.167,171.798 L 155.152,171.698 L 155.233,171.402 L 155.063,171.281 L 154.842,171.161 L 154.652,171.179 L 154.56,171.188 L 154.356,171.18 L 154.293,171.043 L 153.965,170.974 L 153.544,171.133 L 153.423,171.009 L 153.259,170.959 L 153.004,170.915 L 152.992,170.752 L 152.854,170.585 L 152.668,170.587 L 152.67,166.048 L 152.69,160.95 L 152.734,149.969 L 152.74,148.292 L 152.741,148.226 L 168.805,136.278 L 169.022,136.116 L 178.48,129.038 L 185.744,133.857 L 198.333,142.168" />
    <path
       style="fill:#e8e9d6;fill-opacity:1;fill-rule:evenodd;stroke-width:0.25592600999999998;stroke-miterlimit:4;stroke-dasharray:none"
       id="path52"
       d="M 232.759,154.959 L 232.613,155.013 L 232.451,155.216 L 232.36,155.464 L 232.38,155.631 L 232.387,155.692 L 232.475,155.916 L 232.594,156.141 L 232.725,156.365 L 232.847,156.588 L 232.958,156.811 L 233.07,157.032 L 233.189,157.251 L 233.325,157.465 L 233.431,157.687 L 233.497,157.927 L 233.528,158.173 L 233.502,158.409 L 233.385,158.634 L 233.224,158.833 L 233.025,159.006 L 232.793,159.121 L 232.533,159.18 L 232.26,159.212 L 231.991,159.229 L 231.717,159.224 L 231.447,159.229 L 231.184,159.28 L 230.918,159.369 L 230.698,159.501 L 230.57,159.701 L 230.515,159.953 L 230.492,160.137 L 230.483,160.203 L 230.531,160.442 L 230.706,160.617 L 230.923,160.772 L 231.132,160.932 L 231.328,161.101 L 231.475,161.303 L 231.57,161.533 L 231.638,161.772 L 231.63,162.01 L 231.533,162.242 L 231.363,162.423 L 231.283,162.454 L 231.115,162.52 L 230.865,162.616 L 230.626,162.73 L 230.399,162.862 L 230.196,163.023 L 230.001,163.193 L 229.799,163.361 L 229.643,163.554 L 229.558,163.795 L 229.59,164.03 L 229.697,164.259 L 229.737,164.318 L 229.841,164.472 L 230.05,164.609 L 230.291,164.724 L 230.513,164.865 L 230.719,165.022 L 230.928,165.171 L 231.174,165.273 L 231.484,165.516 L 231.339,165.721 L 231.198,165.93 L 231.046,166.127 L 230.867,166.295 L 230.636,166.407 L 230.376,166.485 L 230.121,166.561 L 229.86,166.624 L 229.6,166.632 L 229.344,166.58 L 229.086,166.506 L 228.827,166.448 L 228.568,166.395 L 228.299,166.353 L 228.139,166.513 L 228.136,166.754 L 228.131,166.992 L 228.047,167.218 L 227.941,167.44 L 227.856,167.669 L 227.791,167.902 L 227.657,168.107 L 227.501,168.302 L 227.339,168.494 L 227.177,168.686 L 227.003,168.867 L 226.798,169.019 L 226.577,169.154 L 226.345,169.27 L 226.085,169.334 L 225.882,169.482 L 225.699,169.66 L 225.463,169.761 L 225.206,169.832 L 224.97,169.941 L 224.751,170.078 L 224.54,170.226 L 224.309,170.345 L 224.068,170.45 L 223.691,170.553 L 223.424,170.561 L 223.157,170.562 L 222.891,170.556 L 222.625,170.544 L 222.36,170.529 L 222.092,170.515 L 221.829,170.526 L 221.583,170.624 L 221.4,170.792 L 221.262,171.001 L 221.087,171.183 L 220.884,171.338 L 220.655,171.458 L 220.419,171.57 L 220.195,171.703 L 220.048,171.9 L 219.954,172.127 L 219.91,172.364 L 219.979,172.594 L 220.032,172.829 L 220.061,173.069 L 220.112,173.305 L 220.136,173.544 L 220.013,173.739 L 219.741,173.752 L 219.513,173.674 L 219.143,173.614 L 219.104,173.608 L 218.841,173.569 L 218.622,173.522 L 218.324,173.46 L 218.111,173.559 L 218.171,173.791 L 218.334,173.978 L 218.553,174.119 L 218.787,174.234 L 219.014,174.36 L 219.241,174.482 L 219.509,174.505 L 219.75,174.599 L 219.964,174.745 L 220.115,174.94 L 220.267,175.139 L 220.373,175.359 L 220.386,175.597 L 220.332,175.834 L 220.245,176.064 L 220.072,176.238 L 219.833,176.349 L 219.576,176.417 L 219.32,176.479 L 219.064,176.547 L 218.819,176.627 L 218.558,176.691 L 218.296,176.734 L 218.043,176.82 L 217.876,176.999 L 217.745,177.212 L 217.633,177.429 L 217.56,177.66 L 217.557,177.801 L 217.555,177.9 L 217.562,178.142 L 217.654,178.363 L 217.782,178.576 L 217.875,178.799 L 217.864,179.038 L 217.85,179.279 L 217.872,179.518 L 217.839,179.755 L 217.832,179.993 L 217.836,180.23 L 217.76,180.461 L 217.67,180.688 L 217.578,180.912 L 217.513,181.116 L 217.504,181.144 L 217.417,181.37 L 217.281,181.578 L 217.165,181.632 L 217.046,181.688 L 216.814,181.806 L 216.571,181.904 L 216.319,181.981 L 216.063,182.057 L 215.818,182.149 L 215.641,182.324 L 215.486,182.54 L 213.281,180.831 L 211.083,180.917 L 211.051,180.918 L 210.382,180.944 L 210.135,181.024 L 203.677,180.82 L 202.814,180.795 L 202.801,180.794 L 202.745,173.283 L 199.931,173.276 L 199.944,172.644 L 197.576,172.621 L 192.363,172.567 L 191.624,172.559 L 191.614,172.816 L 191.58,173.721 L 190.744,173.73 L 184.127,173.799 L 184.126,166.402 L 184.125,164.917 L 184.126,163.988 L 184.126,163.8 L 184.135,155.891 L 184.135,155.796 L 192.363,155.766 L 198.339,155.737 L 198.348,155.738 L 198.34,149.645 L 198.338,147.144 L 202.255,147.215 L 203.346,147.255 L 215.324,147.36 L 215.339,147.36 L 215.35,146.14 L 215.441,146.229 L 215.542,146.309 L 215.654,146.376 L 215.767,146.441 L 215.861,146.528 L 215.961,146.61 L 216.07,146.682 L 216.187,146.743 L 216.309,146.793 L 216.436,146.835 L 216.567,146.877 L 216.699,146.908 L 216.821,146.883 L 216.935,146.817 L 217.049,146.741 L 217.167,146.689 L 217.304,146.698 L 217.434,146.675 L 217.559,146.628 L 217.678,146.569 L 217.78,146.489 L 217.881,146.406 L 217.98,146.318 L 218.088,146.253 L 218.22,146.231 L 218.357,146.252 L 218.472,146.309 L 218.578,146.387 L 218.684,146.465 L 218.786,146.547 L 218.891,146.625 L 219.011,146.675 L 219.054,146.686 L 219.138,146.708 L 219.27,146.734 L 219.404,146.757 L 219.537,146.781 L 219.668,146.81 L 219.795,146.849 L 219.916,146.901 L 220.036,146.959 L 220.156,147.014 L 220.28,147.06 L 220.409,147.093 L 220.541,147.118 L 220.674,147.141 L 220.805,147.167 L 220.934,147.2 L 221.061,147.242 L 221.187,147.285 L 221.314,147.325 L 221.446,147.351 L 221.582,147.365 L 221.699,147.416 L 221.803,147.493 L 221.904,147.576 L 222.012,147.65 L 222.128,147.711 L 222.249,147.765 L 222.372,147.815 L 222.496,147.861 L 222.625,147.899 L 222.751,147.94 L 222.867,148.002 L 222.98,148.068 L 223.11,148.101 L 223.241,148.131 L 223.361,148.184 L 223.471,148.26 L 223.554,148.353 L 223.612,148.462 L 223.655,148.58 L 223.69,148.699 L 223.712,148.819 L 223.727,148.94 L 223.749,149.061 L 223.781,149.18 L 223.808,149.299 L 223.819,149.421 L 223.82,149.544 L 223.806,149.665 L 223.774,149.782 L 223.729,149.897 L 223.679,150.011 L 223.629,150.125 L 223.583,150.241 L 223.531,150.363 L 223.542,150.475 L 223.598,150.58 L 223.672,150.683 L 223.754,150.785 L 223.835,150.886 L 223.91,150.988 L 223.961,151.101 L 224.005,151.216 L 224.007,151.337 L 224.03,151.451 L 224.144,151.525 L 224.195,151.631 L 224.204,151.756 L 224.296,151.842 L 224.422,151.885 L 224.555,151.908 L 224.683,151.948 L 224.801,152.008 L 224.887,152.101 L 224.963,152.205 L 225.066,152.276 L 225.197,152.313 L 225.33,152.343 L 225.463,152.368 L 225.573,152.43 L 225.67,152.517 L 225.764,152.607 L 225.853,152.701 L 225.94,152.798 L 226.033,152.885 L 226.141,152.95 L 226.266,152.989 L 226.401,153.012 L 226.536,153.036 L 226.666,153.069 L 226.796,153.103 L 226.925,153.139 L 227.05,153.181 L 227.169,153.239 L 227.288,153.295 L 227.41,153.346 L 227.532,153.399 L 227.653,153.453 L 227.773,153.508 L 227.894,153.561 L 228.016,153.614 L 228.137,153.667 L 228.26,153.717 L 228.385,153.762 L 228.515,153.794 L 228.645,153.827 L 228.771,153.869 L 228.896,153.914 L 229.024,153.953 L 229.155,153.979 L 229.289,153.992 L 229.424,154.004 L 229.558,154.013 L 229.692,154.021 L 229.826,154.029 L 229.961,154.036 L 230.096,154.044 L 230.23,154.052 L 230.363,154.069 L 230.497,154.081 L 230.63,154.063 L 230.762,154.035 L 230.893,154.051 L 231.021,154.091 L 231.151,154.125 L 231.28,154.158 L 231.409,154.193 L 231.537,154.231 L 231.664,154.272 L 231.79,154.317 L 231.913,154.367 L 232.03,154.427 L 232.148,154.485 L 232.274,154.534 L 232.4,154.582 L 232.515,154.641 L 232.608,154.724 L 232.68,154.83 L 232.759,154.959" />
    <path
       style="fill:#e8e9d6;fill-opacity:1;fill-rule:evenodd;stroke-width:0.25592600999999998;stroke-miterlimit:4;stroke-dasharray:none"
       id="path54"
       d="M 184.127,173.799 L 190.744,173.73 L 191.58,173.721 L 191.614,172.816 L 191.624,172.559 L 192.363,172.567 L 197.576,172.621 L 199.944,172.644 L 199.931,173.276 L 202.745,173.283 L 202.801,180.794 L 202.814,180.795 L 203.677,180.82 L 210.135,181.024 L 210.382,180.944 L 211.051,180.918 L 211.083,180.917 L 213.281,180.831 L 215.486,182.54 L 215.386,182.747 L 215.321,182.98 L 215.3,183.166 L 215.293,183.22 L 215.31,183.458 L 215.374,183.692 L 215.411,183.931 L 215.513,184.15 L 215.627,184.493 L 215.732,184.714 L 215.887,184.904 L 216.096,185.055 L 216.329,185.173 L 216.564,185.286 L 216.668,185.502 L 216.548,185.71 L 216.353,185.882 L 216.118,185.967 L 215.846,185.947 L 215.58,185.933 L 215.313,185.947 L 215.045,185.983 L 214.815,186.095 L 214.778,186.319 L 214.933,186.519 L 215.157,186.651 L 215.347,186.819 L 215.537,186.986 L 215.673,187.194 L 215.711,187.43 L 215.738,187.673 L 215.687,187.899 L 215.54,188.105 L 215.397,188.308 L 215.351,188.664 L 215.367,188.905 L 215.485,189.119 L 215.635,189.318 L 215.799,189.507 L 215.995,189.67 L 216.205,189.818 L 216.415,189.968 L 216.606,190.134 L 216.717,190.353 L 216.767,190.588 L 216.791,190.828 L 216.856,191.058 L 216.951,191.283 L 217.031,191.514 L 217.042,191.745 L 216.86,191.927 L 216.673,192.099 L 216.487,192.27 L 216.317,192.459 L 216.277,192.693 L 216.352,192.922 L 216.46,193.143 L 216.59,193.351 L 216.754,193.542 L 216.884,193.751 L 216.859,193.979 L 216.722,194.19 L 216.537,194.364 L 216.289,194.453 L 216.023,194.482 L 215.757,194.468 L 215.501,194.4 L 215.262,194.292 L 215.008,194.219 L 214.784,194.089 L 214.525,194.026 L 214.257,194.037 L 214.029,194.154 L 214,194.357 L 213.995,194.391 L 214.029,194.629 L 214.041,194.868 L 214.032,195.109 L 214.022,195.348 L 214.018,195.588 L 214.02,195.681 L 214.023,195.828 L 214.029,196.068 L 214.027,196.308 L 214.01,196.547 L 213.982,196.786 L 213.965,197.025 L 213.948,197.267 L 213.973,197.501 L 214.096,197.717 L 214.217,197.93 L 214.338,198.143 L 214.353,198.383 L 214.299,198.619 L 214.188,198.838 L 214.018,199.023 L 213.778,199.124 L 213.51,199.148 L 213.254,199.092 L 212.996,199.033 L 212.729,199.061 L 212.518,199.204 L 212.248,199.475 L 212.113,199.689 L 212.112,199.914 L 212.266,200.118 L 212.477,200.266 L 212.694,200.444 L 212.626,200.714 L 212.406,200.871 L 212.187,201.01 L 211.987,201.167 L 211.807,201.345 L 211.604,201.509 L 211.353,201.569 L 211.081,201.566 L 210.821,201.509 L 210.568,201.412 L 210.357,201.463 L 210.43,201.693 L 210.566,201.9 L 210.675,202.119 L 210.76,202.347 L 210.837,202.576 L 210.914,202.82 L 210.93,203.06 L 210.925,203.3 L 210.899,203.541 L 210.802,203.761 L 210.632,203.948 L 210.41,204.082 L 210.145,204.109 L 209.877,204.086 L 209.618,204.025 L 209.352,203.992 L 208.99,203.848 L 208.999,203.625 L 209.008,203.431 L 209.01,203.232 L 208.823,203.028 L 208.719,203.044 L 208.628,203.059 L 208.472,203.176 L 208.368,203.451 L 208.329,203.644 L 208.268,203.847 L 208.133,203.722 L 208.065,203.535 L 207.961,203.361 L 207.923,203.352 L 207.784,203.316 L 207.578,203.344 L 207.408,203.29 L 207.316,203.105 L 207.432,202.889 L 207.636,202.867 L 207.806,202.793 L 207.9,202.513 L 207.911,202.316 L 207.905,202.114 L 207.806,201.949 L 207.541,201.956 L 207.517,202.151 L 207.497,202.361 L 207.344,202.438 L 207.183,202.329 L 207.191,202.042 L 207.25,201.854 L 207.309,201.665 L 207.346,201.461 L 207.223,201.335 L 206.952,201.408 L 206.921,201.6 L 206.919,201.798 L 206.915,201.997 L 206.762,202.198 L 206.583,202.106 L 206.425,201.985 L 206.323,201.814 L 206.406,201.651 L 206.521,201.487 L 206.485,201.205 L 206.383,201.034 L 206.238,200.893 L 206.093,200.962 L 205.998,201.145 L 205.803,201.356 L 205.611,201.395 L 205.413,201.386 L 205.217,201.346 L 205.109,201.128 L 205.154,200.932 L 205.168,200.734 L 205.021,200.492 L 204.859,200.378 L 204.675,200.285 L 204.512,200.332 L 204.453,200.524 L 204.556,200.796 L 204.674,200.975 L 204.499,201.115 L 204.302,201.124 L 204.109,201.087 L 203.922,201.024 L 203.741,200.944 L 203.574,200.822 L 203.614,200.67 L 203.774,200.534 L 203.909,200.282 L 203.789,200.15 L 203.591,200.133 L 203.393,200.142 L 203.124,200.149 L 202.933,199.959 L 202.791,199.855 L 202.59,199.715 L 202.457,199.569 L 202.356,199.352 L 202.301,199.149 L 202.264,198.976 L 202.067,198.811 L 201.965,199.088 L 201.766,199.055 L 201.749,198.775 L 201.689,198.638 L 201.442,198.77 L 201.296,198.854 L 201.146,198.7 L 201.154,198.519 L 201.218,198.33 L 201.015,198.078 L 200.601,198.136 L 200.466,197.893 L 200.362,197.752 L 200.304,197.614 L 200.302,197.61 L 200.22,197.468 L 200.045,197.231 L 199.873,197.112 L 199.796,196.96 L 199.725,196.798 L 199.699,196.63 L 199.616,196.266 L 199.473,196.098 L 199.498,195.909 L 199.598,195.765 L 199.418,195.564 L 199.18,195.578 L 198.925,195.592 L 198.698,195.585 L 198.477,195.558 L 198.218,195.394 L 198.097,195.278 L 197.806,195.196 L 197.762,195.171 L 197.6,195.077 L 197.433,194.932 L 197.328,194.78 L 197.284,194.7 L 197.187,194.527 L 197.044,194.417 L 196.736,194.371 L 196.553,194.38 L 196.453,194.385 L 196.256,194.444 L 196.254,194.443 L 196.053,194.248 L 195.888,194.189 L 195.767,194.049 L 195.645,193.892 L 195.45,193.753 L 194.903,193.613 L 194.831,193.415 L 194.907,193.205 L 194.807,192.971 L 194.737,192.611 L 194.718,192.463 L 194.669,192.311 L 194.622,192.212 L 194.581,192.129 L 194.473,191.779 L 194.298,191.491 L 193.997,191.459 L 193.794,191.539 L 193.7,191.652 L 193.394,191.667 L 193.147,191.787 L 193.019,191.906 L 192.738,191.912 L 192.487,191.924 L 192.079,191.971 L 191.88,191.913 L 191.764,191.746 L 191.692,191.569 L 191.596,191.223 L 191.667,191.049 L 191.313,190.585 L 191.303,190.376 L 191.256,190.224 L 191.14,190.098 L 191.036,189.987 L 190.846,189.834 L 190.639,189.621 L 190.756,189.476 L 190.584,189.397 L 190.426,189.399 L 190.199,189.387 L 190.081,189.098 L 189.767,188.919 L 189.696,188.782 L 189.714,188.507 L 189.447,188.454 L 189.198,188.463 L 189.001,188.537 L 188.786,188.57 L 188.523,188.562 L 188.304,188.556 L 188.077,188.478 L 187.78,188.349 L 187.575,188.255 L 187.409,188.181 L 187.203,188.025 L 187.087,187.885 L 187.097,187.446 L 187.083,187.298 L 187.081,187.15 L 187.01,186.963 L 186.9,186.806 L 186.789,186.609 L 186.639,186.391 L 186.495,186.312 L 186.269,186.315 L 186.094,186.322 L 185.802,186.203 L 185.548,186.156 L 185.382,186.077 L 185.16,185.967 L 185.005,185.862 L 184.844,185.691 L 184.79,185.529 L 184.652,185.403 L 184.441,185.314 L 184.291,185.158 L 184.132,185.058 L 183.988,184.957 L 183.885,184.842 L 183.704,184.708 L 183.581,184.591 L 183.443,184.414 L 183.228,184.101 L 183.145,183.862 L 182.965,183.548 L 182.84,183.142 L 182.729,182.94 L 182.547,182.753 L 182.522,182.728 L 182.357,182.664 L 182.147,182.595 L 181.965,182.547 L 181.974,178.233 L 181.982,174.562 L 181.984,173.819 L 184.127,173.799" />
  </g>
  <g
     style="font-size:34.375px;font-style:normal;font-weight:400;fill:#ffffff;fill-opacity:1;fill-rule:evenodd;stroke:none;stroke-width:1;stroke-linecap:square;stroke-linejoin:bevel;font-family:MS Shell Dlg 2"
     id="g56"
     font-style="normal"
     font-weight="400"
     font-size="34.375"
     transform="matrix(11.8081,0,0,11.8081,-384.43203,-101.09088)" />
  <g
     style="font-size:34.375px;font-style:normal;font-weight:400;fill:#ffffff;fill-opacity:1;fill-rule:evenodd;stroke:none;stroke-width:1;stroke-linecap:square;stroke-linejoin:bevel;font-family:MS Shell Dlg 2"
     id="g58"
     font-style="normal"
     font-weight="400"
     font-size="34.375"
     transform="matrix(11.8081,0,0,11.8081,-384.43203,-101.09088)" />
  <g
     style="font-size:34.375px;font-style:normal;font-weight:400;fill:none;fill-rule:evenodd;stroke:#000000;stroke-width:0.30000001;stroke-linecap:square;stroke-linejoin:bevel;stroke-opacity:1;font-family:MS Shell Dlg 2"
     id="g64"
     font-style="normal"
     font-weight="400"
     font-size="34.375"
     transform="matrix(11.8081,0,0,11.8081,-384.43203,-101.09088)" />
  <g
     style="font-size:34.375px;font-style:normal;font-weight:400;fill:none;fill-rule:evenodd;stroke:#000000;stroke-width:0.30000001;stroke-linecap:square;stroke-linejoin:bevel;stroke-opacity:1;font-family:MS Shell Dlg 2"
     id="g66"
     font-style="normal"
     font-weight="400"
     font-size="34.375"
     transform="translate(-396.24013,-112.89898)" />
  <g
     style="font-size:34.375px;font-style:normal;font-weight:400;fill:none;fill-rule:evenodd;stroke:#000000;stroke-width:1;stroke-linecap:square;stroke-linejoin:bevel;stroke-opacity:1;font-family:MS Shell Dlg 2"
     id="g68"
     font-style="normal"
     font-weight="400"
     font-size="34.375"
     transform="matrix(11.8081,0,0,11.8081,-384.43203,-101.09088)"
     vector-effect="non-scaling-stroke" />
  <g
     style="font-size:34.375px;font-style:normal;font-weight:400;fill:none;fill-rule:evenodd;stroke:#000000;stroke-width:1;stroke-linecap:square;stroke-linejoin:bevel;stroke-opacity:1;font-family:MS Shell Dlg 2"
     id="g70"
     font-style="normal"
     font-weight="400"
     font-size="34.375"
     transform="matrix(11.8081,0,0,11.8081,-384.43203,-101.09088)"
     vector-effect="non-scaling-stroke" />
  <g
     style="font-size:34.375px;font-style:normal;font-weight:400;fill:none;fill-rule:evenodd;stroke:#000000;stroke-width:1;stroke-linecap:square;stroke-linejoin:bevel;stroke-opacity:1;font-family:MS Shell Dlg 2"
     id="g72"
     font-style="normal"
     font-weight="400"
     font-size="34.375"
     vector-effect="non-scaling-stroke"
     transform="translate(-396.24013,-112.89898)" />
</svg>
