<?xml version="1.0" encoding="UTF-8"?>
<svg xmlns="http://www.w3.org/2000/svg" xmlns:xlink="http://www.w3.org/1999/xlink" width="800px" height="738px" viewBox="0 0 799 738" version="1.1">
<g id="surface1">
<path style="fill-rule:evenodd;fill:rgb(90.980392%,91.372549%,83.921569%);fill-opacity:1;stroke-width:0.255926;stroke-linecap:square;stroke-linejoin:bevel;stroke:rgb(0%,0%,0%);stroke-opacity:1;stroke-miterlimit:4;" d="M 54.636493 37.389591 L 54.978752 54.631339 L 54.979789 54.723535 L 32.757844 54.759792 L 32.758881 54.109239 L 32.758881 53.891697 L 32.759919 52.822634 L 32.764067 50.695903 L 32.765104 49.630983 L 32.769253 47.499073 L 32.77029 46.439333 L 32.773401 44.301207 L 32.775476 43.246647 L 32.778587 41.104377 L 32.780661 40.054997 L 32.78481 37.907548 L 32.785847 36.863346 L 32.788959 34.710718 L 32.791033 33.671696 L 32.794144 31.512852 L 32.796219 30.480046 L 32.79933 28.316022 L 32.801404 27.564985 L 32.801404 27.288396 L 32.802442 26.551861 L 32.804516 25.119192 L 32.80659 24.096745 L 32.808664 23.040113 L 32.810739 21.921327 L 32.810739 21.456201 L 32.815925 18.724497 L 32.816962 18.264551 L 32.82111 15.526631 L 32.822147 15.072901 L 32.826296 12.329801 L 32.825259 11.881251 L 32.81385 8.6896 L 33.213152 9.03456 L 33.356279 9.39195 L 33.540891 9.568055 L 33.928785 9.688221 L 34.251338 9.708939 L 34.471214 9.724478 L 34.834216 9.900583 L 35.061351 10.220681 L 35.122543 10.975862 L 35.459616 11.372617 L 36.008268 11.031801 L 36.329784 11.197547 L 36.469799 11.269026 L 36.552771 11.771444 L 37.087939 12.347412 L 37.319224 12.800106 L 37.604439 13.068408 L 37.632442 13.33153 L 37.432273 13.420618 L 37.210323 13.742788 L 37.082754 14.489681 L 36.45113 14.727942 L 36.22192 14.875041 L 36.470836 15.232432 L 36.581811 15.464476 L 36.845247 15.520416 L 37.050602 15.685126 L 37.106608 15.924422 L 37.279812 16.118138 L 37.612737 15.952392 L 38.097085 16.113994 L 38.204948 16.326356 L 38.43001 16.463097 L 38.592842 16.932366 L 39.024296 16.361578 L 39.264914 16.276633 L 39.286694 16.453774 L 39.533536 17.111579 L 39.327143 17.434784 L 38.761897 17.984854 L 38.648848 18.35364 L 38.755674 18.585684 L 39.135271 18.531817 L 39.338552 18.372286 L 39.548056 18.46759 L 39.83742 19.035271 L 39.278397 19.245561 L 39.046076 19.360548 L 39.457824 19.828781 L 39.855052 19.855715 L 40.202496 20.297014 L 40.571721 20.778714 L 40.895312 21.614696 L 41.052958 21.817735 L 41.247942 21.995912 L 41.445 22.173054 L 41.65969 22.329477 L 41.871268 22.491079 L 42.13263 22.568773 L 42.357691 22.709657 L 42.202119 22.810141 L 41.850526 22.856757 L 41.997801 23.016287 L 42.065215 23.259727 L 42.13989 23.502131 L 42.278868 23.730032 L 42.438589 23.665805 L 42.626313 23.635764 L 42.816111 23.820156 L 43.024578 23.984867 L 43.21645 24.166152 L 43.413508 24.337077 L 43.681093 24.400268 L 43.924823 24.516291 L 44.150921 24.658211 L 44.353165 24.831208 L 44.542963 25.013529 L 44.695424 25.224856 L 44.810547 25.452757 L 44.947451 25.659939 L 45.182884 25.526306 L 45.298007 25.737633 L 45.199478 25.963462 L 45.270004 26.208974 L 45.490917 26.356073 L 45.675529 26.540466 L 45.807247 26.764223 L 45.956597 26.97555 L 46.066534 27.20863 L 46.181658 27.438603 L 46.485542 27.201379 L 46.706455 27.296683 L 46.789427 27.538051 L 46.940851 27.749377 L 47.080866 27.966919 L 47.0176 28.203108 L 46.786315 28.133701 L 46.539474 27.990745 L 46.562291 28.208287 L 46.713715 28.424793 L 46.746904 28.673412 L 46.920108 28.872308 L 47.088126 29.072239 L 47.105757 29.178938 L 47.130649 29.330182 L 47.351561 29.223483 L 47.543434 29.343649 L 47.629517 29.588124 L 47.694858 29.788056 L 47.736344 29.86057 L 47.818278 30.000418 L 47.762272 30.244894 L 47.735306 30.490405 L 47.778867 30.735917 L 47.748789 30.987644 L 47.746715 31.242478 L 47.755012 31.497313 L 47.643 31.727286 L 47.618109 31.955187 L 47.890879 31.984193 L 48.135646 32.097107 L 48.33789 32.270105 L 48.355521 32.518724 L 48.361744 32.766308 L 48.185429 32.962095 L 48.241435 33.208643 L 48.333741 33.448975 L 48.445753 33.681019 L 48.61066 33.883023 L 48.764158 34.100565 L 49.010999 34.137857 L 49.213243 33.970039 L 49.445564 33.831227 L 49.560688 34.03841 L 49.71626 34.250772 L 49.73804 34.489032 L 49.920578 34.667209 L 50.137342 34.820525 L 50.321955 35.010097 L 50.540793 35.16652 L 50.730591 35.341589 L 50.822898 35.583993 L 50.928687 35.819145 L 51.143376 35.860582 L 51.164119 35.598496 L 51.366363 35.639932 L 51.569645 35.813966 L 51.925387 35.871977 L 52.150448 35.828469 L 52.293574 36.049118 L 52.395215 36.262516 L 52.648279 36.375431 L 53.028913 36.520459 L 53.396063 36.645805 L 53.674019 36.566039 L 53.89908 36.664451 L 54.101324 36.836413 L 54.29942 37.024949 L 54.519295 37.186552 L 54.636493 37.389591 " transform="matrix(3.766336,0,0,3.770826,-122.619238,-32.282592)"/>
<path style="fill-rule:evenodd;fill:rgb(90.980392%,91.372549%,83.921569%);fill-opacity:1;stroke-width:0.255926;stroke-linecap:square;stroke-linejoin:bevel;stroke:rgb(0%,0%,0%);stroke-opacity:1;stroke-miterlimit:4;" d="M 54.636493 37.389591 L 54.694573 37.637174 L 54.780656 37.877506 L 54.943489 38.081581 L 55.186182 38.183101 L 55.459989 38.389247 L 55.508735 38.640974 L 55.693347 38.829511 L 55.897665 38.999401 L 56.069832 39.198296 L 56.286596 39.349539 L 56.534475 39.455203 L 56.810356 39.451059 L 57.075866 39.623021 L 57.035417 39.851958 L 57.306113 39.915148 L 57.539472 39.956585 L 57.580958 39.964872 L 57.841282 40.037386 L 58.075677 40.162732 L 58.295553 40.316047 L 58.508168 40.481793 L 58.715598 40.648575 L 58.931325 40.816393 L 59.118012 41.001822 L 59.226912 41.225579 L 59.277733 41.479378 L 59.32233 41.733177 L 59.359667 41.984904 L 59.414636 42.233523 L 59.489311 42.479035 L 59.58784 42.717295 L 59.730966 42.935873 L 59.959139 43.070542 L 60.223612 43.146163 L 60.498456 43.167918 L 60.690329 43.347131 L 60.898796 43.512877 L 61.124894 43.655833 L 61.340621 43.814328 L 61.492045 44.020475 L 61.635171 44.236981 L 61.778298 44.454522 L 61.978467 44.62234 L 62.19212 44.780835 L 62.39229 44.955905 L 62.613202 45.106112 L 62.882861 45.136154 L 63.147334 45.065712 L 63.369284 44.930007 L 63.643091 44.963156 L 63.917935 44.960048 L 64.169962 45.059496 L 64.440658 45.084358 L 64.71654 45.085394 L 64.988272 45.130974 L 65.241337 45.23353 L 65.444618 45.360947 L 65.519293 45.496652 L 65.741242 45.639608 L 65.983935 45.764953 L 66.227665 45.883047 L 66.430946 46.057081 L 66.695419 46.004249 L 66.961966 46.06744 L 66.945372 46.306736 L 66.628004 46.496308 L 66.81884 46.667234 L 66.978561 46.873381 L 67.081238 47.108533 L 67.203622 47.33747 L 67.397569 47.514612 L 67.611221 47.676214 L 67.808279 47.874074 L 68.016746 47.865786 L 68.274996 47.835745 L 68.5208 47.955911 L 68.77905 48.044999 L 69.153461 48.15895 L 69.017595 48.302942 L 68.897285 48.531879 L 68.859948 48.786714 L 68.886914 49.035333 L 68.997889 49.271521 L 69.15761 49.476632 L 69.352594 49.657917 L 69.569358 49.813304 L 69.777824 49.973871 L 69.963474 50.156192 L 70.130455 50.360267 L 70.352405 50.581952 L 70.35759 50.741483 L 70.252838 50.907229 L 70.364851 51.063652 L 70.5505 51.119591 L 70.695701 51.062616 L 70.892759 51.118556 L 71.130266 51.313307 L 71.295173 51.348528 L 71.596983 51.219039 L 71.755667 51.294661 L 71.937168 51.29984 L 72.131114 51.284302 L 72.322987 51.315379 L 72.527305 51.524634 L 72.642429 51.651015 L 72.829115 51.767038 L 72.886159 51.812618 L 72.999208 51.901706 L 73.119517 52.050878 L 73.259532 52.176223 L 73.388139 52.281887 L 73.606977 52.36476 L 73.859004 52.432094 L 74.294606 52.443489 L 74.557005 52.740796 L 74.748877 52.771874 L 74.754063 52.619595 L 75.058985 52.418627 L 75.28612 52.551224 L 75.535036 52.558476 L 75.682311 52.60302 L 75.844106 52.556404 L 76.067093 52.490105 L 76.266226 52.516003 L 76.462247 52.582302 L 76.51929 52.731473 L 76.630265 52.867178 L 76.776503 52.978021 L 76.918592 53.032924 L 77.120836 53.104402 L 77.274334 53.148946 L 77.643559 53.189347 L 78.043898 53.291903 L 78.166282 53.437966 L 78.3343 53.585066 L 78.405863 53.784998 L 78.533432 53.94142 L 78.823834 54.01497 L 79.048895 54.113382 L 79.344483 54.202471 L 79.479312 54.302954 L 79.559172 54.5754 L 79.583027 54.733894 L 79.764528 54.769116 L 79.951215 54.966975 L 80.036261 55.092321 L 80.032112 55.2446 L 79.983366 55.3917 L 80.20739 55.468357 L 80.42208 55.530512 L 80.604618 55.713869 L 80.852497 55.908621 L 81.236242 56.406895 L 81.52042 56.53742 L 81.860605 56.637904 L 82.089815 56.719741 L 82.336656 56.818153 L 82.671655 56.892739 L 83.129038 56.731136 L 83.421514 56.78086 L 83.77207 56.89999 L 84.11744 57.000474 L 84.457625 57.106137 L 84.608012 57.252201 L 84.725209 57.413803 L 84.846556 57.604411 L 85.090286 57.611663 L 85.31431 57.6935 L 85.454325 57.829205 L 85.709463 57.999095 L 85.96149 58.092327 L 86.253966 58.089219 L 86.285081 58.38549 L 86.277821 58.624787 L 86.426133 58.852688 L 86.494585 58.594745 L 86.6346 58.353377 L 86.780838 58.46422 L 86.847215 58.644469 L 87.041162 58.847508 L 87.386532 58.932453 L 87.566996 59.028793 L 87.73294 59.231832 L 87.887475 59.424512 L 88.100091 59.551929 L 88.331375 59.781902 L 88.315818 59.934181 L 88.055493 59.938325 L 87.945556 60.139292 L 88.054456 60.392055 L 88.261886 60.69765 L 88.351081 60.873755 L 88.367675 61.057112 L 88.135354 61.245648 L 88.06379 61.432113 L 88.146762 61.6279 L 88.438201 61.716989 L 88.586513 61.95007 L 88.436127 62.16554 L 88.425755 62.343717 L 88.555399 62.469062 L 88.701637 62.574726 L 88.702674 62.722861 L 88.698525 62.8855 L 88.828169 62.990127 L 88.924624 63.120652 L 89.085382 63.333014 L 89.471201 63.591993 L 89.736711 63.767062 L 90.033336 64.075765 L 90.240765 64.390682 L 90.420192 64.706636 L 90.632807 65.01741 L 90.637993 65.237024 L 90.843349 65.420381 L 91.199091 65.749801 L 91.36296 66.034678 L 91.412743 66.433504 L 91.547572 66.783643 L 91.798562 67.146213 L 92.105558 67.479777 L 92.259056 67.728397 L 92.325434 67.888963 L 92.404257 68.078535 L 92.693622 68.308508 L 92.907274 68.523978 L 93.269239 68.446285 L 93.547195 68.426602 L 93.542009 68.635857 L 93.496375 68.869973 L 93.721436 68.951811 L 93.857302 68.867902 L 94.013912 68.835788 L 94.175707 68.763274 L 94.279422 68.602708 L 94.416325 68.483578 L 94.648647 68.499116 L 94.761696 68.389309 L 94.894451 68.240138 L 95.21493 68.231851 L 95.535409 68.469075 L 95.682684 68.559199 L 95.881816 68.589241 L 96.118286 68.656575 L 96.31327 68.819214 L 96.511365 69.078192 L 96.711535 69.277088 L 96.948005 69.542281 L 97.097354 69.765003 L 97.379459 69.985653 L 97.57548 70.137932 L 97.842027 70.327504 L 98.051531 70.347186 L 98.322227 70.389659 L 98.528619 70.537795 L 98.707009 70.734618 L 98.93933 70.950088 L 99.001559 70.993597 L 99.277441 71.187313 L 99.640443 71.24636 L 99.883135 71.338556 L 100.25962 71.331305 L 100.648551 71.30955 L 100.950361 71.255683 L 101.226243 71.292976 L 101.459601 71.455614 L 101.576799 71.656581 L 101.878609 71.551954 L 102.356735 71.506374 L 102.579722 71.467009 L 102.952058 71.42868 L 103.391809 71.57578 L 103.651096 71.643115 L 103.906235 71.658653 L 104.189376 71.64415 L 104.490149 71.600642 L 104.738028 71.62654 L 104.935086 71.742562 L 105.068878 71.913488 L 105.268011 72.177646 L 105.43188 72.248088 L 105.584341 72.383793 L 105.831182 72.486348 L 106.062466 72.338213 L 106.49392 72.347536 L 106.835142 72.268806 L 107.025977 72.364111 L 107.204367 72.383793 L 107.371348 72.566114 L 107.589149 72.733932 L 107.794504 72.661418 L 108.130541 72.786763 L 108.325524 72.729788 L 108.52362 72.590976 L 108.735198 72.595119 L 108.957148 72.554719 L 109.26933 72.504995 L 109.447719 72.666597 L 109.63648 72.6811 L 109.721526 72.815769 L 109.87295 72.991874 L 110.055488 72.9753 L 110.207949 73.111004 L 110.263955 73.310936 L 110.281587 73.709762 L 110.33137 73.980136 L 110.554357 74.189391 L 110.508722 74.422471 L 110.738969 74.560248 L 110.532577 74.790221 L 111.001368 74.973577 L 111.253395 74.842016 L 111.580097 74.87413 L 111.980436 75.060594 L 112.149491 75.186975 L 112.285358 75.066809 L 112.473082 75.126892 L 112.631765 75.161078 L 112.825712 75.211837 L 113.060108 75.369296 L 113.359844 75.344434 L 113.787149 75.379655 L 114.122148 75.279172 L 114.382472 75.081312 L 114.613756 74.912458 L 114.776588 74.81819 L 115.029653 74.67109 L 115.196634 74.644157 L 115.408212 74.627582 L 115.722468 74.720814 L 116.017018 74.915566 L 116.202668 75.031588 L 116.60197 75.064738 L 116.869554 75.212873 L 117.124693 75.463564 L 117.386054 75.697681 L 117.695124 76.026066 L 118.040495 76.145196 L 118.347491 76.150375 L 118.550772 76.201135 L 118.908588 76.335804 L 119.219733 76.512945 L 119.448943 76.733595 L 119.662595 77.069231 L 119.678152 77.329245 L 119.637704 77.570613 L 119.605552 77.814053 L 119.690598 77.99223 L 119.712378 78.034702 L 119.911511 78.171443 L 120.200875 78.205628 L 113.529936 84.894523 L 100.110271 98.282672 L 98.449796 99.944278 L 97.845138 100.548216 L 86.16166 112.187743 L 86.177217 112.029248 L 86.144029 111.786844 L 86.13988 111.543404 L 86.131583 111.299965 L 86.049648 111.068956 L 85.877481 110.861773 L 85.739541 110.671165 L 85.718798 110.429797 L 85.627529 110.232973 L 85.832884 110.063084 L 85.972899 109.859009 L 85.7105 109.876619 L 85.447065 109.922199 L 85.309124 109.729519 L 85.29253 109.484008 L 85.223041 109.294436 L 85.161849 109.136977 L 85.127623 108.895609 L 85.162886 108.652169 L 85.255192 108.431519 L 84.999017 108.374544 L 84.791587 108.319641 L 84.624606 108.514393 L 84.547857 108.718468 L 84.595566 108.957764 L 84.392285 109.094504 L 84.164112 108.978482 L 84.063509 108.740222 L 83.923493 108.592086 L 83.691172 108.689462 L 83.585383 108.467776 L 83.669392 108.242983 L 83.663169 108.022333 L 83.466111 107.896988 L 83.494114 107.649405 L 83.438108 107.41218 L 83.516931 107.190495 L 83.292907 107.055826 L 83.133186 106.86211 L 82.985911 106.653891 L 82.723513 106.647676 L 82.458003 106.64664 L 82.373994 106.417703 L 82.523343 106.216736 L 82.557569 105.971224 L 82.343916 105.843807 L 82.078406 105.813765 L 81.810822 105.810658 L 81.550498 105.771293 L 81.294322 105.697743 L 81.038146 105.63248 L 80.943766 105.409759 L 80.768488 105.287521 L 80.499866 105.200504 L 80.267545 105.221223 L 80.073598 105.402508 L 79.880688 105.575505 L 79.614141 105.56929 L 79.348631 105.5465 L 79.083121 105.524745 L 78.815537 105.522674 L 78.554175 105.583793 L 78.364377 105.745395 L 78.298 105.984691 L 78.178728 106.197053 L 77.943295 106.219844 L 77.947444 105.982619 L 78.092644 105.768185 L 77.989967 105.571362 L 77.742088 105.481237 L 77.476578 105.458447 L 77.211068 105.410795 L 76.954892 105.469842 L 76.702865 105.496776 L 76.451875 105.398364 L 76.182217 105.39422 L 75.93019 105.364179 L 75.732094 105.193253 L 75.50807 105.057548 L 75.330718 104.875228 L 75.112917 104.794426 L 74.848444 104.830683 L 74.588119 104.885587 L 74.325721 104.891802 L 73.908787 104.593459 L 73.646389 104.550987 L 73.388139 104.492975 L 73.299981 104.469149 L 73.131963 104.421497 L 72.87475 104.366594 L 72.60924 104.415282 L 72.37277 104.505406 L 72.195418 104.692907 L 71.992137 104.79339 L 71.794041 104.6235 L 71.657138 104.412174 L 71.687215 104.172878 L 71.622912 103.937726 L 71.536828 103.704645 L 71.447634 103.474672 L 71.298284 103.271633 L 71.191458 103.052019 L 71.100189 102.827226 L 70.913502 102.628331 L 70.700887 102.530955 L 70.453008 102.670803 L 70.276693 102.575499 L 70.158458 102.40043 L 69.947917 102.265761 L 69.721818 102.118661 L 69.545503 101.928053 L 69.501943 101.678398 L 69.440751 101.425635 L 69.246804 101.336546 L 68.968849 101.429778 L 68.782162 101.268176 L 68.746899 101.018521 L 68.616218 100.794763 L 68.425383 100.61555 L 68.171281 100.514031 L 67.915106 100.417691 L 67.671376 100.304776 L 67.478466 100.123491 L 67.302151 99.927703 L 67.15695 99.711198 L 67.067755 99.460506 L 67.061532 99.22121 L 67.007601 98.973627 L 66.989969 98.719828 L 66.887291 98.487783 L 66.720311 98.284744 L 66.524289 98.106567 L 66.279522 97.990545 L 66.064833 97.83205 L 65.882294 97.642478 L 65.711165 97.443582 L 65.500624 97.407325 L 65.365795 97.643514 L 65.045316 97.846553 L 64.765286 97.829978 L 64.527778 97.721207 L 64.27264 97.637298 L 63.852595 97.605185 L 63.751991 97.402146 L 63.695985 97.15767 L 63.628571 97.154562 L 63.430475 97.146275 L 63.191931 97.275764 L 63.004207 97.458085 L 62.739734 97.435295 L 62.502227 97.306842 L 62.458667 97.268513 L 62.302058 97.130736 L 62.12678 96.935985 L 61.943204 96.74952 L 61.7337 96.583774 L 61.554274 96.391094 L 61.438113 96.162157 L 61.294986 95.945651 L 61.1083 95.76333 L 60.963099 95.564435 L 60.945467 95.311672 L 60.858347 95.070304 L 60.731815 94.847582 L 60.630174 94.608286 L 60.739075 94.386601 L 60.776412 94.133838 L 60.740112 93.986738 L 60.714183 93.885219 L 60.556537 93.686323 L 60.324215 93.541295 L 60.093968 93.401447 L 59.845053 93.295784 L 59.582654 93.212911 L 59.316107 93.14454 L 59.060969 93.05338 L 58.815164 92.938393 L 58.543431 92.8607 L 58.295553 92.584111 L 58.208432 92.340671 L 58.133758 92.097231 L 58.035229 91.860007 L 57.914919 91.633142 L 57.796684 91.404205 L 57.686747 91.173196 L 57.523914 90.968085 L 57.356933 90.966014 L 57.459611 91.230172 L 57.533249 91.473611 L 57.603775 91.721195 L 57.6017 91.978101 L 57.455463 92.151099 L 57.194101 92.051651 L 56.991857 91.881761 L 56.946223 91.831002 L 56.81969 91.690117 L 56.573886 91.572023 L 56.347788 91.423888 L 56.209847 91.210489 L 56.067758 90.986732 L 55.829214 90.944259 L 55.873811 91.102754 L 55.898703 91.193915 L 55.977526 91.435283 L 55.697496 91.491222 L 55.533626 91.286111 L 55.424726 91.055102 L 55.382203 91.03542 L 55.428874 84.293693 L 55.428874 83.681468 L 55.4268 77.376897 L 55.359385 73.959418 L 55.342791 73.151405 L 55.335531 72.751542 L 54.988086 55.128578 L 54.979789 54.723535 L 54.978752 54.631339 L 54.636493 37.389591 " transform="matrix(3.766336,0,0,3.770826,-122.619238,-32.282592)"/>
<path style="fill-rule:evenodd;fill:rgb(90.980392%,91.372549%,83.921569%);fill-opacity:1;stroke-width:0.255926;stroke-linecap:square;stroke-linejoin:bevel;stroke:rgb(0%,0%,0%);stroke-opacity:1;stroke-miterlimit:4;" d="M 54.979789 54.723535 L 54.988086 55.128578 L 55.335531 72.751542 L 55.342791 73.151405 L 55.359385 73.959418 L 55.4268 77.376897 L 55.428874 83.681468 L 55.428874 84.293693 L 55.382203 91.03542 L 55.187219 90.944259 L 54.908226 90.923541 L 54.640641 90.86035 L 54.404172 90.735005 L 54.204002 90.551648 L 53.960272 90.519535 L 53.921897 90.77437 L 53.805737 90.963942 L 53.542301 90.895572 L 53.352503 90.54854 L 53.329686 90.317532 L 53.249825 90.076164 L 53.065213 89.887627 L 52.818371 89.783 L 52.554936 89.704271 L 52.337134 89.548884 L 52.149411 89.361383 L 52.090293 89.116908 L 51.977244 88.880719 L 51.743886 88.767805 L 51.470078 88.709794 L 51.199383 88.661106 L 50.938021 88.582376 L 50.684957 88.481893 L 50.426707 88.39384 L 50.16742 88.305787 L 49.917467 88.20116 L 49.689294 88.05924 L 49.48705 87.886242 L 49.406153 87.657305 L 49.413413 87.394183 L 49.244358 87.252263 L 48.967439 87.281268 L 48.778678 87.456338 L 48.554654 87.594114 L 48.279809 87.584791 L 48.013262 87.518493 L 47.740492 87.496739 L 47.488465 87.395219 L 47.239549 87.310274 L 47.015525 87.463589 L 46.820541 87.642802 L 46.56644 87.740178 L 46.346564 87.631407 L 46.333082 87.368285 L 46.259444 87.126917 L 46.036457 86.986033 L 45.761613 86.980853 L 45.73361 86.982925 L 45.486768 87.002608 L 45.213998 87.039901 L 44.941228 87.062691 L 44.665347 87.048188 L 44.395688 87.003644 L 44.14781 86.893837 L 43.899931 86.785066 L 43.633384 86.720839 L 43.401063 86.577883 L 43.443586 86.3707 L 43.62405 86.204954 L 43.817996 86.045423 L 44.033723 85.761583 L 43.937268 85.644525 L 43.823182 85.50882 L 43.62405 85.674566 L 43.451883 85.873462 L 43.229933 86.019526 L 42.991389 86.147979 L 42.756993 86.280576 L 42.526746 86.419388 L 42.285091 86.546806 L 42.012321 86.529195 L 41.87438 86.32512 L 41.815262 86.077537 L 41.60161 85.92215 L 41.438778 85.808199 L 41.60161 85.597909 L 41.56531 85.374151 L 41.494784 85.388654 L 41.295651 85.431127 L 41.080961 85.583406 L 40.905683 85.779194 L 40.795745 86.011238 L 40.65573 86.229816 L 40.462821 86.39349 L 40.195236 86.299222 L 40.204571 86.070285 L 40.25954 85.822702 L 40.263688 85.569939 L 40.434818 85.36172 L 40.420298 85.145214 L 40.354957 84.903846 L 40.457635 84.658335 L 40.250205 84.464619 L 39.973287 84.511235 L 39.740965 84.654191 L 39.46301 84.671802 L 39.374852 84.456332 L 39.561539 84.276083 L 39.767931 84.11448 L 39.530424 83.885543 L 39.274249 83.794383 L 39.00459 83.735336 L 38.777454 83.593416 L 38.505721 83.595487 L 38.22984 83.570625 L 37.966404 83.499147 L 37.796312 83.308539 L 37.659408 83.080638 L 37.299518 83.083746 L 37.036082 83.155224 L 36.772646 83.232918 L 36.500913 83.199768 L 36.237478 83.124147 L 36.10576 82.920072 L 35.844398 83.002945 L 35.565405 82.992586 L 35.30197 82.932503 L 35.231443 82.698386 L 35.017791 82.580292 L 34.861181 82.377253 L 34.79999 82.122418 L 34.543814 82.065443 L 34.26171 82.057155 L 33.83959 82.095484 L 33.833367 81.897625 L 34.069837 81.755705 L 34.238892 81.556809 L 34.425579 81.385883 L 34.267932 81.197347 L 34.020054 81.296795 L 33.805364 81.462541 L 33.569932 81.571312 L 33.303384 81.626215 L 33.060692 81.747417 L 32.839779 81.897625 L 32.684207 81.952528 L 32.685244 81.544378 L 32.69043 78.89969 L 32.709098 78.353764 L 32.757844 76.90452 L 32.756807 76.668332 L 32.75577 76.554382 L 32.756807 76.540915 L 32.75577 76.413497 L 32.754733 76.287116 L 32.754733 76.160734 L 32.753696 76.033317 L 32.753696 75.9059 L 32.752658 75.778482 L 32.752658 75.652101 L 32.751621 75.524683 L 32.750584 75.398302 L 32.750584 75.144503 L 32.749547 75.018122 L 32.74851 74.890704 L 32.74851 74.763287 L 32.747473 74.636905 L 32.747473 74.509488 L 32.746436 74.383106 L 32.746436 74.255689 L 32.745398 74.129308 L 32.745398 73.874473 L 32.744361 73.748091 L 32.743324 73.620674 L 32.743324 73.494292 L 32.742287 73.366875 L 32.742287 73.239458 L 32.74125 73.113076 L 32.74125 72.985659 L 32.740213 72.859277 L 32.740213 72.73186 L 32.739176 72.605478 L 32.739176 72.478061 L 32.738138 72.350644 L 32.738138 72.224262 L 32.737101 72.096845 L 32.737101 71.970463 L 32.735027 71.715629 L 32.735027 71.589247 L 32.73399 71.46183 L 32.73399 71.335448 L 32.732953 71.208031 L 32.732953 71.081649 L 32.73399 69.876882 L 32.736064 68.779849 L 32.739176 66.680052 L 32.74125 65.588199 L 32.74125 65.079565 L 32.743324 63.800212 L 32.744361 63.482186 L 32.744361 63.260501 L 32.745398 62.396548 L 32.74851 60.286392 L 32.750584 59.204898 L 32.753696 57.089562 L 32.75577 56.014284 L 32.757844 54.759792 L 54.979789 54.723535 " transform="matrix(3.766336,0,0,3.770826,-122.619238,-32.282592)"/>
<path style="fill:#e8e9d6;fill-opacity:1;fill-rule:evenodd;stroke-width:0.25592600999999998;stroke-miterlimit:4;stroke-dasharray:none" id="path44" d="M 120.201,78.2058 L 120.448,78.1849 L 120.713,78.1823 L 120.979,78.1798 L 121.244,78.1762 L 121.51,78.1773 L 121.776,78.1738 L 122.033,78.2204 L 122.185,78.4201 L 122.367,78.5944 L 122.607,78.6988 L 122.86,78.7732 L 123.115,78.8421 L 123.375,78.8889 L 123.638,78.9265 L 123.901,78.9647 L 124.161,79.0143 L 124.42,79.0715 L 124.681,79.1131 L 124.945,79.1264 L 125.211,79.1232 L 125.478,79.1189 L 125.743,79.1308 L 126.008,79.1549 L 126.273,79.1608 L 126.539,79.151 L 126.801,79.1094 L 127.063,79.0666 L 127.327,79.0638 L 127.593,79.0833 L 127.858,79.1173 L 128.121,79.1423 L 128.384,79.1227 L 128.646,79.0733 L 128.909,79.0426 L 129.174,79.0265 L 129.44,79.0143 L 129.706,79.0081 L 129.97,78.9888 L 130.234,78.9612 L 130.497,78.923 L 130.757,78.8722 L 131.015,78.8133 L 131.273,78.7518 L 131.52,78.6658 L 131.756,78.5536 L 131.989,78.4351 L 132.221,78.3166 L 132.485,78.2708 L 132.711,78.1539 L 132.914,77.9926 L 133.128,77.8417 L 133.356,77.7258 L 133.622,77.7564 L 133.887,77.7688 L 134.153,77.7738 L 134.377,77.7699 L 134.419,77.7691 L 134.69,77.7692 L 134.91,77.6364 L 135.109,77.5132 L 135.167,77.5406 L 135.345,77.6258 L 135.489,77.7093 L 135.909,77.9591 L 138.077,79.2515 L 138.413,79.4444 L 141.365,81.1385 L 144.255,82.7814 L 146.242,83.9409 L 147.157,84.475 L 147.265,84.5384 L 148.225,85.0977 L 150.204,86.2565 L 151.985,87.2983 L 152.956,87.8573 L 153.148,87.9678 L 153.545,88.1959 L 154.074,88.5003 L 156.103,89.6658 L 158.513,91.0489 L 159.067,91.3499 L 159.64,91.6608 L 159.886,91.7535 L 160.055,91.9501 L 160.108,92.178 L 160.045,92.422 L 160.172,92.6248 L 160.354,92.8148 L 160.532,93.0001 L 160.665,93.2058 L 160.773,93.4263 L 160.933,93.6227 L 161.081,93.8263 L 161.25,94.0131 L 161.45,94.1741 L 161.657,94.3288 L 161.863,94.484 L 162.081,94.6249 L 162.257,94.805 L 162.377,95.0231 L 162.541,95.2149 L 162.772,95.3339 L 163.036,95.3621 L 163.29,95.4364 L 163.518,95.5628 L 163.772,95.6289 L 164.007,95.7462 L 164.218,95.8963 L 164.3,96.1222 L 164.376,96.3568 L 164.467,96.5867 L 164.591,96.801 L 164.748,96.9994 L 164.888,97.2084 L 164.914,97.4493 L 164.985,97.6845 L 165.074,97.9147 L 165.182,98.1379 L 165.307,98.3531 L 165.481,98.5382 L 165.683,98.6975 L 165.92,98.8093 L 166.179,98.8943 L 166.403,98.8038 L 166.638,98.7109 L 166.897,98.7761 L 167.113,98.9212 L 167.276,99.1123 L 167.393,99.3332 L 167.433,99.4102 L 167.498,99.5346 L 167.508,99.5533 L 167.604,99.7807 L 167.736,99.9958 L 167.979,100.088 L 168.24,100.138 L 168.259,100.14 L 168.504,100.174 L 168.771,100.165 L 169.037,100.175 L 169.299,100.226 L 169.542,100.334 L 169.744,100.488 L 169.806,100.723 L 169.995,100.899 L 170.148,101.096 L 170.282,101.314 L 170.533,101.362 L 170.797,101.404 L 171.056,101.465 L 171.316,101.522 L 171.577,101.571 L 171.848,101.573 L 172.064,101.696 L 172.295,101.81 L 172.554,101.873 L 172.806,101.96 L 172.954,102.157 L 173.079,102.378 L 173.21,102.589 L 173.454,102.676 L 173.717,102.68 L 173.925,102.838 L 174.12,103.004 L 174.254,103.211 L 174.275,103.36 L 174.501,103.501 L 174.733,103.603 L 174.992,103.664 L 175.191,103.821 L 175.406,103.962 L 175.616,104.112 L 175.797,104.3 L 175.983,104.383 L 176.236,104.281 L 176.464,104.283 L 176.662,104.155 L 176.918,104.077 L 177.177,104.108 L 177.413,104.225 L 177.596,104.407 L 177.831,104.506 L 178.067,104.612 L 178.333,104.633 L 178.474,104.831 L 178.705,104.95 L 178.816,105.146 L 179.021,105.291 L 179.284,105.29 L 179.442,105.388 L 179.581,105.533 L 179.748,105.724 L 179.929,105.907 L 180.153,105.996 L 180.423,106 L 180.693,105.985 L 180.912,106.043 L 181.139,106.102 L 181.399,106.025 L 181.65,106.056 L 181.894,106.168 L 182.14,106.261 L 182.301,106.456 L 182.513,106.602 L 182.753,106.709 L 182.969,106.852 L 183.192,106.991 L 183.341,107.165 L 183.566,107.274 L 183.818,107.367 L 183.943,107.58 L 184.185,107.676 L 184.439,107.752 L 184.686,107.848 L 184.855,108.029 L 185.102,108.103 L 185.217,108.289 L 185.349,108.401 L 185.401,108.445 L 185.545,108.646 L 185.645,108.816 L 185.666,121.036 L 185.67,123.636 L 185.016,124.128 L 178.48,129.038 L 169.022,136.116 L 168.805,136.278 L 152.741,148.226 L 152.74,148.292 L 152.734,149.969 L 152.69,160.95 L 152.67,166.048 L 152.668,170.587 L 152.65,170.633 L 152.591,170.784 L 152.592,170.827 L 152.697,171.264 L 152.614,171.443 L 152.503,171.658 L 152.423,171.691 L 152.262,171.757 L 152.11,171.86 L 152.089,172.044 L 151.652,171.889 L 151.753,171.746 L 151.864,171.556 L 151.969,171.295 L 151.839,171.169 L 151.684,170.951 L 151.485,170.866 L 151.31,170.852 L 150.999,170.783 L 150.981,170.615 L 151.194,170.481 L 151.09,170.175 L 150.987,170.069 L 150.986,169.911 L 151.006,169.727 L 151.178,169.364 L 151.358,169.23 L 151.429,169.031 L 151.376,168.852 L 151.46,168.689 L 151.576,168.479 L 151.412,168.424 L 151.254,168.435 L 151.057,168.427 L 151.027,168.233 L 151.001,167.902 L 151.157,167.651 L 151.076,167.458 L 150.934,167.362 L 151.034,167.178 L 151.128,166.968 L 151.057,166.617 L 150.955,166.324 L 151.144,166.295 L 151.166,166.142 L 151.056,166.081 L 150.876,165.981 L 150.618,166.09 L 150.371,166.194 L 150.201,166.195 L 149.953,166.136 L 149.784,166.132 L 149.604,166.255 L 149.478,166.047 L 149.442,165.803 L 149.334,165.676 L 149.264,165.437 L 149.144,165.328 L 148.882,165.313 L 148.655,165.225 L 148.696,164.972 L 148.701,164.724 L 148.454,164.683 L 148.49,164.454 L 148.591,164.253 L 148.363,164.226 L 148.128,164.265 L 147.921,164.094 L 147.802,163.883 L 147.796,163.639 L 147.643,163.478 L 147.46,163.412 L 147.558,163.172 L 147.709,162.962 L 147.662,162.736 L 147.387,162.707 L 147.373,162.47 L 147.139,162.332 L 146.787,162.216 L 146.728,162.028 L 146.471,161.939 L 146.28,161.802 L 146.119,161.61 L 146.102,161.359 L 145.921,161.212 L 145.666,161.157 L 145.453,161.089 L 145.445,160.849 L 145.359,160.746 L 145.328,160.709 L 145.065,160.825 L 144.823,160.836 L 144.696,160.644 L 144.79,160.403 L 144.931,160.209 L 144.933,160.003 L 144.675,160.077 L 144.429,160.175 L 144.163,160.229 L 143.925,160.193 L 143.823,159.962 L 143.687,159.753 L 143.492,159.587 L 143.345,159.382 L 143.197,159.175 L 142.984,159.033 L 142.77,158.877 L 142.868,158.701 L 142.665,158.545 L 142.408,158.564 L 142.192,158.709 L 141.982,158.6 L 142.05,158.36 L 142.154,158.127 L 142.235,157.898 L 142.132,157.691 L 141.967,157.626 L 142.044,157.398 L 142.212,157.206 L 142.387,157.016 L 142.177,156.955 L 141.94,156.87 L 141.774,156.667 L 141.554,156.558 L 141.292,156.492 L 141.066,156.361 L 140.826,156.253 L 140.579,156.152 L 140.383,155.99 L 140.229,155.788 L 140.082,155.584 L 139.908,155.392 L 139.674,155.296 L 139.4,155.273 L 139.137,155.222 L 138.876,155.16 L 138.621,155.075 L 138.441,154.907 L 138.419,154.659 L 138.281,154.463 L 138.125,154.257 L 137.894,154.199 L 137.624,154.243 L 137.421,154.106 L 137.24,153.91 L 137.062,153.717 L 136.867,153.569 L 136.594,153.583 L 136.342,153.494 L 136.08,153.506 L 135.817,153.48 L 135.728,153.26 L 135.483,153.158 L 135.285,152.995 L 135.024,152.931 L 134.953,152.692 L 134.697,152.662 L 134.878,152.354 L 135.15,152.295 L 135.03,152.11 L 134.765,152.042 L 134.593,151.901 L 134.493,151.78 L 134.255,151.674 L 134.194,151.433 L 134.018,151.376 L 133.774,151.482 L 133.507,151.469 L 133.247,151.395 L 133.01,151.26 L 132.772,151.266 L 132.52,151.331 L 132.256,151.24 L 132.245,151.027 L 132.517,150.913 L 132.393,150.785 L 132.208,150.578 L 132.016,150.524 L 131.755,150.64 L 131.614,150.708 L 131.507,150.605 L 131.481,150.519 L 131.445,150.398 L 131.405,150.401 L 131.029,150.424 L 130.757,150.404 L 130.496,150.341 L 130.242,150.26 L 129.981,150.193 L 129.765,150.053 L 129.537,149.898 L 129.306,149.805 L 129.357,150.049 L 129.094,150.06 L 128.891,150.191 L 128.794,150.425 L 128.568,150.393 L 128.406,150.194 L 128.142,150.096 L 127.971,149.946 L 127.98,149.687 L 128.026,149.601 L 128.095,149.471 L 128.239,149.262 L 128.32,149.03 L 128.376,148.791 L 128.088,148.875 L 128.032,148.672 L 128.133,148.441 L 128.048,148.273 L 127.738,148.49 L 127.711,148.262 L 127.742,148.178 L 127.797,148.03 L 127.839,147.915 L 127.916,147.7 L 127.68,147.831 L 127.48,147.745 L 127.343,147.677 L 127.175,147.871 L 127.05,147.824 L 126.931,147.779 L 126.841,147.552 L 126.815,147.307 L 126.815,147.061 L 126.821,146.815 L 126.81,146.573 L 126.71,146.353 L 126.549,146.155 L 126.335,146.006 L 126.18,145.808 L 126.034,145.592 L 126.144,145.39 L 126.298,145.179 L 126.274,144.957 L 126.082,144.773 L 126.198,144.581 L 126.465,144.543 L 126.546,144.358 L 126.39,144.145 L 126.209,143.954 L 126.19,143.745 L 125.962,143.643 L 125.709,143.664 L 125.753,143.45 L 125.994,143.321 L 126.187,143.157 L 126.056,142.989 L 125.794,142.902 L 125.541,142.82 L 125.292,142.723 L 125.041,142.64 L 124.774,142.667 L 124.518,142.744 L 124.313,142.918 L 124.082,142.975 L 123.96,142.792 L 124.061,142.547 L 124.163,142.32 L 124.014,142.165 L 123.952,142.242 L 123.841,142.381 L 123.619,142.491 L 123.339,142.433 L 123.212,142.241 L 123.225,141.987 L 123.397,141.804 L 123.644,141.695 L 123.793,141.493 L 123.802,141.225 L 123.582,141.219 L 123.297,141.303 L 123.192,141.144 L 123.146,140.88 L 123.131,140.648 L 123.251,140.423 L 123.145,140.216 L 122.87,140.193 L 122.652,140.307 L 122.462,140.487 L 122.233,140.615 L 121.965,140.644 L 121.781,140.47 L 121.661,140.327 L 121.618,140.277 L 121.379,140.165 L 121.155,140.016 L 121.32,139.873 L 121.559,139.76 L 121.776,139.624 L 121.891,139.405 L 121.889,139.156 L 122.029,138.969 L 122.175,138.897 L 122.267,138.728 L 122.021,138.667 L 121.961,138.652 L 121.861,138.433 L 121.654,138.517 L 121.537,138.744 L 121.358,138.868 L 121.26,138.632 L 121.247,138.602 L 121.162,138.405 L 121.073,138.174 L 121.014,137.932 L 121.049,137.678 L 120.79,137.562 L 120.616,137.399 L 120.365,137.327 L 120.509,137.117 L 120.601,136.908 L 120.409,136.783 L 120.297,136.789 L 120.132,136.797 L 119.865,136.824 L 119.622,136.728 L 119.39,136.605 L 119.16,136.476 L 118.925,136.355 L 118.763,136.21 L 118.746,135.996 L 118.471,136.026 L 118.205,136.094 L 118.072,135.958 L 118.158,135.707 L 118.268,135.485 L 118.408,135.276 L 118.568,135.071 L 118.518,134.828 L 118.325,134.9 L 118.236,135.131 L 118.053,135.308 L 117.796,135.372 L 117.672,135.154 L 117.58,134.924 L 117.502,134.69 L 117.449,134.451 L 117.38,134.214 L 117.296,133.976 L 117.167,133.772 L 116.991,133.558 L 116.689,133.641 L 116.446,133.554 L 116.199,133.428 L 115.967,133.306 L 115.741,133.166 L 115.506,133.01 L 115.748,132.789 L 115.808,132.59 L 115.582,132.45 L 115.539,132.208 L 115.294,132.111 L 115.086,131.961 L 114.971,131.729 L 114.949,131.506 L 115.086,131.431 L 115.04,131.242 L 114.861,131.035 L 114.734,130.821 L 114.66,130.621 L 115.051,130.434 L 115.068,130.267 L 114.838,130.203 L 114.81,130.195 L 114.549,130.283 L 114.316,130.204 L 114.088,130.061 L 113.83,129.983 L 113.602,129.873 L 113.483,129.705 L 113.455,129.665 L 113.332,129.434 L 113.275,129.368 L 113.181,129.261 L 112.924,129.343 L 112.798,129.559 L 112.667,129.778 L 112.526,129.988 L 112.328,130.142 L 112.063,130.221 L 111.851,130.144 L 111.855,129.875 L 111.813,129.809 L 111.762,129.729 L 111.678,129.728 L 111.471,129.727 L 111.229,129.607 L 111.176,129.399 L 111.326,129.224 L 111.176,129.007 L 110.942,129.098 L 110.714,129.243 L 110.506,129.308 L 110.395,129.193 L 110.308,129.138 L 110.248,129.099 L 110.152,129.214 L 109.951,129.386 L 109.725,129.272 L 109.485,129.152 L 109.233,129.067 L 108.979,128.983 L 108.729,128.891 L 108.654,128.667 L 108.59,128.586 L 108.546,128.531 L 108.3,128.622 L 108.025,128.627 L 107.878,128.448 L 108.088,128.198 L 108.012,128.028 L 107.735,128.068 L 107.616,128.287 L 107.504,128.387 L 107.338,128.343 L 107.313,128.077 L 107.427,127.869 L 107.727,127.626 L 107.839,127.386 L 107.71,127.247 L 107.435,127.189 L 107.174,127.135 L 106.913,127.178 L 106.648,127.209 L 106.384,127.163 L 106.135,127.062 L 105.878,127.025 L 105.607,127.084 L 105.376,127.005 L 105.17,126.836 L 104.907,126.789 L 104.655,126.714 L 104.709,126.538 L 104.822,126.323 L 104.653,126.152 L 104.426,126.005 L 104.187,125.889 L 103.941,125.797 L 103.831,125.575 L 103.791,125.332 L 103.745,125.236 L 103.687,125.118 L 103.433,125.193 L 103.254,125.075 L 103.213,124.851 L 102.971,124.727 L 102.788,124.72 L 102.717,124.718 L 102.459,124.803 L 102.203,124.734 L 101.948,124.653 L 101.747,124.654 L 101.693,124.654 L 101.425,124.653 L 101.371,124.613 L 101.216,124.501 L 100.962,124.434 L 100.727,124.325 L 100.49,124.193 L 100.403,123.991 L 100.33,123.761 L 100.129,123.597 L 99.984,123.394 L 99.7842,123.269 L 99.534,123.245 L 99.3797,123.23 L 99.1455,123.111 L 98.9082,122.998 L 98.702,122.843 L 98.5819,122.69 L 98.7046,122.505 L 98.4528,122.397 L 98.1875,122.356 L 97.9159,122.323 L 97.6769,122.24 L 97.5254,122.121 L 97.3007,122.276 L 97.0428,122.236 L 96.8512,122.069 L 96.6829,121.934 L 96.6754,121.68 L 96.6846,121.433 L 96.6798,121.192 L 96.5186,120.995 L 96.2854,120.875 L 96.0242,120.828 L 95.7564,120.857 L 95.4763,120.798 L 95.2913,120.684 L 95.4928,120.502 L 95.7437,120.39 L 95.9447,120.255 L 95.8448,120.028 L 95.6034,119.921 L 95.3586,119.812 L 95.1286,119.687 L 94.9527,119.506 L 94.7947,119.303 L 94.6124,119.132 L 94.3581,119.057 L 94.0964,118.99 L 93.8515,118.898 L 93.6834,118.705 L 93.4326,118.616 L 93.2516,118.452 L 93.0781,118.281 L 92.8136,118.216 L 92.7066,118.008 L 92.6834,117.764 L 92.5147,117.599 L 92.2379,117.611 L 91.9762,117.556 L 91.8194,117.385 L 92.0747,117.315 L 92.1425,117.078 L 92.1957,116.881 L 91.9336,116.788 L 91.6922,116.688 L 91.4195,116.672 L 91.3207,116.447 L 91.0991,116.402 L 90.8361,116.46 L 90.5738,116.399 L 90.3755,116.254 L 90.3094,116.007 L 90.232,115.769 L 90.0118,115.664 L 89.7693,115.559 L 89.5334,115.443 L 89.3242,115.315 L 89.2013,115.226 L 89.0472,115.037 L 89.0858,114.789 L 88.9635,114.577 L 88.7548,114.415 L 88.5255,114.469 L 88.4026,114.243 L 88.4175,114.003 L 88.3309,113.788 L 88.1953,113.575 L 87.9951,113.451 L 87.798,113.612 L 87.6333,113.817 L 87.4575,113.739 L 87.2694,113.559 L 87.0427,113.426 L 86.8418,113.279 L 86.8101,113.036 L 86.6676,112.829 L 86.6525,112.586 L 86.6165,112.394 L 86.336,112.417 L 86.1525,112.283 L 86.1615,112.188 L 97.845,100.548 L 98.4494,99.9438 L 100.11,98.2829 L 113.53,84.8948 L 120.201,78.2058"></path>
<path style="fill-rule:evenodd;fill:rgb(90.980392%,91.372549%,83.921569%);fill-opacity:1;stroke-width:0.255926;stroke-linecap:square;stroke-linejoin:bevel;stroke:rgb(0%,0%,0%);stroke-opacity:1;stroke-miterlimit:4;" d="M 185.644949 108.815843 L 185.829561 109.034421 L 185.991356 109.228137 L 186.124111 109.439463 L 186.375101 109.434284 L 186.620905 109.328621 L 186.851152 109.413566 L 187.084511 109.530624 L 187.340687 109.60003 L 187.546042 109.756453 L 187.681908 109.847614 L 187.871707 109.968815 L 188.086396 110.117987 L 188.28138 110.282697 L 188.391318 110.505419 L 188.550002 110.700171 L 188.769877 110.836911 L 188.987678 110.978831 L 189.178514 111.15908 L 189.399426 111.257492 L 189.661825 111.257492 L 189.900369 111.286498 L 190.155508 111.277174 L 190.411683 111.225379 L 190.636745 111.340365 L 190.888772 111.341401 L 191.157393 111.287534 L 191.420829 111.276139 L 191.663522 111.380766 L 191.923846 111.429454 L 192.192467 111.415987 L 192.44968 111.336222 L 192.705856 111.287534 L 192.97344 111.353832 L 193.148718 111.522686 L 193.26799 111.748515 L 193.363408 111.978488 L 193.433934 112.213641 L 193.480606 112.445685 L 193.628918 112.634221 L 193.725373 112.86523 L 193.961843 112.925313 L 194.220093 112.854871 L 194.454488 112.738849 L 194.666067 112.79168 L 194.851716 112.942924 L 194.901499 113.158394 L 195.074703 113.325176 L 195.142118 113.5624 L 195.208495 113.566544 L 195.368216 113.582083 L 195.407628 113.586226 L 195.665878 113.664956 L 195.923091 113.700177 L 196.177192 113.620411 L 196.431294 113.535466 L 196.691618 113.485743 L 196.948831 113.533395 L 197.184263 113.638022 L 197.450811 113.603837 L 197.7018 113.61316 L 197.946568 113.721931 L 198.201706 113.656668 L 198.449585 113.565508 L 198.678794 113.472276 L 198.843701 113.474348 L 199.023128 113.351074 L 199.272043 113.264057 L 199.536516 113.228836 L 199.808249 113.228836 L 200.044719 113.323104 L 200.260446 113.469168 L 200.519733 113.524071 L 200.78628 113.565508 L 201.046605 113.615232 L 201.294483 113.706392 L 201.541324 113.801696 L 201.786091 113.901144 L 202.031896 113.994376 L 202.28496 114.071034 L 202.542173 114.126973 L 202.545284 114.128009 L 202.911398 114.226421 L 203.14683 114.339336 L 203.406117 114.398383 L 203.65607 114.484363 L 203.919506 114.504046 L 204.160124 114.394239 L 204.393483 114.278217 L 204.662104 114.257498 L 204.906871 114.343479 L 205.124673 114.486435 L 205.319657 114.652181 L 205.520863 114.811712 L 205.740739 114.952596 L 205.927426 115.123522 L 206.091295 115.318274 L 206.221976 115.531672 L 206.264499 115.769932 L 206.422145 115.967792 L 206.584978 116.161508 L 206.621278 116.40184 L 206.505117 116.622489 L 206.446 116.847283 L 206.597424 117.042034 L 206.857748 117.111441 L 207.100441 117.209853 L 207.334836 117.331054 L 207.463443 117.542381 L 207.592049 117.757851 L 207.777699 117.931884 L 207.929122 118.122493 L 208.004834 118.359717 L 208.080546 118.593833 L 208.254787 118.739897 L 208.302496 127.290329 L 208.339833 133.758575 L 208.368873 138.728889 L 203.541984 138.744427 L 202.300517 138.774469 L 200.476173 138.78172 L 198.329275 138.790008 L 198.333424 142.168122 L 185.744515 133.856986 L 178.480326 129.037916 L 185.016437 124.127685 L 185.66984 123.635625 L 185.665692 121.036518 L 185.644949 108.815843 " transform="matrix(3.766336,0,0,3.770826,-122.619238,-32.282592)"/>
<path style="fill-rule:evenodd;fill:rgb(90.980392%,91.372549%,83.921569%);fill-opacity:1;stroke-width:0.255926;stroke-linecap:square;stroke-linejoin:bevel;stroke:rgb(0%,0%,0%);stroke-opacity:1;stroke-miterlimit:4;" d="M 208.254787 118.739897 L 208.517186 118.865243 L 208.786844 118.87353 L 208.912339 118.934649 L 209.001534 118.980229 L 209.150883 119.184304 L 209.37387 119.316901 L 209.570928 119.478504 L 209.811547 119.583131 L 209.969194 119.782026 L 210.011717 120.022358 L 210.021051 120.265798 L 210.028311 120.518561 L 210.247149 120.573464 L 210.267892 120.76718 L 210.113357 120.934998 L 210.258558 121.149432 L 210.489842 121.073811 L 210.635043 120.867664 L 210.870476 120.777539 L 210.918184 120.764073 L 211.110057 120.708133 L 211.226218 120.494735 L 211.227255 120.407718 L 211.228292 120.247152 L 211.289484 120.011999 L 211.437796 119.809996 L 211.629668 119.636998 L 211.857841 119.512689 L 212.076679 119.380092 L 212.224992 119.171873 L 212.441756 119.046528 L 212.666817 118.916002 L 212.888767 118.779262 L 213.036042 118.572079 L 213.260066 118.449841 L 213.495499 118.344178 L 213.604399 118.117313 L 213.845018 118.012686 L 214.08771 117.91013 L 214.327292 117.825185 L 214.59695 117.843832 L 214.874906 117.807575 L 215.059519 117.937064 L 215.176716 118.167037 L 215.282506 118.390794 L 215.430818 118.593833 L 215.632025 118.7544 L 215.832194 118.671527 L 216.025104 118.854884 L 216.130893 118.976085 L 216.325877 119.092108 L 216.427518 119.314829 L 216.53953 119.51994 L 216.788445 119.612136 L 217.057067 119.66704 L 217.325688 119.663932 L 217.599495 119.655645 L 217.831817 119.744733 L 218.050655 119.796529 L 218.316165 119.750949 L 218.406397 119.960204 L 218.559895 120.162207 L 218.727913 120.350743 L 218.909414 120.530992 L 218.939491 120.773396 L 218.940528 121.0158 L 218.913563 121.257168 L 218.937417 121.505787 L 219.167664 121.607306 L 219.429025 121.661174 L 219.635418 121.816561 L 219.849071 121.957445 L 220.107321 121.888039 L 220.339642 121.795843 L 220.599966 121.767873 L 220.825027 121.623881 L 221.084314 121.602127 L 221.113355 121.775124 L 221.193215 121.985415 L 221.361233 122.108689 L 221.5334 122.271327 L 221.495025 122.515803 L 221.537548 122.680513 L 221.686898 122.820361 L 221.751201 123.050334 L 222.012562 123.047226 L 222.268738 123.118705 L 222.497948 123.00579 L 222.731306 122.885624 L 222.937699 122.939491 L 223.116088 122.970569 L 223.315221 122.828649 L 223.522651 122.674298 L 223.729043 122.540665 L 223.911581 122.709519 L 224.167757 122.647364 L 224.411487 122.549988 L 224.633437 122.480582 L 224.738189 122.713662 L 224.866795 122.931204 L 224.998513 123.146674 L 225.116748 123.36318 L 225.097042 123.584866 L 225.104302 123.820018 L 225.087708 124.063458 L 225.202831 124.278928 L 225.453821 124.357657 L 225.590725 124.546194 L 225.835492 124.654965 L 226.093742 124.722299 L 226.101002 124.716084 L 226.286652 124.563804 L 226.516899 124.611456 L 226.709808 124.49647 L 226.948352 124.508901 L 227.175488 124.567948 L 227.250163 124.556553 L 227.427515 124.529619 L 227.620425 124.472644 L 227.727251 124.476787 L 227.817483 124.480931 L 228.078844 124.481967 L 228.328797 124.480931 L 228.588084 124.522368 L 228.850483 124.581415 L 229.031984 124.590738 L 229.119104 124.595918 L 229.355574 124.688114 L 229.61901 124.724371 L 229.890743 124.747161 L 230.115804 124.632174 L 230.358497 124.609384 L 230.625044 124.648749 L 230.876034 124.72955 L 231.13221 124.805172 L 231.374902 124.855932 L 231.466171 125.087977 L 231.596852 125.277549 L 231.754499 125.447439 L 231.762796 125.69295 L 231.710938 125.937426 L 231.857176 126.120783 L 231.79391 126.291708 L 231.984746 126.424305 L 232.220178 126.541364 L 232.405828 126.719541 L 232.57592 126.912221 L 232.843505 127.08729 L 232.945145 127.324514 L 233.129758 127.463327 L 233.352745 127.59696 L 233.571583 127.593852 L 233.813239 127.639432 L 234.044523 127.764778 L 234.298624 127.826932 L 234.538205 127.884944 L 234.749784 127.869405 L 234.940619 128.019612 L 235.089968 128.221616 L 235.305695 128.369751 L 235.429116 128.582114 L 235.659363 128.6971 L 235.861607 128.854559 L 236.049331 129.018233 L 235.948727 129.219201 L 236.063851 129.400485 L 236.066962 129.641853 L 236.077334 129.884257 L 236.199717 130.074865 L 236.166529 130.293443 L 236.143711 130.534811 L 236.022365 130.724383 L 236.101188 130.948141 L 236.11882 131.125282 L 236.252612 131.251663 L 236.409221 131.410158 L 236.237055 131.581084 L 236.509825 131.641167 L 236.75874 131.614233 L 236.728663 131.826595 L 236.782595 132.059676 L 236.679917 132.278254 L 237.041882 132.151872 L 237.219234 132.332121 L 237.249312 132.365271 L 237.343692 132.474042 L 237.276278 132.701943 L 237.422516 132.814857 L 237.591571 132.93088 L 237.845672 132.975424 L 238.039619 133.089374 L 238.02821 133.343173 L 237.959758 133.579362 L 237.866415 133.820729 L 238.123628 133.830053 L 238.248086 134.013409 L 238.442033 134.014445 L 238.318612 134.205053 L 238.095625 134.354225 L 238.258457 134.545869 L 238.309278 134.644281 L 238.372544 134.767555 L 238.364246 135.013066 L 238.361135 135.253398 L 238.454478 135.363205 L 238.52293 135.447114 L 238.631831 135.660512 L 238.862078 135.791037 L 239.077805 135.939173 L 239.226117 136.135997 L 239.385838 136.317282 L 239.46155 136.510997 L 239.617122 136.640487 L 239.807957 136.811412 L 240.029907 136.948153 L 240.239411 137.100432 L 240.437506 137.265143 L 240.627305 137.439176 L 240.787025 137.633928 L 240.944672 137.831787 L 241.031792 138.025503 L 241.049424 138.06176 L 241.194625 138.205752 L 241.478803 138.205752 L 241.737053 138.273087 L 241.972486 138.392217 L 242.187176 138.539317 L 242.388383 138.700919 L 242.615518 138.892563 L 242.841617 139.024124 L 243.061492 139.163973 L 243.084309 139.179511 L 243.264773 139.323503 L 243.426568 139.517219 L 243.575918 139.72233 L 243.727342 139.923297 L 243.881877 140.123229 L 244.034338 140.324196 L 244.178501 140.529307 L 244.310219 140.742705 L 244.406674 140.96957 L 244.48446 141.204723 L 244.541503 141.442983 L 244.552912 141.686422 L 244.558098 141.856312 L 244.561209 141.93297 L 244.537355 142.17123 L 244.41912 142.387736 L 244.287402 142.604242 L 244.18265 142.829035 L 244.088269 143.057972 L 244.010483 143.292089 L 243.916103 143.518954 L 243.795793 143.737532 L 243.694153 143.967505 L 243.645407 144.204729 L 243.71697 144.435738 L 243.816536 144.666746 L 243.898471 144.900863 L 243.976257 145.134979 L 244.035375 145.372204 L 244.065452 145.614607 L 244.069601 145.861155 L 244.054043 146.102523 L 243.935808 146.323172 L 243.772976 146.517924 L 243.595624 146.71164 L 243.365377 146.796585 L 243.090532 146.760328 L 242.835394 146.647413 L 242.61137 146.678491 L 242.486912 146.907428 L 242.437129 147.148796 L 242.428832 147.393271 L 242.426757 147.637747 L 242.372826 147.873935 L 242.280519 148.104944 L 242.21829 148.34942 L 242.056495 148.531741 L 241.816914 148.657086 L 241.552441 148.695415 L 241.287968 148.649835 L 241.062907 148.50895 L 240.888666 148.323522 L 240.699905 148.150524 L 240.462398 148.03761 L 240.192739 147.966132 L 239.933452 147.947485 L 239.713577 148.091477 L 239.568376 148.296588 L 239.460512 148.522417 L 239.360946 148.751354 L 239.28316 148.984435 L 239.248934 149.225803 L 239.26138 149.470278 L 239.320497 149.707503 L 239.387912 149.944727 L 239.451178 150.191274 L 239.342277 150.404673 L 239.120328 150.546593 L 238.849632 150.572491 L 238.58101 150.52691 L 238.343503 150.413996 L 238.114294 150.281399 L 237.886121 150.152946 L 237.728474 150.064893 L 237.651725 150.023456 L 237.409033 149.935404 L 237.176711 150.037959 L 236.948539 150.186095 L 236.728663 150.333195 L 236.519159 150.48651 L 236.315878 150.64604 L 236.107411 150.803499 L 235.895833 150.959922 L 235.697737 151.123597 L 235.57328 151.256194 L 235.524534 151.305918 L 235.401113 151.520352 L 235.305695 151.752396 L 235.214426 151.983405 L 235.134566 152.216486 L 235.067151 152.454746 L 234.993514 152.707509 L 235.013219 152.924015 L 235.265247 153.044181 L 235.530757 153.070079 L 235.803527 153.060755 L 236.079408 153.041073 L 236.339732 153.060755 L 236.612503 153.181957 L 236.702734 153.359099 L 236.556496 153.575605 L 236.37707 153.776572 L 236.204903 153.970288 L 236.019254 154.147429 L 235.803527 154.287277 L 235.535942 154.361863 L 235.30777 154.474778 L 235.169829 154.679889 L 235.057817 154.912969 L 234.902245 155.105649 L 234.658515 155.220636 L 234.393005 155.270359 L 234.119197 155.294185 L 233.848502 155.279683 L 233.604772 155.194738 L 233.373488 155.051782 L 233.137018 154.941975 L 232.852839 154.924364 L 232.759496 154.958549 L 232.679635 154.830096 L 232.608072 154.724433 L 232.514729 154.640524 L 232.399605 154.582513 L 232.27411 154.533825 L 232.147578 154.485137 L 232.03038 154.427126 L 231.913182 154.367043 L 231.789762 154.317319 L 231.664267 154.271739 L 231.536698 154.231338 L 231.409128 154.193009 L 231.279485 154.157788 L 231.150878 154.124639 L 231.021235 154.09149 L 230.892628 154.051089 L 230.761948 154.034514 L 230.63023 154.062484 L 230.497475 154.08113 L 230.362645 154.068699 L 230.22989 154.052125 L 230.096098 154.043838 L 229.961269 154.03555 L 229.82644 154.029335 L 229.69161 154.021047 L 229.424026 154.004473 L 229.289197 153.992042 L 229.155404 153.978575 L 229.023687 153.952677 L 228.896117 153.914348 L 228.770622 153.868768 L 228.645127 153.827332 L 228.515484 153.794182 L 228.384803 153.762069 L 228.260345 153.716489 L 228.136925 153.666765 L 227.772885 153.50827 L 227.652576 153.453367 L 227.532267 153.399499 L 227.409883 153.345632 L 227.2875 153.294872 L 227.169265 153.238933 L 227.049993 153.180921 L 226.924498 153.139485 L 226.795892 153.103228 L 226.666248 153.069043 L 226.535567 153.035893 L 226.400738 153.012067 L 226.265909 152.989277 L 226.141451 152.949913 L 226.03255 152.88465 L 225.940244 152.797633 L 225.853123 152.701293 L 225.763929 152.607025 L 225.669548 152.516901 L 225.573093 152.429884 L 225.463156 152.367729 L 225.330401 152.342867 L 225.196608 152.312826 L 225.065928 152.275533 L 224.96325 152.205091 L 224.886501 152.101499 L 224.801455 152.008267 L 224.68322 151.948184 L 224.554614 151.907783 L 224.421858 151.884993 L 224.296364 151.841485 L 224.204057 151.755504 L 224.194723 151.631194 L 224.143903 151.524495 L 224.029816 151.450945 L 224.006999 151.336995 L 224.004925 151.215793 L 223.961365 151.100807 L 223.909507 150.987892 L 223.834832 150.886372 L 223.753935 150.784853 L 223.672 150.683333 L 223.598363 150.579742 L 223.542357 150.475115 L 223.530948 150.363236 L 223.582805 150.240998 L 223.629477 150.124976 L 223.729043 149.897075 L 223.773641 149.782088 L 223.805792 149.66503 L 223.820312 149.543828 L 223.819275 149.420555 L 223.807867 149.299353 L 223.780901 149.180223 L 223.748749 149.061092 L 223.726969 148.939891 L 223.712449 148.818689 L 223.689632 148.698523 L 223.655406 148.580428 L 223.611845 148.462334 L 223.553765 148.352527 L 223.470793 148.260331 L 223.360856 148.183674 L 223.240546 148.130842 L 223.109866 148.1008 L 222.980222 148.067651 L 222.867173 148.002389 L 222.751012 147.940234 L 222.625517 147.898797 L 222.495874 147.861504 L 222.372453 147.814888 L 222.249032 147.765164 L 222.127686 147.711297 L 222.011525 147.650178 L 221.903662 147.575592 L 221.803058 147.492719 L 221.699344 147.416061 L 221.582146 147.365302 L 221.446279 147.350799 L 221.313524 147.324901 L 221.186992 147.2845 L 221.061497 147.242028 L 220.933928 147.199555 L 220.805322 147.167442 L 220.673604 147.140508 L 220.540849 147.117718 L 220.409131 147.092856 L 220.279487 147.059707 L 220.156067 147.014127 L 220.035757 146.959223 L 219.916485 146.901212 L 219.795139 146.849417 L 219.66757 146.810052 L 219.536889 146.781046 L 219.404134 146.75722 L 219.270342 146.73443 L 219.137587 146.707496 L 219.053578 146.685742 L 219.011055 146.675383 L 218.890745 146.624623 L 218.785993 146.54693 L 218.684353 146.465093 L 218.577526 146.387399 L 218.471737 146.30867 L 218.356614 146.251694 L 218.21971 146.230976 L 218.087992 146.25273 L 217.980129 146.317993 L 217.880563 146.406046 L 217.779959 146.488919 L 217.678319 146.568684 L 217.559047 146.627731 L 217.433552 146.675383 L 217.303908 146.698173 L 217.167004 146.68885 L 217.048769 146.740646 L 216.934683 146.817303 L 216.820597 146.882566 L 216.69925 146.908464 L 216.566495 146.877386 L 216.435815 146.834914 L 216.309283 146.793477 L 216.186899 146.742717 L 216.069701 146.681599 L 215.960801 146.610121 L 215.861234 146.528283 L 215.766854 146.441267 L 215.653805 146.376004 L 215.541793 146.30867 L 215.441189 146.228904 L 215.34992 146.139816 L 215.338512 147.360122 L 215.323991 147.360122 L 203.345963 147.255495 L 202.254883 147.215094 L 198.337573 147.143616 L 198.333424 142.77724 L 198.333424 142.168122 L 198.329275 138.790008 L 200.476173 138.78172 L 202.300517 138.774469 L 203.541984 138.744427 L 208.368873 138.728889 L 208.339833 133.758575 L 208.302496 127.290329 L 208.254787 118.739897 " transform="matrix(3.766336,0,0,3.770826,-122.619238,-32.282592)"/>
<path style="fill-rule:evenodd;fill:rgb(90.980392%,91.372549%,83.921569%);fill-opacity:1;stroke-width:0.255926;stroke-linecap:square;stroke-linejoin:bevel;stroke:rgb(0%,0%,0%);stroke-opacity:1;stroke-miterlimit:4;" d="M 198.333424 142.168122 L 198.333424 142.77724 L 198.337573 147.143616 L 198.339647 149.645348 L 198.347944 155.737557 L 198.33861 155.736521 L 192.36256 155.765526 L 184.13486 155.795568 L 184.13486 155.890872 L 184.125526 163.800073 L 184.125526 163.987574 L 184.124489 164.916788 L 184.125526 166.402289 L 184.126563 173.798713 L 181.983814 173.819431 L 181.98174 174.562181 L 181.97448 178.233459 L 181.965146 182.547004 L 181.851059 182.516963 L 181.668521 182.447557 L 181.504652 182.440305 L 181.344931 182.283882 L 180.804576 182.132639 L 180.616852 182.072556 L 180.368974 182.12228 L 180.193696 182.134711 L 179.96656 182.111921 L 179.8141 182.077735 L 179.66475 181.978288 L 179.483249 181.914061 L 179.249891 181.80011 L 178.931486 181.68616 L 178.745837 181.780428 L 178.492772 181.890235 L 178.171256 181.9296 L 178.012572 181.931672 L 177.837294 181.888163 L 177.694168 181.817721 L 177.516815 181.697555 L 177.373689 181.577389 L 177.259603 181.482085 L 177.126848 181.329806 L 176.978535 181.219999 L 176.807406 181.105012 L 176.451664 180.802526 L 176.267051 180.453423 L 176.103182 180.455494 L 175.939313 180.466889 L 175.645799 180.520757 L 175.591868 180.353975 L 175.617796 180.143684 L 175.773369 179.912676 L 175.312875 179.786294 L 175.006916 179.717924 L 174.67814 179.660949 L 174.508048 179.647482 L 174.19068 179.59983 L 174.240463 179.450658 L 174.454116 179.413365 L 174.552645 179.244511 L 174.483156 179.041472 L 174.679177 178.916127 L 174.636654 178.749344 L 174.488342 178.622963 L 174.281949 178.42096 L 173.861904 178.686154 L 173.71048 178.72759 L 173.457416 178.770063 L 173.309104 178.793889 L 173.013516 178.964815 L 172.833053 179.14092 L 172.659849 179.270409 L 172.60488 179.448586 L 172.557171 179.643338 L 172.355964 179.819443 L 172.068674 179.913712 L 171.870579 179.95204 L 171.49928 180.012123 L 171.330224 180.080494 L 171.185024 180.198588 L 170.989003 180.322897 L 170.779499 180.345688 L 170.50258 180.415094 L 170.153061 180.500039 L 169.877179 180.584984 L 169.550477 180.644031 L 169.286005 180.723796 L 169.020495 180.802526 L 168.635712 180.817028 L 168.290342 180.734155 L 168.012386 180.624348 L 167.761396 180.505218 L 167.550855 180.404735 L 167.37454 180.31979 L 167.236599 180.184085 L 167.200299 179.913712 L 167.095547 179.771791 L 166.914046 179.630907 L 166.94516 179.896101 L 166.834185 180.050452 L 166.59979 179.874347 L 166.425549 179.941681 L 166.282422 180.275245 L 166.085364 180.322897 L 165.937052 180.236917 L 165.710954 180.259707 L 165.702656 180.259707 L 165.491078 180.261779 L 165.411218 180.262814 L 165.135336 180.341544 L 164.7993 180.070135 L 164.581499 179.843269 L 164.494378 179.721032 L 164.361623 179.533531 L 164.225757 179.368821 L 164.194642 179.331528 L 163.931207 179.177177 L 163.727926 178.974138 L 163.703034 178.770063 L 163.603468 178.657148 L 163.56613 178.61364 L 163.801563 178.47172 L 163.803637 178.213777 L 163.827492 177.826345 L 163.876238 177.667851 L 163.998621 177.483458 L 164.071222 177.299065 L 163.949875 177.167504 L 163.624211 177.312532 L 163.58065 177.058733 L 163.520496 176.7376 L 163.455155 176.447544 L 163.397075 176.260044 L 163.327586 176.128483 L 163.23528 175.951341 L 163.150234 175.801134 L 163.123268 175.754518 L 163.113934 175.736907 L 163.021627 175.584628 L 162.930358 175.433385 L 162.859832 175.265567 L 162.818346 175.088425 L 162.782046 174.888494 L 162.580839 174.584971 L 162.449121 174.387112 L 162.678331 174.166462 L 162.71878 173.823575 L 162.914801 173.674403 L 163.067262 173.581171 L 162.974956 173.459969 L 162.821458 173.318049 L 162.71152 173.182344 L 162.524833 173.1378 L 162.488533 172.989664 L 162.340221 172.761763 L 162.061228 172.576334 L 161.912916 172.414732 L 161.623551 172.380547 L 161.403676 172.333931 L 161.39849 172.331859 L 161.036525 172.341182 L 160.86747 172.319428 L 160.736789 172.302853 L 160.629963 172.349469 L 160.557362 172.380547 L 160.450536 172.494497 L 160.333338 172.591873 L 160.074051 172.661279 L 159.946482 172.774194 L 159.735941 172.642633 L 159.537845 172.680962 L 159.351159 172.640561 L 159.38331 172.447881 L 159.140618 172.469635 L 158.943559 172.513144 L 158.707089 172.555616 L 158.542183 172.525575 L 158.295341 172.402301 L 158.189552 172.254165 L 158.01946 172.143323 L 158.000791 172.142287 L 157.860776 172.133999 L 157.646086 172.142287 L 157.393022 172.235519 L 157.207373 172.236555 L 157.131661 172.074952 L 156.866151 172.056306 L 156.512483 172.141251 L 156.365208 172.224124 L 156.18993 172.195118 L 155.952423 172.104994 L 155.826928 172.101886 L 155.761588 172.099814 L 155.62987 172.096706 L 155.483632 172.148502 L 155.319762 172.104994 L 155.191156 171.952714 L 155.167301 171.798363 L 155.151744 171.69788 L 155.232642 171.401608 L 155.062549 171.281442 L 154.841637 171.161276 L 154.651839 171.178887 L 154.559532 171.18821 L 154.356251 171.179923 L 154.292985 171.043182 L 153.965246 170.973776 L 153.544164 171.133307 L 153.422818 171.008997 L 153.258948 170.959273 L 153.00381 170.914729 L 152.992401 170.75209 L 152.85446 170.585308 L 152.667773 170.58738 L 152.669848 166.048006 L 152.689554 160.950275 L 152.734151 149.968553 L 152.740374 148.292444 L 152.741411 148.226146 L 168.804768 136.277917 L 169.021532 136.116314 L 178.480326 129.037916 L 185.744515 133.856986 L 198.333424 142.168122 " transform="matrix(3.766336,0,0,3.770826,-122.619238,-32.282592)"/>
<path style="fill-rule:evenodd;fill:rgb(90.980392%,91.372549%,83.921569%);fill-opacity:1;stroke-width:0.255926;stroke-linecap:square;stroke-linejoin:bevel;stroke:rgb(0%,0%,0%);stroke-opacity:1;stroke-miterlimit:4;" d="M 232.759496 154.958549 L 232.613258 155.013453 L 232.451463 155.216492 L 232.360193 155.464075 L 232.379899 155.630857 L 232.387159 155.691976 L 232.475317 155.915734 L 232.593552 156.140527 L 232.72527 156.36532 L 232.846616 156.588042 L 232.957591 156.810763 L 233.069603 157.032449 L 233.188875 157.251027 L 233.324742 157.465461 L 233.430531 157.687146 L 233.496908 157.927478 L 233.528023 158.17299 L 233.502094 158.409178 L 233.384896 158.633971 L 233.224138 158.832867 L 233.025006 159.005864 L 232.792684 159.120851 L 232.533397 159.179898 L 232.25959 159.212011 L 231.990969 159.228586 L 231.717161 159.224442 L 231.447503 159.228586 L 231.184067 159.280382 L 230.91752 159.36947 L 230.697644 159.501031 L 230.570075 159.700963 L 230.515106 159.95269 L 230.492289 160.137082 L 230.482955 160.203381 L 230.530663 160.441641 L 230.705942 160.61671 L 230.922706 160.772097 L 231.13221 160.931628 L 231.328231 161.101518 L 231.475506 161.302485 L 231.569886 161.533494 L 231.638338 161.771754 L 231.630041 162.010014 L 231.532549 162.242059 L 231.363494 162.423344 L 231.282596 162.454421 L 231.114578 162.519684 L 230.864625 162.616024 L 230.626081 162.729974 L 230.398946 162.861535 L 230.195664 163.023138 L 230.000681 163.193028 L 229.799474 163.360846 L 229.642864 163.553526 L 229.557818 163.794894 L 229.58997 164.030046 L 229.696796 164.258983 L 229.737245 164.31803 L 229.84096 164.472381 L 230.050464 164.609122 L 230.291082 164.724108 L 230.513032 164.864993 L 230.719424 165.022451 L 230.927891 165.170587 L 231.173696 165.273143 L 231.483803 165.515546 L 231.338602 165.720657 L 231.19755 165.929912 L 231.046126 166.126736 L 230.8667 166.294554 L 230.636453 166.407468 L 230.376128 166.485162 L 230.12099 166.560783 L 229.859628 166.623974 L 229.600341 166.632261 L 229.344166 166.580466 L 229.085916 166.50588 L 228.826628 166.447869 L 228.568378 166.395037 L 228.29872 166.352565 L 228.138999 166.513131 L 228.135887 166.754499 L 228.130702 166.991723 L 228.046693 167.217553 L 227.940904 167.440274 L 227.855857 167.669211 L 227.790517 167.902292 L 227.656725 168.107403 L 227.501153 168.302154 L 227.339357 168.493798 L 227.176525 168.686478 L 227.003321 168.866727 L 226.797966 169.019007 L 226.577053 169.153675 L 226.344732 169.269698 L 226.085445 169.333924 L 225.882164 169.48206 L 225.698588 169.660237 L 225.463156 169.760721 L 225.205943 169.832199 L 224.97051 169.94097 L 224.750635 170.077711 L 224.540093 170.225846 L 224.308809 170.344976 L 224.068191 170.449604 L 223.690669 170.553195 L 223.424122 170.561482 L 223.156537 170.561482 L 222.891027 170.556303 L 222.625517 170.543872 L 222.360007 170.529369 L 222.092423 170.514866 L 221.828987 170.526261 L 221.583183 170.623637 L 221.399608 170.792491 L 221.261667 171.00071 L 221.087426 171.18303 L 220.884145 171.338418 L 220.654935 171.457548 L 220.419502 171.570462 L 220.195478 171.703059 L 220.048203 171.899883 L 219.953823 172.126748 L 219.910262 172.363972 L 219.978714 172.593945 L 220.031609 172.829097 L 220.060649 173.069429 L 220.112506 173.304582 L 220.136361 173.543878 L 220.01294 173.73863 L 219.741207 173.752097 L 219.513034 173.674403 L 219.142772 173.61432 L 219.104398 173.608105 L 218.840962 173.56874 L 218.622124 173.522124 L 218.324462 173.459969 L 218.11081 173.559417 L 218.170964 173.791461 L 218.333797 173.977926 L 218.552635 174.11881 L 218.78703 174.233796 L 219.014166 174.360178 L 219.241302 174.482416 L 219.508886 174.505206 L 219.749504 174.599474 L 219.964194 174.744502 L 220.114581 174.94029 L 220.267041 175.139185 L 220.372831 175.358799 L 220.386314 175.597059 L 220.332382 175.834283 L 220.245261 176.064256 L 220.072057 176.23829 L 219.833513 176.349132 L 219.5763 176.417503 L 219.320125 176.478622 L 219.063949 176.546992 L 218.819182 176.626757 L 218.557821 176.690984 L 218.296459 176.734492 L 218.043395 176.820473 L 217.876414 176.99865 L 217.744696 177.212048 L 217.632684 177.428554 L 217.560084 177.659563 L 217.556972 177.801483 L 217.554898 177.899895 L 217.562158 178.142299 L 217.654464 178.362949 L 217.782034 178.576347 L 217.875377 178.799068 L 217.863968 179.038364 L 217.850485 179.278696 L 217.872265 179.517992 L 217.839077 179.755217 L 217.831817 179.993477 L 217.835965 180.229665 L 217.760253 180.460674 L 217.670021 180.687539 L 217.577715 180.912332 L 217.513412 181.116407 L 217.504078 181.144377 L 217.416957 181.370206 L 217.281091 181.578425 L 217.16493 181.632292 L 217.045658 181.688232 L 216.814374 181.806326 L 216.570644 181.903702 L 216.318617 181.981395 L 216.063478 182.057017 L 215.817674 182.149213 L 215.641359 182.324283 L 215.485787 182.539753 L 213.280809 180.830495 L 211.083091 180.917512 L 211.050939 180.917512 L 210.381979 180.944446 L 210.135137 181.024211 L 203.676813 180.820136 L 202.813906 180.795274 L 202.80146 180.794238 L 202.745454 173.282828 L 199.930633 173.275576 L 199.944116 172.643669 L 197.576306 172.620879 L 192.36256 172.567011 L 191.62411 172.558724 L 191.613739 172.815631 L 191.579513 173.721019 L 190.743571 173.730342 L 184.126563 173.798713 L 184.125526 166.402289 L 184.124489 164.916788 L 184.125526 163.987574 L 184.125526 163.800073 L 184.13486 155.890872 L 184.13486 155.795568 L 192.36256 155.765526 L 198.33861 155.736521 L 198.347944 155.737557 L 198.339647 149.645348 L 198.337573 147.143616 L 202.254883 147.215094 L 203.345963 147.255495 L 215.323991 147.360122 L 215.338512 147.360122 L 215.34992 146.139816 L 215.441189 146.228904 L 215.541793 146.30867 L 215.653805 146.376004 L 215.766854 146.441267 L 215.861234 146.528283 L 215.960801 146.610121 L 216.069701 146.681599 L 216.186899 146.742717 L 216.309283 146.793477 L 216.435815 146.834914 L 216.566495 146.877386 L 216.69925 146.908464 L 216.820597 146.882566 L 216.934683 146.817303 L 217.048769 146.740646 L 217.167004 146.68885 L 217.303908 146.698173 L 217.433552 146.675383 L 217.559047 146.627731 L 217.678319 146.568684 L 217.779959 146.488919 L 217.880563 146.406046 L 217.980129 146.317993 L 218.087992 146.25273 L 218.21971 146.230976 L 218.356614 146.251694 L 218.471737 146.30867 L 218.577526 146.387399 L 218.684353 146.465093 L 218.785993 146.54693 L 218.890745 146.624623 L 219.011055 146.675383 L 219.053578 146.685742 L 219.137587 146.707496 L 219.270342 146.73443 L 219.404134 146.75722 L 219.536889 146.781046 L 219.66757 146.810052 L 219.795139 146.849417 L 219.916485 146.901212 L 220.035757 146.959223 L 220.156067 147.014127 L 220.279487 147.059707 L 220.409131 147.092856 L 220.540849 147.117718 L 220.673604 147.140508 L 220.805322 147.167442 L 220.933928 147.199555 L 221.061497 147.242028 L 221.186992 147.2845 L 221.313524 147.324901 L 221.446279 147.350799 L 221.582146 147.365302 L 221.699344 147.416061 L 221.803058 147.492719 L 221.903662 147.575592 L 222.011525 147.650178 L 222.127686 147.711297 L 222.249032 147.765164 L 222.372453 147.814888 L 222.495874 147.861504 L 222.625517 147.898797 L 222.751012 147.940234 L 222.867173 148.002389 L 222.980222 148.067651 L 223.109866 148.1008 L 223.240546 148.130842 L 223.360856 148.183674 L 223.470793 148.260331 L 223.553765 148.352527 L 223.611845 148.462334 L 223.655406 148.580428 L 223.689632 148.698523 L 223.712449 148.818689 L 223.726969 148.939891 L 223.748749 149.061092 L 223.780901 149.180223 L 223.807867 149.299353 L 223.819275 149.420555 L 223.820312 149.543828 L 223.805792 149.66503 L 223.773641 149.782088 L 223.729043 149.897075 L 223.629477 150.124976 L 223.582805 150.240998 L 223.530948 150.363236 L 223.542357 150.475115 L 223.598363 150.579742 L 223.672 150.683333 L 223.753935 150.784853 L 223.834832 150.886372 L 223.909507 150.987892 L 223.961365 151.100807 L 224.004925 151.215793 L 224.006999 151.336995 L 224.029816 151.450945 L 224.143903 151.524495 L 224.194723 151.631194 L 224.204057 151.755504 L 224.296364 151.841485 L 224.421858 151.884993 L 224.554614 151.907783 L 224.68322 151.948184 L 224.801455 152.008267 L 224.886501 152.101499 L 224.96325 152.205091 L 225.065928 152.275533 L 225.196608 152.312826 L 225.330401 152.342867 L 225.463156 152.367729 L 225.573093 152.429884 L 225.669548 152.516901 L 225.763929 152.607025 L 225.853123 152.701293 L 225.940244 152.797633 L 226.03255 152.88465 L 226.141451 152.949913 L 226.265909 152.989277 L 226.400738 153.012067 L 226.535567 153.035893 L 226.666248 153.069043 L 226.795892 153.103228 L 226.924498 153.139485 L 227.049993 153.180921 L 227.169265 153.238933 L 227.2875 153.294872 L 227.409883 153.345632 L 227.532267 153.399499 L 227.652576 153.453367 L 227.772885 153.50827 L 228.136925 153.666765 L 228.260345 153.716489 L 228.384803 153.762069 L 228.515484 153.794182 L 228.645127 153.827332 L 228.770622 153.868768 L 228.896117 153.914348 L 229.023687 153.952677 L 229.155404 153.978575 L 229.289197 153.992042 L 229.424026 154.004473 L 229.69161 154.021047 L 229.82644 154.029335 L 229.961269 154.03555 L 230.096098 154.043838 L 230.22989 154.052125 L 230.362645 154.068699 L 230.497475 154.08113 L 230.63023 154.062484 L 230.761948 154.034514 L 230.892628 154.051089 L 231.021235 154.09149 L 231.150878 154.124639 L 231.279485 154.157788 L 231.409128 154.193009 L 231.536698 154.231338 L 231.664267 154.271739 L 231.789762 154.317319 L 231.913182 154.367043 L 232.03038 154.427126 L 232.147578 154.485137 L 232.27411 154.533825 L 232.399605 154.582513 L 232.514729 154.640524 L 232.608072 154.724433 L 232.679635 154.830096 L 232.759496 154.958549 " transform="matrix(3.766336,0,0,3.770826,-122.619238,-32.282592)"/>
<path style="fill-rule:evenodd;fill:rgb(90.980392%,91.372549%,83.921569%);fill-opacity:1;stroke-width:0.255926;stroke-linecap:square;stroke-linejoin:bevel;stroke:rgb(0%,0%,0%);stroke-opacity:1;stroke-miterlimit:4;" d="M 184.126563 173.798713 L 190.743571 173.730342 L 191.579513 173.721019 L 191.613739 172.815631 L 191.62411 172.558724 L 192.36256 172.567011 L 197.576306 172.620879 L 199.944116 172.643669 L 199.930633 173.275576 L 202.745454 173.282828 L 202.80146 180.794238 L 202.813906 180.795274 L 203.676813 180.820136 L 210.135137 181.024211 L 210.381979 180.944446 L 211.050939 180.917512 L 211.083091 180.917512 L 213.280809 180.830495 L 215.485787 182.539753 L 215.38622 182.746936 L 215.32088 182.980016 L 215.300137 183.166481 L 215.292877 183.220348 L 215.310509 183.457572 L 215.373775 183.691689 L 215.411112 183.930985 L 215.512752 184.149563 L 215.626839 184.493486 L 215.731591 184.714136 L 215.887163 184.903708 L 216.09563 185.054951 L 216.328988 185.173046 L 216.564421 185.28596 L 216.668136 185.502466 L 216.547827 185.709649 L 216.352843 185.881611 L 216.118447 185.966556 L 215.845677 185.946873 L 215.580167 185.933406 L 215.312583 185.946873 L 215.044998 185.98313 L 214.814752 186.095009 L 214.778451 186.318766 L 214.932986 186.518698 L 215.157011 186.651295 L 215.346809 186.819113 L 215.536607 186.985895 L 215.673511 187.194113 L 215.710848 187.430302 L 215.737814 187.672706 L 215.686993 187.898535 L 215.539718 188.104682 L 215.396592 188.307721 L 215.350957 188.664075 L 215.366515 188.905443 L 215.484749 189.118841 L 215.635136 189.317737 L 215.799005 189.507309 L 215.995027 189.669947 L 216.204531 189.818083 L 216.415072 189.96829 L 216.605907 190.134037 L 216.716882 190.352614 L 216.766665 190.587767 L 216.790519 190.828099 L 216.85586 191.058072 L 216.951278 191.282865 L 217.031138 191.513874 L 217.041509 191.744882 L 216.860008 191.927203 L 216.673322 192.099165 L 216.486635 192.270091 L 216.316543 192.458627 L 216.277131 192.692744 L 216.351806 192.92168 L 216.459669 193.143366 L 216.59035 193.350549 L 216.754219 193.542193 L 216.883863 193.751447 L 216.858971 193.979348 L 216.722068 194.189639 L 216.537455 194.363672 L 216.28854 194.452761 L 216.02303 194.481767 L 215.756482 194.4683 L 215.501344 194.399929 L 215.261763 194.292194 L 215.007661 194.218644 L 214.783637 194.089155 L 214.525387 194.025965 L 214.256766 194.03736 L 214.028593 194.154418 L 213.999553 194.357457 L 213.995404 194.390606 L 214.028593 194.628866 L 214.041039 194.868162 L 214.031704 195.108494 L 214.02237 195.34779 L 214.018221 195.588122 L 214.020296 195.681355 L 214.023407 195.828454 L 214.028593 196.06775 L 214.026519 196.308082 L 214.009924 196.547379 L 213.981921 196.785639 L 213.965327 197.024935 L 213.947695 197.267339 L 213.972587 197.501455 L 214.096008 197.716925 L 214.217354 197.930323 L 214.337663 198.142686 L 214.35322 198.383018 L 214.299289 198.619206 L 214.188314 198.837784 L 214.018221 199.023212 L 213.777603 199.123696 L 213.510019 199.147522 L 213.253843 199.091583 L 212.995593 199.032536 L 212.729046 199.060505 L 212.518505 199.204497 L 212.247809 199.474871 L 212.11298 199.689305 L 212.111942 199.914098 L 212.266478 200.118173 L 212.477019 200.266309 L 212.693783 200.444486 L 212.626368 200.713824 L 212.406493 200.871283 L 212.186617 201.010095 L 211.987485 201.166518 L 211.807021 201.344695 L 211.60374 201.509405 L 211.35275 201.569488 L 211.081017 201.566381 L 210.820692 201.509405 L 210.567628 201.41203 L 210.357087 201.462789 L 210.429687 201.692762 L 210.565554 201.899945 L 210.675492 202.118523 L 210.759501 202.34746 L 210.837287 202.576397 L 210.914036 202.819836 L 210.929593 203.060168 L 210.925444 203.3005 L 210.899516 203.540832 L 210.802024 203.761482 L 210.631931 203.947946 L 210.409982 204.081579 L 210.145509 204.108513 L 209.876887 204.085723 L 209.6176 204.024604 L 209.35209 203.992491 L 208.990125 203.848499 L 208.99946 203.624741 L 209.007757 203.431025 L 209.009831 203.23213 L 208.823144 203.028055 L 208.71943 203.043594 L 208.62816 203.059132 L 208.471551 203.176191 L 208.367836 203.450708 L 208.329462 203.644424 L 208.26827 203.847463 L 208.133441 203.722117 L 208.064989 203.534617 L 207.961274 203.360583 L 207.922899 203.352296 L 207.783922 203.316039 L 207.577529 203.344009 L 207.408474 203.290141 L 207.316168 203.104713 L 207.432328 202.889243 L 207.635609 202.867488 L 207.805702 202.792903 L 207.900082 202.513206 L 207.911491 202.316382 L 207.905268 202.114379 L 207.805702 201.948633 L 207.541229 201.955884 L 207.517374 202.150636 L 207.496631 202.360927 L 207.344171 202.437584 L 207.183413 202.328813 L 207.190673 202.041865 L 207.24979 201.854365 L 207.308907 201.664792 L 207.346245 201.460717 L 207.222824 201.335372 L 206.952128 201.407886 L 206.921014 201.59953 L 206.91894 201.798425 L 206.914791 201.997321 L 206.76233 202.198288 L 206.582903 202.106092 L 206.425257 201.98489 L 206.322579 201.813964 L 206.405551 201.651326 L 206.520675 201.486615 L 206.485412 201.204847 L 206.382734 201.033921 L 206.237533 200.893037 L 206.093369 200.962443 L 205.997952 201.144764 L 205.802968 201.35609 L 205.611095 201.395455 L 205.413 201.386132 L 205.216979 201.345731 L 205.109115 201.128189 L 205.153713 200.932401 L 205.168233 200.733506 L 205.020958 200.492138 L 204.859163 200.378188 L 204.67455 200.284955 L 204.511718 200.331571 L 204.4526 200.524251 L 204.556315 200.795661 L 204.673513 200.974874 L 204.499272 201.114722 L 204.302214 201.124045 L 204.109304 201.086753 L 203.92158 201.023562 L 203.741116 200.943797 L 203.574136 200.821559 L 203.613547 200.670315 L 203.774305 200.533575 L 203.909135 200.281848 L 203.788825 200.150287 L 203.59073 200.132676 L 203.392635 200.141999 L 203.124013 200.149251 L 202.933178 199.958643 L 202.791088 199.855051 L 202.589882 199.715203 L 202.457127 199.569139 L 202.355486 199.351597 L 202.300517 199.148558 L 202.264217 198.97556 L 202.067159 198.81085 L 201.965518 199.088475 L 201.766386 199.055326 L 201.748754 198.774593 L 201.6886 198.637853 L 201.441758 198.770449 L 201.29552 198.854358 L 201.146171 198.700007 L 201.154468 198.518722 L 201.217734 198.330186 L 201.01549 198.078459 L 200.600631 198.13647 L 200.465801 197.893031 L 200.362087 197.752146 L 200.304006 197.61437 L 200.301932 197.610226 L 200.219997 197.468306 L 200.044719 197.231082 L 199.872552 197.111952 L 199.795803 196.959672 L 199.725277 196.79807 L 199.699349 196.630252 L 199.616377 196.26561 L 199.47325 196.097792 L 199.498142 195.909256 L 199.597708 195.765264 L 199.418281 195.564296 L 199.179737 195.577763 L 198.924599 195.592266 L 198.6985 195.585015 L 198.47655 195.558081 L 198.2183 195.394407 L 198.096954 195.278384 L 197.805515 195.195511 L 197.761955 195.170649 L 197.60016 195.077417 L 197.433179 194.932389 L 197.328427 194.78011 L 197.28383 194.700344 L 197.187375 194.527347 L 197.044248 194.416504 L 196.736215 194.370924 L 196.55264 194.380247 L 196.453074 194.385427 L 196.256015 194.444474 L 196.253941 194.443438 L 196.052734 194.24765 L 195.887828 194.188603 L 195.767518 194.048755 L 195.645135 193.892332 L 195.450151 193.752483 L 194.902537 193.612635 L 194.830973 193.414775 L 194.906685 193.204485 L 194.807119 192.971404 L 194.736593 192.610906 L 194.717924 192.462771 L 194.669178 192.310491 L 194.622506 192.21208 L 194.581021 192.129206 L 194.473157 191.779068 L 194.297879 191.491084 L 193.997106 191.45897 L 193.793825 191.538736 L 193.700481 191.65165 L 193.393485 191.667189 L 193.146644 191.787355 L 193.019075 191.906485 L 192.738008 191.911665 L 192.487018 191.924096 L 192.079418 191.970712 L 191.880286 191.9127 L 191.764125 191.745918 L 191.691525 191.568777 L 191.596107 191.222782 L 191.666633 191.048748 L 191.312965 190.584659 L 191.302594 190.37644 L 191.255922 190.224161 L 191.139762 190.09778 L 191.036047 189.986937 L 190.846249 189.833622 L 190.638819 189.621259 L 190.756017 189.476231 L 190.58385 189.397502 L 190.426203 189.398538 L 190.199068 189.387143 L 190.080833 189.098123 L 189.766577 188.91891 L 189.696051 188.782169 L 189.713682 188.506616 L 189.447135 188.453784 L 189.19822 188.463108 L 189.001161 188.536658 L 188.786472 188.569807 L 188.523036 188.561519 L 188.304198 188.55634 L 188.077062 188.47761 L 187.780437 188.349157 L 187.575082 188.254889 L 187.409138 188.181339 L 187.202746 188.024916 L 187.086585 187.885068 L 187.096957 187.44584 L 187.083474 187.297705 L 187.081399 187.149569 L 187.009836 186.963105 L 186.899898 186.805646 L 186.788923 186.608822 L 186.638537 186.39128 L 186.49541 186.311515 L 186.269312 186.314623 L 186.094034 186.321874 L 185.801558 186.202744 L 185.548494 186.156128 L 185.381513 186.077398 L 185.159563 185.966556 L 185.005028 185.861928 L 184.84427 185.691003 L 184.790338 185.5294 L 184.652397 185.403018 L 184.440819 185.31393 L 184.29147 185.157507 L 184.131749 185.058059 L 183.987585 184.95654 L 183.884908 184.841553 L 183.704444 184.70792 L 183.581023 184.590862 L 183.443082 184.413721 L 183.228393 184.100875 L 183.145421 183.861579 L 182.964957 183.547697 L 182.840499 183.141619 L 182.728487 182.939616 L 182.546986 182.753151 L 182.522094 182.728289 L 182.357188 182.664063 L 182.146647 182.594656 L 181.965146 182.547004 L 181.97448 178.233459 L 181.98174 174.562181 L 181.983814 173.819431 L 184.126563 173.798713 " transform="matrix(3.766336,0,0,3.770826,-122.619238,-32.282592)"/>
</g>
</svg>
